<?xml version="1.0" standalone="no"?>
<!DOCTYPE svg PUBLIC "-//W3C//DTD SVG 1.1//EN" "http://www.w3.org/Graphics/SVG/1.1/DTD/svg11.dtd" >
<svg xmlns="http://www.w3.org/2000/svg" xmlns:xlink="http://www.w3.org/1999/xlink" version="1.1">
<metadata>
Created by FontForge 20161116 at Tue May  3 12:01:43 2016
 By Jimmy Wärting
Copyright \\\(C\\\)2016 Commercial Type.
</metadata>
<defs>
<font id="Canela-Regular" horiz-adv-x="300" >
  <font-face 
    font-family="Canela Regular"
    font-weight="400"
    font-stretch="normal"
    units-per-em="1000"
    panose-1="0 0 0 0 0 0 0 0 0 0"
    ascent="775"
    descent="-225"
    x-height="477"
    cap-height="732"
    bbox="-135 -260 1143 1139"
    underline-thickness="20"
    underline-position="-80"
    stemh="20"
    stemv="100"
    unicode-range="U+0020-FB04"
  />
<missing-glyph horiz-adv-x="161" 
 />
    <glyph glyph-name="f_b" unicode="fb" horiz-adv-x="851" 
d="M574 -15c-71 0 -125 22 -160 50l-51 -45h-4v618c0 89 -44 152 -90 152c-44 0 -80 -60 -80 -173v-110h118v-18h-118v-320c0 -75 8 -111 23 -137v-2h-147v2c17 26 24 61 24 137v320h-63v18h63v66c0 148 94 235 202 235c41 0 83 -12 102 -24l66 24v-370h2
c34 41 91 84 168 84c120 0 192 -104 192 -248c0 -143 -82 -259 -247 -259zM584 3c78 0 132 85 132 222c0 143 -60 202 -147 202c-52 0 -88 -21 -110 -41v-201c0 -138 71 -182 125 -182z" />
    <glyph glyph-name="f_f" unicode="ff" horiz-adv-x="583" 
d="M65 0v2c17 26 24 61 24 137v320h-63v18h63v46c0 148 89 235 186 235c27 0 52 -7 62 -14l11 -105l-6 -2c-20 34 -65 103 -95 103c-28 0 -58 -60 -58 -173v-90h170v66c0 148 94 235 201 235c30 0 63 -7 77 -14l11 -105l-6 -2c-20 34 -62 103 -108 103
c-40 0 -75 -60 -75 -173v-110h118v-18h-118v-320c0 -75 8 -111 23 -137v-2h-147v2c17 26 24 61 24 137v320h-170v-320c0 -75 8 -111 23 -137v-2h-147z" />
    <glyph glyph-name="f_f_b" unicode="ffb" horiz-adv-x="1121" 
d="M844 -15c-71 0 -124 22 -160 50l-51 -45h-4v618c0 89 -44 152 -90 152c-44 0 -80 -60 -80 -173v-110h118v-18h-118v-320c0 -75 8 -111 23 -137v-2h-147v2c17 26 24 61 24 137v320h-170v-320c0 -75 8 -111 23 -137v-2h-147v2c17 26 24 61 24 137v320h-63v18h63v46
c0 148 89 235 186 235c27 0 52 -7 62 -14l11 -105l-6 -2c-20 34 -65 103 -95 103c-28 0 -58 -60 -58 -173v-90h170v66c0 148 94 235 202 235c41 0 83 -12 102 -24l66 24v-370h2c34 41 91 84 168 84c120 0 192 -104 192 -248c0 -143 -82 -259 -247 -259zM854 3
c78 0 132 85 132 222c0 143 -60 202 -147 202c-52 0 -88 -21 -110 -41v-201c0 -138 71 -182 125 -182z" />
    <glyph glyph-name="f_f_h" unicode="ffh" horiz-adv-x="1101" 
d="M65 0v2c17 26 24 61 24 137v320h-63v18h63v46c0 148 89 235 186 235c27 0 52 -7 62 -14l11 -105l-6 -2c-20 34 -65 103 -95 103c-28 0 -58 -60 -58 -173v-90h170v66c0 148 94 235 202 235c41 0 83 -12 102 -24l66 24v-378c43 52 91 92 161 92c91 0 142 -56 142 -145v-153
c0 -89 2 -137 22 -192v-2h-145v2c19 55 23 109 23 192v130c0 57 -26 107 -92 107c-43 0 -81 -19 -111 -51v-240c0 -75 9 -111 23 -138v-2h-145v2c13 28 22 62 22 137v469c0 89 -44 152 -90 152c-44 0 -80 -60 -80 -173v-110h118v-18h-118v-320c0 -75 8 -111 23 -137v-2h-147
v2c17 26 24 61 24 137v320h-170v-320c0 -75 8 -111 23 -137v-2h-147z" />
    <glyph glyph-name="f_f_i" unicode="ffi" horiz-adv-x="797" 
d="M212 0h-147v2c17 26 24 61 24 137v320h-63v18h63v46c0 148 89 235 186 235c27 0 52 -7 62 -14l11 -105l-6 -2c-20 34 -65 103 -95 103c-28 0 -58 -60 -58 -173v-90h170v66c0 148 94 235 203 235c41 0 88 -12 107 -24l11 -155l-6 -2c-26 54 -90 163 -142 163
c-38 0 -73 -60 -73 -173v-110h129c78 0 106 8 141 20v-302c0 -86 2 -138 22 -193v-2h-145v2c14 55 23 105 23 192v134c0 65 -14 106 -35 131h-135v-320c0 -75 8 -111 23 -137v-2h-147v2c17 26 24 61 24 137v320h-170v-320c0 -75 8 -111 23 -137v-2z" />
    <glyph glyph-name="f_f_j" unicode="ffj" horiz-adv-x="800" 
d="M727 2c0 -137 -74 -206 -161 -217l-2 6c44 27 65 70 65 141v396c0 65 -14 106 -35 131h-135v-320c0 -75 8 -111 23 -137v-2h-147v2c17 26 24 61 24 137v320h-170v-320c0 -75 8 -111 23 -137v-2h-147v2c17 26 24 61 24 137v320h-63v18h63v46c0 148 89 235 186 235
c27 0 52 -7 62 -14l11 -105l-6 -2c-20 34 -65 103 -95 103c-28 0 -58 -60 -58 -173v-90h170v66c0 148 94 235 203 235c41 0 88 -12 107 -24l11 -155l-6 -2c-26 54 -90 163 -142 163c-38 0 -73 -60 -73 -173v-110h129c78 0 106 8 141 20z" />
    <glyph glyph-name="f_f_k" unicode="ffk" horiz-adv-x="1038" 
d="M1048 0h-139l-172 248l115 125c32 34 44 77 28 102v2h130v-2c-60 -27 -103 -70 -144 -114l-52 -57l147 -212c30 -43 52 -71 87 -90v-2zM65 0v2c17 26 24 61 24 137v320h-63v18h63v46c0 148 89 235 186 235c27 0 52 -7 62 -14l11 -105l-6 -2c-20 34 -65 103 -95 103
c-28 0 -58 -60 -58 -173v-90h170v66c0 148 94 235 202 235c41 0 83 -12 102 -24l66 24v-638c0 -75 9 -111 23 -138v-2h-145v2c13 28 22 62 22 137v469c0 89 -44 152 -90 152c-44 0 -80 -60 -80 -173v-110h118v-18h-118v-320c0 -75 8 -111 23 -137v-2h-147v2
c17 26 24 61 24 137v320h-170v-320c0 -75 8 -111 23 -137v-2h-147z" />
    <glyph glyph-name="f_f_l" unicode="ffl" horiz-adv-x="798" 
d="M65 0v2c17 26 24 61 24 137v320h-63v18h63v46c0 148 89 235 186 235c27 0 52 -7 62 -14l11 -105l-6 -2c-20 34 -65 103 -95 103c-28 0 -58 -60 -58 -173v-90h170v66c0 148 94 235 202 235c41 0 83 -12 102 -24l66 24v-638c0 -75 9 -111 23 -138v-2h-145v2
c13 28 22 62 22 137v469c0 89 -44 152 -90 152c-44 0 -80 -60 -80 -173v-110h118v-18h-118v-320c0 -75 8 -111 23 -137v-2h-147v2c17 26 24 61 24 137v320h-170v-320c0 -75 8 -111 23 -137v-2h-147z" />
    <glyph glyph-name="f_f_t" unicode="fft" horiz-adv-x="883" 
d="M869 48c-28 -39 -72 -63 -126 -63c-61 0 -114 27 -114 121v353h-170v-320c0 -75 8 -111 23 -137v-2h-147v2c17 26 24 61 24 137v320h-170v-320c0 -75 8 -111 23 -137v-2h-147v2c17 26 24 61 24 137v320h-63v18h63v46c0 148 89 235 186 235c27 0 52 -7 62 -14l11 -105
l-6 -2c-20 34 -65 103 -95 103c-28 0 -58 -60 -58 -173v-90h170v66c0 148 94 235 201 235c30 0 63 -7 77 -14l11 -105l-6 -2c-20 34 -62 103 -108 103c-40 0 -75 -60 -75 -173v-110h118l143 113h10v-113h129v-18h-129v-350c0 -48 22 -74 72 -74c34 0 65 15 65 17z" />
    <glyph glyph-name="f_h" unicode="fh" horiz-adv-x="831" 
d="M212 0h-147v2c17 26 24 61 24 137v320h-63v18h63v66c0 148 94 235 202 235c41 0 83 -12 102 -24l66 24v-378c43 52 91 92 161 92c91 0 142 -56 142 -145v-153c0 -89 2 -137 22 -192v-2h-145v2c19 55 23 109 23 192v130c0 57 -26 107 -92 107c-43 0 -81 -19 -111 -51v-240
c0 -75 9 -111 23 -138v-2h-145v2c13 28 22 62 22 137v469c0 89 -44 152 -90 152c-44 0 -80 -60 -80 -173v-110h118v-18h-118v-320c0 -75 8 -111 23 -137v-2z" />
    <glyph glyph-name="f_i" unicode="fi" horiz-adv-x="527" 
d="M212 0h-147v2c17 26 24 61 24 137v320h-63v18h63v66c0 148 94 235 203 235c41 0 88 -12 107 -24l11 -155l-6 -2c-26 54 -90 163 -142 163c-38 0 -73 -60 -73 -173v-110h129c78 0 106 8 141 20v-302c0 -86 2 -138 22 -193v-2h-145v2c14 55 23 105 23 192v134
c0 65 -14 106 -35 131h-135v-320c0 -75 8 -111 23 -137v-2z" />
    <glyph glyph-name="f_j" unicode="fj" horiz-adv-x="526" 
d="M457 2c0 -137 -74 -206 -161 -217l-2 6c44 27 65 70 65 141v396c0 65 -14 106 -35 131h-135v-320c0 -75 8 -111 23 -137v-2h-147v2c17 26 24 61 24 137v320h-63v18h63v66c0 148 94 235 203 235c41 0 88 -12 107 -24l11 -155l-6 -2c-26 54 -90 163 -142 163
c-38 0 -73 -60 -73 -173v-110h129c78 0 106 8 141 20z" />
    <glyph glyph-name="f_k" unicode="fk" horiz-adv-x="768" 
d="M212 0h-147v2c17 26 24 61 24 137v320h-63v18h63v66c0 148 94 235 202 235c41 0 83 -12 102 -24l66 24v-638c0 -75 9 -111 23 -138v-2h-145v2c13 28 22 62 22 137v469c0 89 -44 152 -90 152c-44 0 -80 -60 -80 -173v-110h118v-18h-118v-320c0 -75 8 -111 23 -137v-2z
M778 0h-139l-172 248l115 125c32 34 44 77 28 102v2h130v-2c-60 -27 -103 -70 -144 -114l-52 -57l147 -212c30 -43 52 -71 87 -90v-2z" />
    <glyph glyph-name="f_l" unicode="fl" horiz-adv-x="528" 
d="M212 2v-2h-147v2c17 26 24 61 24 137v320h-63v18h63v66c0 148 94 235 202 235c41 0 83 -12 102 -24l66 24v-638c0 -75 9 -111 23 -138v-2h-145v2c13 28 22 62 22 137v469c0 89 -44 152 -90 152c-44 0 -80 -60 -80 -173v-110h118v-18h-118v-320c0 -75 8 -111 23 -137z" />
    <glyph glyph-name="f_t" unicode="ft" horiz-adv-x="613" 
d="M599 48c-28 -39 -72 -63 -126 -63c-61 0 -114 27 -114 121v353h-170v-320c0 -75 8 -111 23 -137v-2h-147v2c17 26 24 61 24 137v320h-63v18h63v66c0 148 94 235 201 235c30 0 63 -7 77 -14l11 -105l-6 -2c-20 34 -62 103 -108 103c-40 0 -75 -60 -75 -173v-110h118
l143 113h10v-113h129v-18h-129v-350c0 -48 22 -74 72 -74c34 0 65 15 65 17z" />
    <glyph glyph-name=".notdef" horiz-adv-x="161" 
 />
    <glyph glyph-name="space" unicode=" " horiz-adv-x="170" 
 />
    <glyph glyph-name="exclam" unicode="!" horiz-adv-x="234" 
d="M171 732v-2l-46 -506h-16l-45 506v2h107zM117 -5c-38 0 -67 31 -67 67c0 39 29 69 67 69c37 0 67 -30 67 -69c0 -36 -30 -67 -67 -67z" />
    <glyph glyph-name="quotedbl" unicode="&#x22;" horiz-adv-x="309" 
d="M82 505l-47 227h104l-47 -227h-10zM217 505l-47 227h104l-47 -227h-10z" />
    <glyph glyph-name="numbersign" unicode="#" horiz-adv-x="595" 
d="M372 251l42 230h-188l-42 -230h188zM325 0l43 231h-188l-43 -231h-25l43 231h-137v20h141l42 230h-137v20h141l43 231h25l-43 -231h188l43 231h25l-43 -231h140v-20h-144l-42 -230h140v-20h-144l-43 -231h-25z" />
    <glyph glyph-name="dollar" unicode="$" horiz-adv-x="553" 
d="M291 -114h-25v99h-5c-67 0 -140 14 -206 39l-20 185l8 3c71 -132 142 -196 223 -206v320c-103 51 -206 101 -206 230c0 128 96 183 206 190v76h25v-75c59 0 116 -12 163 -29l20 -181l-9 -3c-57 124 -116 176 -174 189v-271l31 -15c98 -48 201 -101 201 -239
c0 -140 -104 -203 -232 -212v-100zM424 142c0 86 -61 134 -133 172v-309c89 1 133 64 133 137zM149 615c0 -75 51 -115 117 -150v261c-3 0 -6 1 -8 1c-68 0 -109 -44 -109 -112z" />
    <glyph glyph-name="percent" unicode="%" horiz-adv-x="771" 
d="M194 346c-92 0 -167 87 -167 201c0 115 74 200 167 200c92 0 171 -85 171 -200c0 -114 -79 -201 -171 -201zM194 361c58 0 77 80 77 186s-19 185 -77 185s-73 -79 -73 -185s15 -186 73 -186zM573 -8c-92 0 -167 87 -167 201c0 115 74 200 167 200c92 0 171 -85 171 -200
c0 -114 -79 -201 -171 -201zM573 7c58 0 77 80 77 186s-19 185 -77 185s-73 -79 -73 -185s15 -186 73 -186zM141 1l-17 14l520 728l18 -12z" />
    <glyph glyph-name="ampersand" unicode="&#x26;" horiz-adv-x="782" 
d="M613 -15c-62 0 -114 30 -159 73c-46 -44 -106 -73 -188 -73c-151 0 -216 94 -216 191c0 94 60 169 155 208c-48 66 -75 117 -75 181c0 109 77 182 177 182c102 0 149 -75 149 -145c0 -84 -62 -144 -142 -183c23 -28 50 -62 80 -103c38 -53 77 -110 120 -154
c44 67 69 148 69 203c0 37 -11 62 -56 76v6h209v-6c-31 -10 -57 -22 -76 -43c-18 -19 -33 -49 -48 -84c-24 -53 -48 -117 -84 -166c43 -40 91 -68 147 -68c49 0 79 20 93 49l4 -3c-19 -79 -69 -141 -159 -141zM322 36c47 0 85 14 117 37c-55 57 -101 131 -144 191l-81 108
c-42 -30 -64 -84 -64 -149c0 -107 58 -187 172 -187zM208 614c0 -66 33 -105 99 -186c52 31 94 87 94 164c0 66 -31 135 -100 135c-48 0 -93 -35 -93 -113z" />
    <glyph glyph-name="quotesingle" unicode="'" horiz-adv-x="174" 
d="M82 505l-47 227h104l-47 -227h-10z" />
    <glyph glyph-name="parenleft" unicode="(" horiz-adv-x="350" 
d="M303 -121l-8 -9c-128 98 -210 252 -210 442s82 345 210 443l8 -9c-73 -100 -123 -251 -123 -434s50 -333 123 -433z" />
    <glyph glyph-name="parenright" unicode=")" horiz-adv-x="350" 
d="M55 -130l-8 9c73 100 123 250 123 433s-50 334 -123 434l8 9c128 -98 210 -253 210 -443s-82 -344 -210 -442z" />
    <glyph glyph-name="asterisk" unicode="*" horiz-adv-x="393" 
d="M255 435l-59 130l-58 -130l-62 44l106 96l-142 16l23 72l124 -71l-29 140h76l-29 -140l124 71l24 -72l-143 -16l106 -96z" />
    <glyph glyph-name="plus" unicode="+" horiz-adv-x="532" 
d="M487 297h-209v-209h-24v209h-209v22h209v209h24v-209h209v-22z" />
    <glyph glyph-name="comma" unicode="," horiz-adv-x="256" 
d="M48 -138l-5 6c39 35 63 79 63 118c0 23 -30 62 -54 88v2l97 72c32 -21 55 -58 55 -94c0 -79 -88 -155 -156 -192z" />
    <glyph glyph-name="hyphen" unicode="-" horiz-adv-x="281" 
d="M251 258h-221v50h221v-50z" />
    <glyph glyph-name="period" unicode="." horiz-adv-x="256" 
d="M128 -5c-37 0 -67 31 -67 67c0 38 30 68 67 68c36 0 67 -30 67 -68c0 -36 -31 -67 -67 -67z" />
    <glyph glyph-name="slash" unicode="/" horiz-adv-x="392" 
d="M-25 -130l380 911h28l-380 -911h-28z" />
    <glyph glyph-name="zero" unicode="0" horiz-adv-x="676" 
d="M337 -15c-167 0 -299 164 -299 381s131 381 299 381c169 0 301 -164 301 -381s-133 -381 -301 -381zM337 5c130 0 174 154 174 361s-43 361 -174 361c-129 0 -172 -154 -172 -361s43 -361 172 -361z" />
    <glyph glyph-name="one" unicode="1" horiz-adv-x="351" 
d="M295 0h-215v2c41 53 50 83 50 154v421h-88v10c71 39 134 92 191 155h12v-586c0 -72 9 -101 50 -154v-2z" />
    <glyph glyph-name="two" unicode="2" horiz-adv-x="526" 
d="M445 0h-440v15c277 243 360 379 360 533c0 109 -45 179 -130 179c-84 0 -131 -77 -186 -182l-10 4l26 166c36 14 93 32 172 32c171 0 244 -84 244 -196c0 -147 -124 -277 -359 -451h191c91 0 135 38 180 87l8 -3z" />
    <glyph glyph-name="three" unicode="3" horiz-adv-x="559" 
d="M249 -15c-72 0 -149 19 -190 44l-24 156l10 2c65 -107 118 -182 210 -182c108 0 154 102 154 224c0 138 -60 205 -164 205c-57 0 -100 -19 -133 -44l-9 12l273 230h-318l43 100h415v-10l-330 -278c22 10 52 15 86 15c128 0 252 -75 252 -229c0 -145 -111 -245 -275 -245z
" />
    <glyph glyph-name="four" unicode="4" horiz-adv-x="567" 
d="M293 0v2c33 53 40 83 40 154v34h-328v14l328 528h129l-432 -518h303v236h114v-236h90l-8 -24h-82v-34c0 -72 7 -101 40 -154v-2h-194z" />
    <glyph glyph-name="five" unicode="5" horiz-adv-x="534" 
d="M232 -15c-78 0 -139 19 -177 44l-25 156l10 2c57 -105 111 -182 194 -182c91 0 156 81 156 224s-64 215 -177 215c-50 0 -94 -13 -136 -42l-8 4l54 326h366l-19 -100h-341l-34 -203c43 26 88 39 145 39c137 0 259 -73 259 -233c0 -155 -117 -250 -267 -250z" />
    <glyph glyph-name="six" unicode="6" horiz-adv-x="589" 
d="M302 -15c-160 0 -264 131 -264 293c0 163 103 373 397 469l3 -10c-154 -70 -236 -208 -268 -345c23 49 73 94 158 94c129 0 231 -88 231 -237c0 -158 -115 -264 -257 -264zM302 5c87 0 141 80 141 228c0 154 -59 212 -145 212c-56 0 -108 -23 -133 -78
c-8 -38 -11 -76 -11 -112c0 -130 41 -250 148 -250z" />
    <glyph glyph-name="seven" unicode="7" horiz-adv-x="514" 
d="M203 0h-111c71 256 207 468 332 632h-394l23 100h455v-10c-123 -187 -253 -429 -305 -722z" />
    <glyph glyph-name="eight" unicode="8" horiz-adv-x="560" 
d="M275 -15c-132 0 -245 72 -245 193c0 79 49 148 164 184c-94 51 -128 122 -128 189c0 113 93 196 218 196c115 0 210 -69 210 -173c0 -58 -30 -129 -137 -163c121 -60 173 -135 173 -219c0 -125 -115 -207 -255 -207zM160 601c0 -82 59 -126 176 -180c56 47 68 106 68 156
c0 94 -43 150 -121 150s-123 -55 -123 -126zM276 5c94 0 153 56 153 143c0 96 -70 137 -215 204c-72 -45 -99 -105 -99 -176c0 -103 59 -171 161 -171z" />
    <glyph glyph-name="nine" unicode="9" horiz-adv-x="589" 
d="M154 -15l-3 10c149 72 233 207 267 342c-25 -48 -75 -91 -162 -91c-124 0 -226 88 -226 237c0 158 114 264 258 264c158 0 263 -131 263 -293c0 -163 -103 -373 -397 -469zM292 287c54 0 105 23 132 76c7 39 11 78 11 115c0 129 -41 249 -147 249
c-87 0 -142 -80 -142 -226c0 -156 59 -214 146 -214z" />
    <glyph glyph-name="colon" unicode=":" horiz-adv-x="256" 
d="M128 317c-37 0 -67 31 -67 67c0 38 30 68 67 68c36 0 67 -30 67 -68c0 -36 -31 -67 -67 -67zM128 -5c-37 0 -67 31 -67 67c0 38 30 68 67 68c36 0 67 -30 67 -68c0 -36 -31 -67 -67 -67z" />
    <glyph glyph-name="semicolon" unicode=";" horiz-adv-x="256" 
d="M48 -138l-5 6c39 35 63 79 63 118c0 23 -30 62 -54 88v2l97 72c32 -21 55 -58 55 -94c0 -79 -88 -155 -156 -192zM128 317c-37 0 -67 31 -67 67c0 38 30 68 67 68c36 0 67 -30 67 -68c0 -36 -31 -67 -67 -67z" />
    <glyph glyph-name="less" unicode="&#x3c;" horiz-adv-x="530" 
d="M475 85l-430 208v26l430 208v-26l-407 -195l407 -195v-26z" />
    <glyph glyph-name="equal" unicode="=" horiz-adv-x="532" 
d="M487 377h-442v22h442v-22zM487 237h-442v22h442v-22z" />
    <glyph glyph-name="greater" unicode="&#x3e;" horiz-adv-x="530" 
d="M485 293l-430 -208v26l407 195l-407 195v26l430 -208v-26z" />
    <glyph glyph-name="question" unicode="?" horiz-adv-x="427" 
d="M142 224h-16c26 155 164 166 164 366c0 85 -35 139 -101 139s-104 -59 -147 -140l-7 2l20 131c29 11 82 25 139 25c136 0 208 -55 208 -162c0 -184 -208 -206 -260 -361zM140 -5c-38 0 -67 31 -67 67c0 39 29 69 67 69c37 0 67 -30 67 -69c0 -36 -30 -67 -67 -67z" />
    <glyph glyph-name="at" unicode="@" horiz-adv-x="857" 
d="M421 -161c-219 0 -391 131 -391 360c0 238 190 437 455 437c207 0 342 -119 342 -313c0 -161 -95 -291 -228 -291c-113 0 -128 95 -118 161c-40 -89 -94 -166 -160 -166c-49 0 -82 48 -82 125c0 139 106 306 266 306c31 0 59 -6 79 -14l38 14h7l-62 -236
c-25 -94 -28 -170 46 -170c99 0 166 136 166 276c0 186 -119 288 -298 288c-246 0 -391 -201 -391 -420c0 -212 138 -337 335 -337c79 0 158 20 214 60l9 -16c-60 -42 -138 -64 -227 -64zM366 95c49 0 97 103 132 190l34 130c-7 18 -22 24 -41 24c-94 0 -160 -167 -160 -275
c0 -53 16 -69 35 -69z" />
    <glyph glyph-name="B" unicode="B" horiz-adv-x="623" 
d="M312 0h-263v2c32 62 40 97 40 179v370c0 83 -8 117 -40 179v2c146 0 181 4 262 4c216 1 254 -95 254 -171c0 -78 -41 -145 -136 -177c129 -20 174 -101 174 -184c0 -114 -83 -204 -291 -204zM204 391h116c101 1 135 89 135 168c0 101 -58 157 -161 157
c-39 0 -67 -4 -90 -10v-315zM298 20c123 0 184 72 184 179c0 100 -49 172 -153 172h-125v-339c24 -6 56 -12 94 -12z" />
    <glyph glyph-name="C" unicode="C" horiz-adv-x="752" 
d="M705 240l-20 -183c-17 -13 -138 -72 -275 -72c-231 0 -380 167 -380 381c0 213 166 381 399 381c106 0 199 -27 252 -48l20 -164l-8 -3c-98 138 -162 195 -277 195c-185 0 -259 -154 -259 -361c0 -208 77 -361 253 -361c142 0 217 98 287 238z" />
    <glyph glyph-name="D" unicode="D" horiz-adv-x="753" 
d="M49 0v2c32 53 40 82 40 152v424c0 70 -8 99 -40 152v2c125 0 142 4 274 4c249 0 400 -130 400 -367s-144 -369 -400 -369h-274zM314 716h-110v-699l111 3c205 5 281 118 281 335c0 247 -93 361 -282 361z" />
    <glyph glyph-name="E" unicode="E" horiz-adv-x="620" 
d="M605 198l-44 -198h-512v2c26 61 39 100 39 167v394c0 68 -13 106 -39 167v2h462l39 -178l-8 -3c-53 55 -125 157 -169 159l-169 7v-338h86c48 0 90 67 124 105h9v-226h-9c-33 35 -75 101 -124 101h-86v-344l178 7c82 4 158 101 215 179z" />
    <glyph glyph-name="F" unicode="F" horiz-adv-x="590" 
d="M244 2v-2h-195v2c32 62 40 97 40 179v370c0 83 -8 117 -40 179v2h492l39 -178l-9 -2c-52 54 -124 158 -169 159l-198 7v-330h106c48 0 90 67 124 105h9v-226h-9c-33 35 -75 101 -124 101h-106v-187c0 -83 7 -117 40 -179z" />
    <glyph glyph-name="G" unicode="G" horiz-adv-x="783" 
d="M713 91c-47 -33 -133 -106 -294 -106c-237 0 -389 167 -389 381c0 213 154 381 406 381c115 0 201 -30 256 -48l20 -163l-9 -3c-95 138 -169 194 -276 194c-184 0 -270 -159 -270 -362c0 -202 76 -360 262 -360c109 0 184 54 184 159c0 72 -10 107 -46 166v2h196v-2
c-33 -62 -40 -96 -40 -179v-60z" />
    <glyph glyph-name="H" unicode="H" horiz-adv-x="757" 
d="M49 0v2c32 62 40 97 40 179v370c0 83 -8 117 -40 179v2h195v-2c-33 -62 -40 -96 -40 -179v-164h349v164c0 82 -7 117 -40 179v2h195v-2c-32 -62 -40 -96 -40 -179v-370c0 -83 8 -117 40 -179v-2h-195v2c33 62 40 97 40 179v186h-349v-186c0 -83 7 -117 40 -179v-2h-195z
" />
    <glyph glyph-name="I" unicode="I" horiz-adv-x="293" 
d="M49 0v2c33 62 40 96 40 179v370c0 83 -7 117 -40 179v2h195v-2c-33 -62 -40 -96 -40 -179v-370c0 -83 7 -117 40 -179v-2h-195z" />
    <glyph glyph-name="J" unicode="J" horiz-adv-x="404" 
d="M324 138c0 -98 -64 -153 -169 -153c-38 0 -78 7 -117 22l-18 165l8 3c70 -112 100 -170 136 -170c27 0 46 28 46 77v469c0 83 -8 117 -40 179v2h194v-2c-32 -62 -40 -96 -40 -179v-413z" />
    <glyph glyph-name="K" unicode="K" horiz-adv-x="655" 
d="M49 0v2c32 62 40 97 40 179v370c0 83 -8 117 -40 179v2h195v-2c-33 -62 -40 -96 -40 -179v-370c0 -83 7 -117 40 -179v-2h-195zM666 0h-174l-272 361l189 218c65 75 79 120 56 151v2h158v-2c-87 -44 -128 -87 -182 -149l-130 -148l232 -308c39 -52 72 -88 122 -123z" />
    <glyph glyph-name="L" unicode="L" horiz-adv-x="589" 
d="M535 0h-486v2c32 62 40 97 40 179v370c0 83 -8 117 -40 179v2h195v-2c-33 -62 -40 -96 -40 -179v-537l151 6c83 4 160 96 216 181l8 -3z" />
    <glyph glyph-name="M" unicode="M" horiz-adv-x="899" 
d="M184 0h-158v2c51 70 63 107 63 197v393c-4 64 -21 94 -71 138v2h182l257 -569l247 569h177v-2c-57 -50 -71 -82 -71 -167v-382c0 -83 8 -117 40 -179v-2h-195v2c32 62 40 97 40 179v473l-275 -632h-21l-290 636l3 -459c1 -90 14 -127 72 -197v-2z" />
    <glyph glyph-name="N" unicode="N" horiz-adv-x="694" 
d="M573 -3l-464 630l4 -428c0 -90 13 -127 69 -197v-2h-154v2c50 70 61 107 61 197v392c-4 65 -22 95 -78 139v2h160l419 -569l-3 370c-1 90 -13 127 -61 197v2h144v-2c-48 -70 -61 -107 -61 -197v-533z" />
    <glyph glyph-name="O" unicode="O" horiz-adv-x="814" 
d="M406 -15c-188 0 -376 168 -376 380s188 382 376 382s378 -170 378 -382s-190 -380 -378 -380zM406 5c173 0 251 153 251 360c0 206 -78 362 -251 362c-172 0 -249 -156 -249 -362s77 -360 249 -360z" />
    <glyph glyph-name="P" unicode="P" horiz-adv-x="578" 
d="M49 0v2c32 62 40 97 40 179v370c0 83 -8 117 -40 179v2h236c218 0 283 -95 283 -202c0 -133 -103 -230 -298 -230h-66v-119c0 -83 7 -117 40 -179v-2h-195zM268 712c-14 0 -32 0 -64 -2v-390h62c133 0 186 101 186 208c0 145 -82 184 -184 184z" />
    <glyph glyph-name="Q" unicode="Q" horiz-adv-x="814" 
d="M679 -170c-179 0 -269 120 -294 156c-181 12 -355 175 -355 379c0 212 188 382 376 382s378 -170 378 -382c0 -210 -187 -376 -373 -380c148 -88 326 -59 420 -39l-44 -93c-23 -14 -60 -23 -108 -23zM406 5c173 0 251 153 251 360c0 206 -78 362 -251 362
c-172 0 -249 -156 -249 -362s77 -360 249 -360z" />
    <glyph glyph-name="R" unicode="R" horiz-adv-x="646" 
d="M282 712c-13 0 -39 0 -78 -1v-338h78c126 0 158 87 158 185c0 91 -36 154 -158 154zM49 0v2c32 62 40 97 40 179v370c0 83 -8 117 -40 179v2h255c181 0 253 -70 253 -175c0 -83 -45 -153 -145 -185l119 -233c43 -84 64 -106 116 -132v-7h-176l-180 353h-87v-172
c0 -83 7 -117 40 -179v-2h-195z" />
    <glyph glyph-name="S" unicode="S" horiz-adv-x="553" 
d="M454 718l20 -181l-9 -3c-68 148 -138 193 -207 193c-68 0 -109 -44 -109 -112c0 -95 84 -134 173 -178c98 -48 201 -101 201 -239c0 -150 -120 -213 -262 -213c-67 0 -140 14 -206 39l-20 185l8 3c78 -144 155 -207 246 -207s135 64 135 137c0 95 -73 143 -155 183
c-104 51 -209 101 -209 231c0 138 111 191 231 191c59 0 116 -12 163 -29z" />
    <glyph glyph-name="T" unicode="T" horiz-adv-x="715" 
d="M455 2v-2h-195v2c32 62 40 97 40 179v534l-109 -4c-44 -2 -117 -116 -169 -188l-8 3l38 206h611l38 -206l-8 -3c-52 72 -125 186 -169 188l-109 4v-534c0 -83 7 -117 40 -179z" />
    <glyph glyph-name="U" unicode="U" horiz-adv-x="696" 
d="M358 -15c-148 0 -273 73 -273 253v313c0 83 -7 117 -40 179v2h195v-2c-27 -51 -40 -96 -40 -179v-310c0 -171 75 -231 186 -231c149 0 202 114 202 240v283c0 90 -13 127 -72 197v2h162l5 -2c-58 -70 -72 -107 -72 -197v-282c0 -143 -62 -266 -253 -266z" />
    <glyph glyph-name="V" unicode="V" horiz-adv-x="640" 
d="M329 -8h-20l-221 577c-33 86 -55 125 -90 161v2h208v-2c-18 -29 -25 -95 2 -166l158 -419l141 370c44 115 23 182 2 215v2h133v-2c-46 -50 -68 -94 -95 -170z" />
    <glyph glyph-name="W" unicode="W" horiz-adv-x="995" 
d="M296 -8h-20l-188 577c-28 87 -50 125 -85 161v2h209v-2c-18 -30 -26 -92 -2 -166l129 -405l155 389l-8 21c-31 87 -50 125 -85 161v2h209v-2c-17 -28 -28 -92 -2 -166l140 -397l114 348c38 116 19 182 -2 215v2h132v-2c-47 -50 -70 -97 -98 -182l-181 -556h-20l-189 527z
" />
    <glyph glyph-name="X" unicode="X" horiz-adv-x="694" 
d="M178 2v-2h-170v2c60 41 98 85 147 155l142 204l-140 233c-38 63 -71 107 -119 136v2h233v-2c-19 -21 -14 -78 17 -130l93 -154l74 106c57 81 57 127 31 178v2h170v-2c-64 -41 -109 -87 -157 -155l-106 -149l174 -287c39 -65 71 -108 119 -137v-2h-233v2
c19 21 14 78 -17 130l-126 209l-111 -161c-59 -85 -39 -127 -21 -178z" />
    <glyph glyph-name="Y" unicode="Y" horiz-adv-x="601" 
d="M202 0v2c32 52 40 81 40 149v182l-145 259c-38 67 -70 109 -110 138v2h227v-2c-27 -21 -22 -77 5 -126l131 -241l99 173c56 98 36 163 16 194v2h149v-2c-54 -51 -79 -88 -128 -172l-129 -224v-183c0 -69 7 -97 40 -149v-2h-195z" />
    <glyph glyph-name="Z" unicode="Z" horiz-adv-x="623" 
d="M559 0h-539v11l439 705l-130 -4c-148 -5 -224 -95 -278 -175l-8 3l47 192h504v-11l-438 -706l160 5c149 5 227 99 284 191l8 -3z" />
    <glyph glyph-name="bracketleft" unicode="[" horiz-adv-x="369" 
d="M90 -130v885h244v-20h-154v-845h154v-20h-244z" />
    <glyph glyph-name="backslash" unicode="\" horiz-adv-x="392" 
d="M417 -130h-28l-380 911h28z" />
    <glyph glyph-name="bracketright" unicode="]" horiz-adv-x="369" 
d="M279 755v-885h-244v20h154v845h-154v20h244z" />
    <glyph glyph-name="asciicircum" unicode="^" horiz-adv-x="412" 
d="M373 472l-167 180l-167 -180l-9 10l173 273h6l173 -273z" />
    <glyph glyph-name="underscore" unicode="_" horiz-adv-x="496" 
d="M463 -100h-430v20h430v-20z" />
    <glyph glyph-name="grave" unicode="`" 
d="M223 540l-8 -8l-201 146l76 71z" />
    <glyph glyph-name="a" unicode="a" horiz-adv-x="472" 
d="M195 39c34 0 65 13 82 29v152c-79 -18 -155 -51 -155 -117c0 -39 26 -64 73 -64zM362 -12c-50 0 -76 29 -83 63c-31 -35 -81 -66 -144 -66c-59 0 -107 28 -107 85c0 101 144 150 249 167v109c0 52 -21 86 -92 86c-38 0 -90 -10 -133 -45l-5 6c41 58 112 99 199 99
c101 0 131 -57 131 -119v-285c0 -25 10 -44 39 -44c15 0 31 5 49 19l2 -2c-15 -32 -45 -73 -105 -73z" />
    <glyph glyph-name="b" unicode="b" horiz-adv-x="552" 
d="M275 -15c-72 0 -126 23 -161 50l-50 -45h-4v604c0 65 -21 103 -45 130v2l145 52v-370h2c34 41 91 84 168 84c120 0 192 -104 192 -248c0 -143 -82 -259 -247 -259zM285 3c78 0 132 85 132 222c0 143 -60 202 -147 202c-52 0 -88 -21 -110 -41v-201
c0 -138 71 -182 125 -182z" />
    <glyph glyph-name="c" unicode="c" horiz-adv-x="465" 
d="M430 116l6 -4c-26 -76 -88 -127 -187 -127c-136 0 -224 97 -224 245c0 152 122 262 253 262c69 0 109 -15 132 -26l13 -111l-9 -2c-27 48 -96 121 -151 121c-85 0 -140 -79 -140 -202c0 -131 69 -202 174 -202c48 0 101 13 133 46z" />
    <glyph glyph-name="d" unicode="d" horiz-adv-x="567" 
d="M274 52c52 0 91 22 118 54v257c-18 85 -68 111 -114 111c-88 0 -143 -93 -143 -223c0 -120 46 -199 139 -199zM396 86h-3c-30 -52 -88 -101 -171 -101c-117 0 -192 98 -192 232c0 145 90 275 261 275c39 0 73 -7 101 -18v119c0 66 -21 104 -45 130v2l145 53v-565
c0 -137 12 -161 46 -191v-2l-142 -32v98z" />
    <glyph glyph-name="e" unicode="e" horiz-adv-x="473" 
d="M448 133c-26 -82 -94 -148 -198 -148c-134 0 -225 106 -225 245c0 161 121 262 231 262c117 0 197 -107 191 -195h-321v-19c0 -141 70 -208 175 -208c61 0 107 24 141 67zM252 474c-76 0 -116 -70 -124 -161l217 5v11c0 99 -31 145 -93 145z" />
    <glyph glyph-name="f" unicode="f" horiz-adv-x="313" 
d="M65 0v2c17 26 24 61 24 137v320h-63v18h63v66c0 148 94 235 201 235c30 0 63 -7 77 -14l11 -105l-6 -2c-20 34 -62 103 -108 103c-40 0 -75 -60 -75 -173v-110h118v-18h-118v-320c0 -75 8 -111 23 -137v-2h-147z" />
    <glyph glyph-name="g" unicode="g" horiz-adv-x="520" 
d="M236 169c65 0 90 65 90 152c0 88 -24 153 -91 153s-89 -65 -89 -153c0 -87 25 -152 90 -152zM492 -66c-3 -85 -93 -159 -265 -159c-126 0 -219 42 -219 114c0 51 47 81 95 93c-34 13 -57 37 -57 78c0 62 52 95 105 109c-62 28 -105 85 -105 152c0 97 84 171 189 171
c52 0 100 -19 134 -50l127 74l2 -1v-89h-4l-111 2c27 -29 43 -66 43 -107c0 -93 -85 -170 -190 -170c-26 0 -50 5 -72 13c-33 -16 -44 -36 -44 -55c0 -37 39 -47 100 -49l100 -3c92 -3 175 -40 172 -123zM268 -190c111 0 167 36 167 85s-55 64 -122 66l-108 4
c-31 1 -61 4 -87 12c-13 -12 -25 -32 -25 -61c0 -67 62 -106 175 -106z" />
    <glyph glyph-name="h" unicode="h" horiz-adv-x="542" 
d="M193 0h-145v2c18 55 22 104 22 192v400c0 65 -21 103 -45 130v2l145 52v-378c43 52 91 92 161 92c91 0 142 -56 142 -145v-153c0 -89 2 -137 22 -192v-2h-145v2c19 55 23 109 23 192v130c0 57 -26 107 -92 107c-43 0 -81 -19 -111 -51v-186c0 -86 3 -137 23 -192v-2z" />
    <glyph glyph-name="i" unicode="i" horiz-adv-x="242" 
d="M179 658c0 -33 -27 -60 -60 -60s-60 27 -60 60s27 61 60 61s60 -28 60 -61zM51 0v2c14 55 23 105 23 192v114c0 64 -21 102 -45 129v7l145 53v-302c0 -86 2 -138 22 -193v-2h-145z" />
    <glyph glyph-name="j" unicode="j" horiz-adv-x="245" 
d="M179 658c0 -33 -27 -60 -60 -60s-60 27 -60 60s27 61 60 61s60 -28 60 -61zM11 -215l-2 6c44 27 65 70 65 141v376c0 64 -21 102 -45 129v7l145 53l-2 -495c0 -137 -74 -206 -161 -217z" />
    <glyph glyph-name="k" unicode="k" horiz-adv-x="479" 
d="M48 0v2c13 28 22 62 22 137v455c0 65 -21 103 -45 129v2l145 53v-638c0 -75 10 -111 24 -138v-2h-146zM489 0h-139l-172 248l115 125c32 34 44 77 28 102v2h130v-2c-60 -27 -103 -70 -144 -114l-52 -57l147 -212c30 -43 52 -71 87 -90v-2z" />
    <glyph glyph-name="l" unicode="l" horiz-adv-x="238" 
d="M47 0v2c13 28 22 62 22 137v455c0 65 -21 103 -45 129v2l145 53v-638c0 -75 9 -111 23 -138v-2h-145z" />
    <glyph glyph-name="m" unicode="m" horiz-adv-x="791" 
d="M196 2v-2h-145v2c19 55 23 104 23 192v118c0 66 -21 103 -45 130v2l141 53v-96l4 -1c40 60 90 92 153 92c73 0 110 -37 118 -91l3 -1c41 60 91 92 154 92c83 0 121 -51 121 -133v-164c0 -90 2 -138 22 -193v-2h-144v2c18 55 22 108 22 192v142c0 51 -16 95 -74 95
c-33 0 -74 -14 -101 -54v-182c0 -90 2 -138 23 -193v-2h-145v2c19 55 22 108 22 192v142c0 51 -15 95 -74 95c-33 0 -74 -14 -100 -54v-182c0 -87 2 -138 22 -193z" />
    <glyph glyph-name="n" unicode="n" horiz-adv-x="545" 
d="M196 2v-2h-145v2c19 55 23 104 23 192v118c0 66 -21 103 -45 130v2l141 53v-96l4 -1c43 52 91 92 161 92c91 0 141 -56 141 -145v-152c0 -90 2 -138 23 -193v-2h-145v2c18 55 22 108 22 192v130c0 57 -25 107 -92 107c-42 0 -81 -19 -110 -50v-186c0 -87 2 -138 22 -193z
" />
    <glyph glyph-name="o" unicode="o" horiz-adv-x="563" 
d="M281 -15c-141 0 -257 118 -256 253c1 134 117 254 256 254c140 0 257 -120 257 -254c0 -135 -116 -253 -257 -253zM281 5c103 0 147 112 147 233c0 120 -45 234 -147 234s-146 -114 -146 -234c0 -121 43 -233 146 -233z" />
    <glyph glyph-name="p" unicode="p" horiz-adv-x="566" 
d="M299 3c78 0 132 85 132 222c0 143 -59 202 -146 202c-52 0 -89 -21 -111 -41v-201c0 -139 70 -182 125 -182zM196 -225h-145v2c19 55 23 104 23 192v343c0 66 -21 103 -45 130v2l141 53v-88l6 -1c34 41 88 84 170 84c115 0 190 -104 190 -248c0 -143 -82 -259 -247 -259
c-46 0 -84 9 -115 23v-38c0 -87 2 -138 22 -193v-2z" />
    <glyph glyph-name="q" unicode="q" horiz-adv-x="560" 
d="M369 -225v2c19 55 23 104 23 192v115c-30 -51 -88 -99 -170 -99c-117 0 -192 98 -192 232c0 145 90 275 261 275c70 0 126 -22 153 -51l44 46h4v-517c0 -87 2 -138 22 -193v-2h-145zM274 52c52 0 91 22 118 54v252c-17 89 -67 116 -114 116c-87 0 -143 -93 -143 -223
c0 -120 46 -199 139 -199z" />
    <glyph glyph-name="r" unicode="r" horiz-adv-x="356" 
d="M196 0h-145v2c19 55 23 104 23 192v118c0 66 -21 103 -45 130v2l141 53v-122h4c40 47 94 118 159 117l-2 -122h-4c-19 15 -67 30 -89 30c-16 0 -42 -15 -64 -45v-160c0 -87 2 -138 22 -193v-2z" />
    <glyph glyph-name="s" unicode="s" horiz-adv-x="399" 
d="M336 472l10 -109l-6 -2c-51 87 -108 113 -155 113c-52 0 -82 -33 -82 -74c0 -58 63 -80 129 -108c70 -30 142 -67 142 -163c0 -99 -83 -144 -187 -144c-52 0 -105 11 -147 26l-10 128l6 2c50 -97 101 -138 164 -138c67 0 92 45 92 86c0 52 -39 76 -106 105
s-148 62 -148 162c0 102 86 136 174 136c48 0 97 -10 124 -20z" />
    <glyph glyph-name="t" unicode="t" horiz-adv-x="326" 
d="M184 -15c-59 0 -112 27 -112 121v353h-54v6l145 125h10v-113h129v-18h-129v-350c0 -48 22 -74 70 -74c35 0 61 14 66 17l3 -4c-28 -39 -72 -63 -128 -63z" />
    <glyph glyph-name="u" unicode="u" horiz-adv-x="524" 
d="M349 -12v124c-34 -65 -80 -127 -161 -127c-85 0 -129 66 -129 170v213c0 51 -17 85 -42 107v2h142v-306c0 -70 32 -106 88 -106c48 0 78 27 97 63v240c0 50 -16 85 -44 107v2h144v-307c0 -106 13 -125 45 -148v-2z" />
    <glyph glyph-name="v" unicode="v" horiz-adv-x="447" 
d="M212 -10l-144 369c-26 66 -41 92 -63 116v2h171v-2c-10 -19 -19 -59 0 -109l88 -232l78 204c25 65 6 115 -7 137v2h107v-2c-34 -37 -51 -64 -74 -123l-140 -362h-16z" />
    <glyph glyph-name="w" unicode="w" horiz-adv-x="668" 
d="M191 -10l-126 369c-22 65 -37 92 -60 116v2h171v-2c-10 -19 -18 -60 -2 -109l71 -217l74 204l-2 6c-23 67 -40 92 -63 116v2h170v-2c-10 -19 -18 -56 0 -109l72 -217l69 189c25 67 7 115 -6 137v2h104v-2c-34 -37 -52 -65 -73 -123l-130 -362h-16l-116 337l-121 -337h-16
z" />
    <glyph glyph-name="x" unicode="x" horiz-adv-x="472" 
d="M118 2v-2h-114v2c45 36 72 67 114 123l72 97l-86 137c-40 63 -62 92 -91 116v2h179v-2c-22 -19 -12 -49 15 -92l67 -106l43 61c47 66 38 115 26 137v2h114v-2c-45 -37 -69 -66 -110 -123l-64 -90l91 -145c40 -64 64 -89 94 -115v-2h-178v2c21 29 8 49 -20 93l-71 112
l-51 -68c-51 -67 -41 -109 -30 -137z" />
    <glyph glyph-name="y" unicode="y" horiz-adv-x="449" 
d="M41 -225l-2 96c35 -1 130 4 168 105l1 4l-142 378c-24 65 -39 92 -61 117v2h168v-2c-11 -19 -20 -64 4 -128l84 -225l85 227c20 54 2 104 -15 126v2h113v-2c-34 -37 -52 -65 -74 -123l-155 -401c-53 -137 -106 -168 -174 -176z" />
    <glyph glyph-name="z" unicode="z" horiz-adv-x="447" 
d="M392 0h-377v7l282 453l-120 -4c-50 -1 -102 -60 -142 -102l-5 2l33 121h353v-8l-280 -452l131 3c60 2 110 56 155 112l5 -2z" />
    <glyph glyph-name="braceleft" unicode="{" horiz-adv-x="343" 
d="M308 -130h-15c-134 0 -202 45 -202 128c0 72 64 145 64 217c0 63 -44 87 -113 87h-22v21h22c69 0 113 24 113 87c0 72 -64 145 -64 217c0 83 68 128 202 128h15v-20h-15c-70 0 -106 -11 -106 -99c0 -56 31 -129 31 -196c0 -94 -58 -114 -146 -126v-3
c88 -12 146 -30 146 -126c0 -68 -31 -140 -31 -196c0 -88 35 -99 106 -99h15v-20z" />
    <glyph glyph-name="bar" unicode="|" horiz-adv-x="205" 
d="M115 -130h-25v911h25v-911z" />
    <glyph glyph-name="braceright" unicode="}" horiz-adv-x="343" 
d="M50 -130h-15v20h15c71 0 106 11 106 99c0 56 -31 128 -31 196c0 96 58 114 146 126v3c-88 12 -146 32 -146 126c0 67 31 140 31 196c0 88 -36 99 -106 99h-15v20h15c134 0 202 -45 202 -128c0 -72 -64 -145 -64 -217c0 -63 44 -87 113 -87h22v-21h-22
c-69 0 -113 -24 -113 -87c0 -72 64 -145 64 -217c0 -83 -68 -128 -202 -128z" />
    <glyph glyph-name="asciitilde" unicode="~" horiz-adv-x="452" 
d="M134 330c41 0 137 -43 205 -43c40 0 58 18 68 52l10 -1c-3 -41 -21 -116 -96 -116c-51 0 -153 43 -206 43c-39 0 -58 -20 -67 -54l-11 1c3 41 24 118 97 118z" />
    <glyph glyph-name="uni00A0" unicode="&#xa0;" horiz-adv-x="170" 
 />
    <glyph glyph-name="exclamdown" unicode="&#xa1;" horiz-adv-x="234" 
d="M171 -243v-2h-107v2l45 506h16zM117 492c37 0 67 -31 67 -67c0 -39 -30 -69 -67 -69c-38 0 -67 30 -67 69c0 36 29 67 67 67z" />
    <glyph glyph-name="cent" unicode="&#xa2;" horiz-adv-x="465" 
d="M265 -114h-25v99c-131 4 -215 100 -215 245c0 137 99 240 215 259v68h25v-66c4 0 8 1 13 1c69 0 109 -15 132 -26l13 -111l-9 -2c-27 47 -95 119 -149 121v-402c10 -1 21 -2 32 -2c48 0 101 13 133 46l6 -4c-25 -72 -82 -121 -171 -126v-100zM123 272
c0 -106 44 -172 117 -194v393c-72 -13 -117 -88 -117 -199z" />
    <glyph glyph-name="sterling" unicode="&#xa3;" horiz-adv-x="569" 
d="M569 179l-69 -179h-500v8c96 64 133 94 153 359h-78l6 20h74c0 5 1 10 1 15l5 70c13 193 138 275 232 275c46 0 94 -19 111 -34l18 -176l-9 -3c-44 94 -90 193 -137 193c-31 0 -68 -42 -93 -237l-4 -32c-3 -25 -7 -49 -11 -71h140l-6 -20h-139
c-32 -146 -91 -229 -140 -272h278c81 0 120 28 160 87z" />
    <glyph glyph-name="yen" unicode="&#xa5;" horiz-adv-x="551" 
d="M172 0v2c32 52 40 81 40 149v40h-168v20h168v110h-168v20h167l-124 251c-34 68 -64 109 -100 138v2h207v-2c-27 -21 -20 -76 5 -126l118 -240l86 172c51 102 30 163 10 194v2h151v-2c-54 -51 -84 -85 -128 -172l-109 -217h168v-20h-168v-110h168v-20h-168v-40
c0 -69 7 -97 40 -149v-2h-195z" />
    <glyph glyph-name="brokenbar" unicode="&#xa6;" horiz-adv-x="205" 
d="M115 365h-25v416h25v-416zM115 -130h-25v415h25v-415z" />
    <glyph glyph-name="section" unicode="&#xa7;" horiz-adv-x="491" 
d="M246 -164c-53 0 -118 15 -149 26l-10 128l6 2c50 -97 99 -138 155 -138c55 0 92 40 92 93c0 75 -70 112 -145 153c-78 43 -155 89 -155 186c0 74 45 136 132 155c-51 35 -90 80 -90 149c0 86 62 157 184 157c44 0 93 -10 120 -20l10 -109l-6 -2c-51 87 -98 113 -145 113
c-62 0 -96 -47 -96 -102c0 -79 71 -116 147 -157c77 -43 155 -89 155 -186c0 -73 -44 -135 -130 -154c50 -34 87 -76 87 -145c0 -84 -55 -149 -162 -149zM247 173l54 -30c54 6 85 50 85 101c0 75 -69 114 -142 153l-52 30c-55 -5 -87 -49 -87 -101c0 -75 69 -114 142 -153z
" />
    <glyph glyph-name="dieresis" unicode="&#xa8;" 
d="M310 658c0 -33 -27 -60 -60 -60s-60 27 -60 60s27 61 60 61s60 -28 60 -61zM110 658c0 -33 -27 -60 -60 -60s-60 27 -60 60s27 61 60 61s60 -28 60 -61z" />
    <glyph glyph-name="copyright" unicode="&#xa9;" horiz-adv-x="823" 
d="M30 366c0 212 171 380 381 380c211 0 382 -168 382 -380c0 -214 -172 -381 -382 -381s-381 167 -381 381zM57 366c0 -199 158 -359 354 -359s354 160 354 359s-158 358 -354 358s-354 -159 -354 -358zM569 196c-10 -7 -76 -39 -151 -39c-134 0 -220 91 -220 209
c0 117 95 210 231 210c58 0 108 -16 138 -27l11 -101l-6 -2c-53 80 -88 113 -151 113c-101 0 -142 -82 -142 -193s42 -193 139 -193c77 0 117 56 156 137l6 -3z" />
    <glyph glyph-name="ordfeminine" unicode="&#xaa;" horiz-adv-x="388" 
d="M166 399c24 0 45 9 57 19v119c-60 -14 -112 -40 -112 -88c0 -30 20 -50 55 -50zM293 354c-41 0 -63 24 -67 52c-24 -29 -63 -55 -112 -55c-46 0 -84 23 -84 68c0 80 110 118 193 133v76c0 42 -16 67 -71 67c-30 0 -70 -8 -104 -32l-4 5c34 45 90 79 161 79
c79 0 106 -45 106 -95v-213c0 -23 10 -38 32 -38c15 0 27 7 33 14l1 -1c-10 -26 -36 -60 -84 -60z" />
    <glyph glyph-name="guillemotleft" unicode="&#xab;" horiz-adv-x="431" 
d="M371 58l-8 -6l-153 175v20l153 175l8 -6l-91 -179zM221 58l-8 -6l-153 175v20l153 175l8 -6l-91 -179z" />
    <glyph glyph-name="registered" unicode="&#xae;" horiz-adv-x="440" 
d="M10 541c0 116 96 206 212 206s208 -90 208 -206c0 -115 -96 -205 -211 -205c-117 0 -209 89 -209 205zM35 541c0 -104 81 -184 185 -184s185 79 185 184s-81 185 -185 185c-105 0 -185 -80 -185 -185zM225 640c-6 0 -17 0 -33 -1v-91h33c30 0 38 25 38 49
c0 26 -9 43 -38 43zM135 432v1c9 19 12 29 12 55v110c0 24 -3 35 -12 53v2h98c53 0 75 -21 75 -54c0 -27 -14 -49 -45 -59l37 -67c13 -25 19 -32 36 -40v-1h-66l-53 103h-25v-47c0 -26 2 -36 12 -55v-1h-69z" />
    <glyph glyph-name="macron" unicode="&#xaf;" 
d="M8 595v50h283v-50h-283z" />
    <glyph glyph-name="degree" unicode="&#xb0;" horiz-adv-x="298" 
d="M16 615c0 73 61 132 135 132c75 0 130 -59 130 -132c0 -74 -61 -133 -134 -133c-76 0 -131 59 -131 133zM42 615c0 -63 44 -111 107 -111c62 0 106 48 106 111c0 62 -44 110 -106 110c-63 0 -107 -48 -107 -110z" />
    <glyph glyph-name="acute" unicode="&#xb4;" 
d="M71 550l133 199l73 -71l-198 -136z" />
    <glyph glyph-name="paragraph" unicode="&#xb6;" horiz-adv-x="478" 
d="M418 0h-61v1c12 46 15 70 15 132v466c0 60 -2 86 -15 132v1h61v-1c-12 -46 -15 -70 -15 -132v-466c0 -60 2 -86 15 -132v-1zM308 0h-61v1c12 46 15 70 15 132v233h-58c-102 0 -184 83 -184 184c0 100 82 182 184 182h104v-1c-12 -46 -15 -70 -15 -132v-466
c0 -60 2 -86 15 -132v-1z" />
    <glyph glyph-name="periodcentered" unicode="&#xb7;" horiz-adv-x="264" 
d="M132 205c-37 0 -67 31 -67 67c0 38 30 68 67 68c36 0 67 -30 67 -68c0 -36 -31 -67 -67 -67z" />
    <glyph glyph-name="cedilla" unicode="&#xb8;" 
d="M77 -255l-3 9c37 15 82 42 82 83c0 43 -53 47 -75 49l-2 2l70 114h28l-40 -62c52 -11 88 -38 88 -83c0 -57 -58 -93 -148 -112z" />
    <glyph glyph-name="ordmasculine" unicode="&#xba;" horiz-adv-x="464" 
d="M232 351c-110 0 -202 92 -202 198c1 105 92 198 202 198c111 0 202 -93 202 -198c0 -106 -91 -198 -202 -198zM232 365c77 0 111 86 111 184c0 96 -34 184 -111 184s-110 -88 -110 -184c0 -98 33 -184 110 -184z" />
    <glyph glyph-name="guillemotright" unicode="&#xbb;" horiz-adv-x="431" 
d="M218 52l-8 6l91 179l-91 179l8 6l153 -175v-20zM68 52l-8 6l91 179l-91 179l8 6l153 -175v-20z" />
    <glyph glyph-name="onequarter" unicode="&#xbc;" horiz-adv-x="638" 
d="M183 354h-140v1c22 28 27 44 27 81v221h-47v6c47 21 91 47 128 84h6v-311c0 -38 5 -53 26 -81v-1zM65 1l-17 14l520 728l18 -12zM454 0v1c17 28 21 44 21 81v18h-162v6l171 279h102l-250 -268h139v107h89v-107h50l-4 -17h-46v-18c0 -38 4 -53 21 -81v-1h-131z" />
    <glyph glyph-name="onehalf" unicode="&#xbd;" horiz-adv-x="685" 
d="M55 1l-17 14l520 728l18 -12zM627 0h-249v6c135 127 178 202 178 281c0 57 -20 91 -55 91c-37 0 -71 -42 -100 -100l-5 1l13 97c19 7 49 17 95 17c96 0 139 -45 139 -104c0 -73 -66 -136 -188 -221h97c49 0 76 23 98 51l4 -1zM183 354h-140v1c22 28 27 44 27 81v221h-47
v6c47 21 91 47 128 84h6v-311c0 -38 5 -53 26 -81v-1z" />
    <glyph glyph-name="threequarters" unicode="&#xbe;" horiz-adv-x="689" 
d="M142 346c-42 0 -83 10 -106 23l-13 95l6 1c41 -61 64 -104 109 -104c47 0 72 45 72 110c0 69 -28 103 -76 103c-27 0 -49 -10 -66 -22l-6 7l131 111h-153l20 68h233v-5l-173 -145c10 3 23 4 37 4c68 0 141 -37 141 -121c0 -77 -63 -125 -156 -125zM116 1l-17 14l520 728
l18 -12zM505 0v1c17 28 21 44 21 81v18h-162v6l171 279h102l-250 -268h139v107h89v-107h50l-4 -17h-46v-18c0 -38 4 -53 21 -81v-1h-131z" />
    <glyph glyph-name="questiondown" unicode="&#xbf;" horiz-adv-x="427" 
d="M295 263h16c-26 -155 -164 -166 -164 -366c0 -85 35 -139 101 -139s104 59 147 140l7 -2l-20 -131c-29 -11 -82 -25 -139 -25c-136 0 -208 55 -208 162c0 184 208 206 260 361zM297 492c38 0 67 -31 67 -67c0 -39 -29 -69 -67 -69c-37 0 -67 30 -67 69c0 36 30 67 67 67z
" />
    <glyph glyph-name="Agrave" unicode="&#xc0;" horiz-adv-x="636" 
d="M379 296l-109 289l-110 -289h219zM133 2v-2h-135v2c48 50 66 95 95 172l215 566h20l219 -577c33 -87 56 -125 91 -161v-2h-199v2c17 29 17 92 -11 166l-41 108h-235l-21 -56c-45 -117 -19 -185 2 -218zM401 792l-6 -10l-245 91l51 86z" />
    <glyph glyph-name="Aacute" unicode="&#xc1;" horiz-adv-x="636" 
d="M379 296l-109 289l-110 -289h219zM133 2v-2h-135v2c48 50 66 95 95 172l215 566h20l219 -577c33 -87 56 -125 91 -161v-2h-199v2c17 29 17 92 -11 166l-41 108h-235l-21 -56c-45 -117 -19 -185 2 -218zM220 792l195 167l52 -86l-241 -91z" />
    <glyph glyph-name="Acircumflex" unicode="&#xc2;" horiz-adv-x="636" 
d="M379 296l-109 289l-110 -289h219zM133 2v-2h-135v2c48 50 66 95 95 172l215 566h20l219 -577c33 -87 56 -125 91 -161v-2h-199v2c17 29 17 92 -11 166l-41 108h-235l-21 -56c-45 -117 -19 -185 2 -218zM465 782l-147 76l-147 -76l-9 10l153 153h6l153 -153z" />
    <glyph glyph-name="Atilde" unicode="&#xc3;" horiz-adv-x="636" 
d="M379 296l-109 289l-110 -289h219zM133 2v-2h-135v2c48 50 66 95 95 172l215 566h20l219 -577c33 -87 56 -125 91 -161v-2h-199v2c17 29 17 92 -11 166l-41 108h-235l-21 -56c-45 -117 -19 -185 2 -218zM240 905c61 0 109 -40 172 -40c34 0 52 12 66 54l10 -2
c-3 -55 -11 -126 -92 -126c-61 0 -109 40 -172 40c-34 0 -52 -12 -66 -54l-10 2c3 55 11 126 92 126z" />
    <glyph glyph-name="Adieresis" unicode="&#xc4;" horiz-adv-x="636" 
d="M379 296l-109 289l-110 -289h219zM133 2v-2h-135v2c48 50 66 95 95 172l215 566h20l219 -577c33 -87 56 -125 91 -161v-2h-199v2c17 29 17 92 -11 166l-41 108h-235l-21 -56c-45 -117 -19 -185 2 -218zM498 868c0 -33 -27 -60 -60 -60s-60 27 -60 60s27 61 60 61
s60 -28 60 -61zM258 868c0 -33 -27 -60 -60 -60s-60 27 -60 60s27 61 60 61s60 -28 60 -61z" />
    <glyph glyph-name="Aring" unicode="&#xc5;" horiz-adv-x="636" 
d="M379 296l-109 289l-110 -289h219zM133 2v-2h-135v2c48 50 66 95 95 172l215 566h20l219 -577c33 -87 56 -125 91 -161v-2h-199v2c17 29 17 92 -11 166l-41 108h-235l-21 -56c-45 -117 -19 -185 2 -218zM228 867c0 50 39 86 90 86s90 -35 90 -86c0 -50 -40 -85 -90 -85
s-90 35 -90 85zM267 867c0 -41 19 -66 51 -66s51 25 51 66s-19 68 -51 68s-51 -27 -51 -68z" />
    <glyph glyph-name="AE" unicode="&#xc6;" horiz-adv-x="1010" 
d="M478 563c0 38 -4 72 -15 103l-212 -370h227v267zM167 2v-2h-140v2c58 50 85 96 129 173l295 516c-8 14 -19 27 -32 39v2h482l39 -178l-8 -3c-53 55 -125 157 -169 159l-169 7v-338h86c48 0 90 67 124 105h9v-226h-9c-33 35 -75 101 -124 101h-86v-344l178 7
c82 4 158 101 215 179l8 -3l-44 -198h-512v2c26 61 39 100 39 167v107h-239l-43 -76c-56 -97 -43 -165 -29 -198z" />
    <glyph glyph-name="Ccedilla" unicode="&#xc7;" horiz-adv-x="752" 
d="M317 -255l-3 9c37 15 82 42 82 83c0 43 -53 47 -75 49l-2 2l60 98c-213 14 -349 176 -349 380c0 213 166 381 399 381c106 0 199 -27 252 -48l20 -164l-8 -3c-98 138 -162 195 -277 195c-185 0 -259 -154 -259 -361c0 -208 77 -361 253 -361c142 0 217 98 287 238l8 -3
l-20 -183c-17 -13 -138 -72 -275 -72h-4l-29 -45c52 -11 88 -38 88 -83c0 -57 -58 -93 -148 -112z" />
    <glyph glyph-name="Egrave" unicode="&#xc8;" horiz-adv-x="620" 
d="M605 198l-44 -198h-512v2c26 61 39 100 39 167v394c0 68 -13 106 -39 167v2h462l39 -178l-8 -3c-53 55 -125 157 -169 159l-169 7v-338h86c48 0 90 67 124 105h9v-226h-9c-33 35 -75 101 -124 101h-86v-344l178 7c82 4 158 101 215 179zM422 792l-6 -10l-245 91l51 86z
" />
    <glyph glyph-name="Eacute" unicode="&#xc9;" horiz-adv-x="620" 
d="M605 198l-44 -198h-512v2c26 61 39 100 39 167v394c0 68 -13 106 -39 167v2h462l39 -178l-8 -3c-53 55 -125 157 -169 159l-169 7v-338h86c48 0 90 67 124 105h9v-226h-9c-33 35 -75 101 -124 101h-86v-344l178 7c82 4 158 101 215 179zM221 792l195 167l52 -86l-241 -91
z" />
    <glyph glyph-name="Ecircumflex" unicode="&#xca;" horiz-adv-x="620" 
d="M605 198l-44 -198h-512v2c26 61 39 100 39 167v394c0 68 -13 106 -39 167v2h462l39 -178l-8 -3c-53 55 -125 157 -169 159l-169 7v-338h86c48 0 90 67 124 105h9v-226h-9c-33 35 -75 101 -124 101h-86v-344l178 7c82 4 158 101 215 179zM456 782l-147 76l-147 -76l-9 10
l153 153h6l153 -153z" />
    <glyph glyph-name="Edieresis" unicode="&#xcb;" horiz-adv-x="620" 
d="M605 198l-44 -198h-512v2c26 61 39 100 39 167v394c0 68 -13 106 -39 167v2h462l39 -178l-8 -3c-53 55 -125 157 -169 159l-169 7v-338h86c48 0 90 67 124 105h9v-226h-9c-33 35 -75 101 -124 101h-86v-344l178 7c82 4 158 101 215 179zM489 868c0 -33 -27 -60 -60 -60
s-60 27 -60 60s27 61 60 61s60 -28 60 -61zM249 868c0 -33 -27 -60 -60 -60s-60 27 -60 60s27 61 60 61s60 -28 60 -61z" />
    <glyph glyph-name="Igrave" unicode="&#xcc;" horiz-adv-x="293" 
d="M49 0v2c33 62 40 96 40 179v370c0 83 -7 117 -40 179v2h195v-2c-33 -62 -40 -96 -40 -179v-370c0 -83 7 -117 40 -179v-2h-195zM209 792l-6 -10l-245 91l51 86z" />
    <glyph glyph-name="Iacute" unicode="&#xcd;" horiz-adv-x="293" 
d="M49 0v2c33 62 40 96 40 179v370c0 83 -7 117 -40 179v2h195v-2c-33 -62 -40 -96 -40 -179v-370c0 -83 7 -117 40 -179v-2h-195zM58 792l195 167l52 -86l-241 -91z" />
    <glyph glyph-name="Icircumflex" unicode="&#xce;" horiz-adv-x="293" 
d="M49 0v2c33 62 40 96 40 179v370c0 83 -7 117 -40 179v2h195v-2c-33 -62 -40 -96 -40 -179v-370c0 -83 7 -117 40 -179v-2h-195zM293 782l-147 76l-147 -76l-9 10l153 153h6l153 -153z" />
    <glyph glyph-name="Idieresis" unicode="&#xcf;" horiz-adv-x="293" 
d="M296 868c0 -33 -27 -60 -60 -60s-60 27 -60 60s27 61 60 61s60 -28 60 -61zM116 868c0 -33 -27 -60 -60 -60s-60 27 -60 60s27 61 60 61s60 -28 60 -61zM49 0v2c33 62 40 96 40 179v370c0 83 -7 117 -40 179v2h195v-2c-33 -62 -40 -96 -40 -179v-370
c0 -83 7 -117 40 -179v-2h-195z" />
    <glyph glyph-name="Eth" unicode="&#xd0;" horiz-adv-x="759" 
d="M5 357v20h90v201c0 70 -8 99 -40 152v2c125 0 142 4 274 4c249 0 400 -130 400 -367s-144 -369 -400 -369h-274v2c32 53 40 82 40 152v203h-90zM320 716h-110v-339h166v-20h-166v-340l111 3c205 5 281 118 281 335c0 247 -93 361 -282 361z" />
    <glyph glyph-name="Ntilde" unicode="&#xd1;" horiz-adv-x="694" 
d="M573 -3l-464 630l4 -428c0 -90 13 -127 69 -197v-2h-154v2c50 70 61 107 61 197v392c-4 65 -22 95 -78 139v2h160l419 -569l-3 370c-1 90 -13 127 -61 197v2h144v-2c-48 -70 -61 -107 -61 -197v-533zM297 905c61 0 109 -40 172 -40c34 0 52 12 66 54l10 -2
c-3 -55 -11 -126 -92 -126c-61 0 -109 40 -172 40c-34 0 -52 -12 -66 -54l-10 2c3 55 11 126 92 126z" />
    <glyph glyph-name="Ograve" unicode="&#xd2;" horiz-adv-x="814" 
d="M406 -15c-188 0 -376 168 -376 380s188 382 376 382s378 -170 378 -382s-190 -380 -378 -380zM406 5c173 0 251 153 251 360c0 206 -78 362 -251 362c-172 0 -249 -156 -249 -362s77 -360 249 -360zM490 792l-6 -10l-245 91l51 86z" />
    <glyph glyph-name="Oacute" unicode="&#xd3;" horiz-adv-x="814" 
d="M406 -15c-188 0 -376 168 -376 380s188 382 376 382s378 -170 378 -382s-190 -380 -378 -380zM406 5c173 0 251 153 251 360c0 206 -78 362 -251 362c-172 0 -249 -156 -249 -362s77 -360 249 -360zM319 792l195 167l52 -86l-241 -91z" />
    <glyph glyph-name="Ocircumflex" unicode="&#xd4;" horiz-adv-x="814" 
d="M406 -15c-188 0 -376 168 -376 380s188 382 376 382s378 -170 378 -382s-190 -380 -378 -380zM406 5c173 0 251 153 251 360c0 206 -78 362 -251 362c-172 0 -249 -156 -249 -362s77 -360 249 -360zM554 782l-147 76l-147 -76l-9 10l153 153h6l153 -153z" />
    <glyph glyph-name="Otilde" unicode="&#xd5;" horiz-adv-x="814" 
d="M406 -15c-188 0 -376 168 -376 380s188 382 376 382s378 -170 378 -382s-190 -380 -378 -380zM406 5c173 0 251 153 251 360c0 206 -78 362 -251 362c-172 0 -249 -156 -249 -362s77 -360 249 -360zM329 905c61 0 109 -40 172 -40c34 0 52 12 66 54l10 -2
c-3 -55 -11 -126 -92 -126c-61 0 -109 40 -172 40c-34 0 -52 -12 -66 -54l-10 2c3 55 11 126 92 126z" />
    <glyph glyph-name="Odieresis" unicode="&#xd6;" horiz-adv-x="814" 
d="M406 -15c-188 0 -376 168 -376 380s188 382 376 382s378 -170 378 -382s-190 -380 -378 -380zM406 5c173 0 251 153 251 360c0 206 -78 362 -251 362c-172 0 -249 -156 -249 -362s77 -360 249 -360zM587 868c0 -33 -27 -60 -60 -60s-60 27 -60 60s27 61 60 61
s60 -28 60 -61zM347 868c0 -33 -27 -60 -60 -60s-60 27 -60 60s27 61 60 61s60 -28 60 -61z" />
    <glyph glyph-name="multiply" unicode="&#xd7;" horiz-adv-x="472" 
d="M405 121l-169 169l-169 -169l-17 17l169 169l-169 169l17 17l169 -169l169 169l17 -17l-169 -169l169 -169z" />
    <glyph glyph-name="Oslash" unicode="&#xd8;" horiz-adv-x="814" 
d="M157 365c0 -105 20 -197 63 -262l358 545c-40 50 -97 79 -172 79c-172 0 -249 -156 -249 -362zM406 5c173 0 251 153 251 360c0 106 -21 198 -64 263l-358 -545c40 -49 97 -78 171 -78zM406 -15c-68 0 -137 22 -196 61l-49 -75h-28l58 88c-94 69 -161 180 -161 306
c0 212 188 382 376 382c68 0 137 -23 197 -61l50 76h28l-59 -90c94 -69 162 -181 162 -307c0 -212 -190 -380 -378 -380z" />
    <glyph glyph-name="Ugrave" unicode="&#xd9;" horiz-adv-x="696" 
d="M358 -15c-148 0 -273 73 -273 253v313c0 83 -7 117 -40 179v2h195v-2c-27 -51 -40 -96 -40 -179v-310c0 -171 75 -231 186 -231c149 0 202 114 202 240v283c0 90 -13 127 -72 197v2h162l5 -2c-58 -70 -72 -107 -72 -197v-282c0 -143 -62 -266 -253 -266zM479 792l-6 -10
l-245 91l51 86z" />
    <glyph glyph-name="Uacute" unicode="&#xda;" horiz-adv-x="696" 
d="M358 -15c-148 0 -273 73 -273 253v313c0 83 -7 117 -40 179v2h195v-2c-27 -51 -40 -96 -40 -179v-310c0 -171 75 -231 186 -231c149 0 202 114 202 240v283c0 90 -13 127 -72 197v2h162l5 -2c-58 -70 -72 -107 -72 -197v-282c0 -143 -62 -266 -253 -266zM298 792l195 167
l52 -86l-241 -91z" />
    <glyph glyph-name="Ucircumflex" unicode="&#xdb;" horiz-adv-x="696" 
d="M358 -15c-148 0 -273 73 -273 253v313c0 83 -7 117 -40 179v2h195v-2c-27 -51 -40 -96 -40 -179v-310c0 -171 75 -231 186 -231c149 0 202 114 202 240v283c0 90 -13 127 -72 197v2h162l5 -2c-58 -70 -72 -107 -72 -197v-282c0 -143 -62 -266 -253 -266zM533 782l-147 76
l-147 -76l-9 10l153 153h6l153 -153z" />
    <glyph glyph-name="Udieresis" unicode="&#xdc;" horiz-adv-x="696" 
d="M358 -15c-148 0 -273 73 -273 253v313c0 83 -7 117 -40 179v2h195v-2c-27 -51 -40 -96 -40 -179v-310c0 -171 75 -231 186 -231c149 0 202 114 202 240v283c0 90 -13 127 -72 197v2h162l5 -2c-58 -70 -72 -107 -72 -197v-282c0 -143 -62 -266 -253 -266zM566 868
c0 -33 -27 -60 -60 -60s-60 27 -60 60s27 61 60 61s60 -28 60 -61zM326 868c0 -33 -27 -60 -60 -60s-60 27 -60 60s27 61 60 61s60 -28 60 -61z" />
    <glyph glyph-name="Yacute" unicode="&#xdd;" horiz-adv-x="601" 
d="M202 0v2c32 52 40 81 40 149v182l-145 259c-38 67 -70 109 -110 138v2h227v-2c-27 -21 -22 -77 5 -126l131 -241l99 173c56 98 36 163 16 194v2h149v-2c-54 -51 -79 -88 -128 -172l-129 -224v-183c0 -69 7 -97 40 -149v-2h-195zM267 792l195 167l52 -86l-241 -91z" />
    <glyph glyph-name="Thorn" unicode="&#xde;" horiz-adv-x="568" 
d="M268 542c-14 0 -32 0 -64 -2v-340h62c126 0 176 77 176 183c0 123 -78 159 -174 159zM244 2v-2h-195v2c33 62 40 96 40 179v370c0 83 -7 117 -40 179v2h195v-2c-31 -59 -39 -93 -40 -168h81c210 0 273 -84 273 -177c0 -122 -100 -205 -288 -205h-66c0 -83 7 -116 40 -178
z" />
    <glyph glyph-name="germandbls" unicode="&#xdf;" horiz-adv-x="591" 
d="M406 -15c-47 0 -96 11 -133 26l-10 128l6 2c49 -97 85 -138 143 -138c55 0 80 38 80 81c0 127 -221 101 -221 245c0 114 146 119 146 284c0 73 -29 147 -105 147c-77 0 -123 -78 -123 -223v-537h-124v2c17 26 24 61 24 137v320h-63v18h63v16c0 172 93 285 232 285
c91 0 180 -48 180 -152c0 -137 -155 -156 -155 -242c0 -104 230 -83 230 -257c0 -103 -80 -142 -170 -142z" />
    <glyph glyph-name="agrave" unicode="&#xe0;" horiz-adv-x="472" 
d="M195 39c34 0 65 13 82 29v152c-79 -18 -155 -51 -155 -117c0 -39 26 -64 73 -64zM362 -12c-50 0 -76 29 -83 63c-31 -35 -81 -66 -144 -66c-59 0 -107 28 -107 85c0 101 144 150 249 167v109c0 52 -21 86 -92 86c-38 0 -90 -10 -133 -45l-5 6c41 58 112 99 199 99
c101 0 131 -57 131 -119v-285c0 -25 10 -44 39 -44c15 0 31 5 49 19l2 -2c-15 -32 -45 -73 -105 -73zM283 540l-8 -8l-201 146l76 71z" />
    <glyph glyph-name="aacute" unicode="&#xe1;" horiz-adv-x="472" 
d="M195 39c34 0 65 13 82 29v152c-79 -18 -155 -51 -155 -117c0 -39 26 -64 73 -64zM362 -12c-50 0 -76 29 -83 63c-31 -35 -81 -66 -144 -66c-59 0 -107 28 -107 85c0 101 144 150 249 167v109c0 52 -21 86 -92 86c-38 0 -90 -10 -133 -45l-5 6c41 58 112 99 199 99
c101 0 131 -57 131 -119v-285c0 -25 10 -44 39 -44c15 0 31 5 49 19l2 -2c-15 -32 -45 -73 -105 -73zM149 550l133 199l73 -71l-198 -136z" />
    <glyph glyph-name="acircumflex" unicode="&#xe2;" horiz-adv-x="472" 
d="M195 39c34 0 65 13 82 29v152c-79 -18 -155 -51 -155 -117c0 -39 26 -64 73 -64zM362 -12c-50 0 -76 29 -83 63c-31 -35 -81 -66 -144 -66c-59 0 -107 28 -107 85c0 101 144 150 249 167v109c0 52 -21 86 -92 86c-38 0 -90 -10 -133 -45l-5 6c41 58 112 99 199 99
c101 0 131 -57 131 -119v-285c0 -25 10 -44 39 -44c15 0 31 5 49 19l2 -2c-15 -32 -45 -73 -105 -73zM347 540l-131 87l-131 -87l-9 10l137 169h6l137 -169z" />
    <glyph glyph-name="atilde" unicode="&#xe3;" horiz-adv-x="472" 
d="M195 39c34 0 65 13 82 29v152c-79 -18 -155 -51 -155 -117c0 -39 26 -64 73 -64zM362 -12c-50 0 -76 29 -83 63c-31 -35 -81 -66 -144 -66c-59 0 -107 28 -107 85c0 101 144 150 249 167v109c0 52 -21 86 -92 86c-38 0 -90 -10 -133 -45l-5 6c41 58 112 99 199 99
c101 0 131 -57 131 -119v-285c0 -25 10 -44 39 -44c15 0 31 5 49 19l2 -2c-15 -32 -45 -73 -105 -73zM151 680c43 0 98 -31 146 -31c31 0 49 12 59 43l10 -1c-3 -39 -18 -116 -84 -116c-43 0 -99 32 -148 32c-30 0 -48 -12 -57 -43l-11 1c3 39 18 115 85 115z" />
    <glyph glyph-name="adieresis" unicode="&#xe4;" horiz-adv-x="472" 
d="M195 39c34 0 65 13 82 29v152c-79 -18 -155 -51 -155 -117c0 -39 26 -64 73 -64zM362 -12c-50 0 -76 29 -83 63c-31 -35 -81 -66 -144 -66c-59 0 -107 28 -107 85c0 101 144 150 249 167v109c0 52 -21 86 -92 86c-38 0 -90 -10 -133 -45l-5 6c41 58 112 99 199 99
c101 0 131 -57 131 -119v-285c0 -25 10 -44 39 -44c15 0 31 5 49 19l2 -2c-15 -32 -45 -73 -105 -73zM376 658c0 -33 -27 -60 -60 -60s-60 27 -60 60s27 61 60 61s60 -28 60 -61zM176 658c0 -33 -27 -60 -60 -60s-60 27 -60 60s27 61 60 61s60 -28 60 -61z" />
    <glyph glyph-name="aring" unicode="&#xe5;" horiz-adv-x="472" 
d="M195 39c34 0 65 13 82 29v152c-79 -18 -155 -51 -155 -117c0 -39 26 -64 73 -64zM362 -12c-50 0 -76 29 -83 63c-31 -35 -81 -66 -144 -66c-59 0 -107 28 -107 85c0 101 144 150 249 167v109c0 52 -21 86 -92 86c-38 0 -90 -10 -133 -45l-5 6c41 58 112 99 199 99
c101 0 131 -57 131 -119v-285c0 -25 10 -44 39 -44c15 0 31 5 49 19l2 -2c-15 -32 -45 -73 -105 -73zM126 653c0 50 39 86 90 86s90 -35 90 -86c0 -50 -40 -85 -90 -85s-90 35 -90 85zM165 653c0 -41 19 -66 51 -66s51 25 51 66s-19 68 -51 68s-51 -27 -51 -68z" />
    <glyph glyph-name="ae" unicode="&#xe6;" horiz-adv-x="714" 
d="M500 -15c-86 0 -152 38 -189 103c-34 -59 -90 -103 -171 -103c-64 0 -112 28 -112 85c0 101 144 150 249 167v109c0 52 -21 86 -92 86c-38 0 -90 -10 -133 -45l-5 6c41 58 112 99 199 99c64 0 98 -26 113 -61c40 39 90 61 142 61c116 0 188 -107 182 -195h-307
c-1 -10 -1 -20 -1 -30c0 -128 71 -197 177 -197c44 0 99 12 131 46l6 -4c-25 -76 -88 -127 -189 -127zM500 474c-64 0 -111 -65 -122 -161l203 5v11c0 99 -27 145 -81 145zM195 39c47 0 86 24 109 60c-17 34 -26 75 -27 121c-79 -18 -155 -51 -155 -117c0 -39 26 -64 73 -64
z" />
    <glyph glyph-name="ccedilla" unicode="&#xe7;" horiz-adv-x="465" 
d="M165 -255l-3 9c37 15 82 42 82 83c0 43 -53 47 -75 49l-2 2l60 98c-124 10 -202 104 -202 244c0 152 122 262 253 262c69 0 109 -15 132 -26l13 -111l-9 -2c-27 48 -96 121 -151 121c-85 0 -140 -79 -140 -202c0 -131 69 -202 174 -202c48 0 101 13 133 46l6 -4
c-26 -75 -86 -125 -182 -127l-29 -45c52 -11 88 -38 88 -83c0 -57 -58 -93 -148 -112z" />
    <glyph glyph-name="egrave" unicode="&#xe8;" horiz-adv-x="473" 
d="M448 133c-26 -82 -94 -148 -198 -148c-134 0 -225 106 -225 245c0 161 121 262 231 262c117 0 197 -107 191 -195h-321v-19c0 -141 70 -208 175 -208c61 0 107 24 141 67zM252 474c-76 0 -116 -70 -124 -161l217 5v11c0 99 -31 145 -93 145zM309 540l-8 -8l-201 146
l76 71z" />
    <glyph glyph-name="eacute" unicode="&#xe9;" horiz-adv-x="473" 
d="M448 133c-26 -82 -94 -148 -198 -148c-134 0 -225 106 -225 245c0 161 121 262 231 262c117 0 197 -107 191 -195h-321v-19c0 -141 70 -208 175 -208c61 0 107 24 141 67zM252 474c-76 0 -116 -70 -124 -161l217 5v11c0 99 -31 145 -93 145zM175 550l133 199l73 -71
l-198 -136z" />
    <glyph glyph-name="ecircumflex" unicode="&#xea;" horiz-adv-x="473" 
d="M448 133c-26 -82 -94 -148 -198 -148c-134 0 -225 106 -225 245c0 161 121 262 231 262c117 0 197 -107 191 -195h-321v-19c0 -141 70 -208 175 -208c61 0 107 24 141 67zM252 474c-76 0 -116 -70 -124 -161l217 5v11c0 99 -31 145 -93 145zM373 540l-131 87l-131 -87
l-9 10l137 169h6l137 -169z" />
    <glyph glyph-name="edieresis" unicode="&#xeb;" horiz-adv-x="473" 
d="M448 133c-26 -82 -94 -148 -198 -148c-134 0 -225 106 -225 245c0 161 121 262 231 262c117 0 197 -107 191 -195h-321v-19c0 -141 70 -208 175 -208c61 0 107 24 141 67zM252 474c-76 0 -116 -70 -124 -161l217 5v11c0 99 -31 145 -93 145zM402 658
c0 -33 -27 -60 -60 -60s-60 27 -60 60s27 61 60 61s60 -28 60 -61zM202 658c0 -33 -27 -60 -60 -60s-60 27 -60 60s27 61 60 61s60 -28 60 -61z" />
    <glyph glyph-name="igrave" unicode="&#xec;" horiz-adv-x="242" 
d="M51 0v2c14 55 23 105 23 192v114c0 64 -21 102 -45 129v7l145 53v-302c0 -86 2 -138 22 -193v-2h-145zM190 540l-8 -8l-201 146l76 71z" />
    <glyph glyph-name="iacute" unicode="&#xed;" horiz-adv-x="242" 
d="M51 0v2c14 55 23 105 23 192v114c0 64 -21 102 -45 129v7l145 53v-302c0 -86 2 -138 22 -193v-2h-145zM56 550l133 199l73 -71l-198 -136z" />
    <glyph glyph-name="icircumflex" unicode="&#xee;" horiz-adv-x="242" 
d="M51 0v2c14 55 23 105 23 192v114c0 64 -21 102 -45 129v7l145 53v-302c0 -86 2 -138 22 -193v-2h-145zM254 540l-131 87l-131 -87l-9 10l137 169h6l137 -169z" />
    <glyph glyph-name="idieresis" unicode="&#xef;" horiz-adv-x="242" 
d="M269 658c0 -33 -27 -60 -60 -60s-60 27 -60 60s27 61 60 61s60 -28 60 -61zM97 658c0 -33 -27 -60 -60 -60s-60 27 -60 60s27 61 60 61s60 -28 60 -61zM51 0v2c14 55 23 105 23 192v114c0 64 -21 102 -45 129v7l145 53v-302c0 -86 2 -138 22 -193v-2h-145z" />
    <glyph glyph-name="eth" unicode="&#xf0;" horiz-adv-x="571" 
d="M279 -15c-143 0 -254 105 -254 262c0 147 113 235 231 235c96 0 141 -53 161 -94c-18 88 -54 176 -114 250l-124 -84l-12 16l123 83c-40 46 -91 86 -153 115l4 10c75 -26 138 -60 189 -98l112 75l12 -16l-107 -72c140 -113 194 -263 194 -384c0 -168 -103 -298 -262 -298
zM277 3c111 0 154 120 154 250c0 25 -1 51 -5 78c-34 90 -94 129 -156 129c-79 0 -138 -63 -138 -229c0 -148 54 -228 145 -228z" />
    <glyph glyph-name="ntilde" unicode="&#xf1;" horiz-adv-x="545" 
d="M196 2v-2h-145v2c19 55 23 104 23 192v118c0 66 -21 103 -45 130v2l141 53v-96l4 -1c43 52 91 92 161 92c91 0 141 -56 141 -145v-152c0 -90 2 -138 23 -193v-2h-145v2c18 55 22 108 22 192v130c0 57 -25 107 -92 107c-42 0 -81 -19 -110 -50v-186c0 -87 2 -138 22 -193z
M208 680c43 0 98 -31 146 -31c31 0 49 12 59 43l10 -1c-3 -39 -18 -116 -84 -116c-43 0 -99 32 -148 32c-30 0 -48 -12 -57 -43l-11 1c3 39 18 115 85 115z" />
    <glyph glyph-name="ograve" unicode="&#xf2;" horiz-adv-x="563" 
d="M281 -15c-141 0 -257 118 -256 253c1 134 117 254 256 254c140 0 257 -120 257 -254c0 -135 -116 -253 -257 -253zM281 5c103 0 147 112 147 233c0 120 -45 234 -147 234s-146 -114 -146 -234c0 -121 43 -233 146 -233zM348 540l-8 -8l-201 146l76 71z" />
    <glyph glyph-name="oacute" unicode="&#xf3;" horiz-adv-x="563" 
d="M281 -15c-141 0 -257 118 -256 253c1 134 117 254 256 254c140 0 257 -120 257 -254c0 -135 -116 -253 -257 -253zM281 5c103 0 147 112 147 233c0 120 -45 234 -147 234s-146 -114 -146 -234c0 -121 43 -233 146 -233zM214 550l133 199l73 -71l-198 -136z" />
    <glyph glyph-name="ocircumflex" unicode="&#xf4;" horiz-adv-x="563" 
d="M281 -15c-141 0 -257 118 -256 253c1 134 117 254 256 254c140 0 257 -120 257 -254c0 -135 -116 -253 -257 -253zM281 5c103 0 147 112 147 233c0 120 -45 234 -147 234s-146 -114 -146 -234c0 -121 43 -233 146 -233zM412 540l-131 87l-131 -87l-9 10l137 169h6
l137 -169z" />
    <glyph glyph-name="otilde" unicode="&#xf5;" horiz-adv-x="563" 
d="M281 -15c-141 0 -257 118 -256 253c1 134 117 254 256 254c140 0 257 -120 257 -254c0 -135 -116 -253 -257 -253zM281 5c103 0 147 112 147 233c0 120 -45 234 -147 234s-146 -114 -146 -234c0 -121 43 -233 146 -233zM216 680c43 0 98 -31 146 -31c31 0 49 12 59 43
l10 -1c-3 -39 -18 -116 -84 -116c-43 0 -99 32 -148 32c-30 0 -48 -12 -57 -43l-11 1c3 39 18 115 85 115z" />
    <glyph glyph-name="odieresis" unicode="&#xf6;" horiz-adv-x="563" 
d="M281 -15c-141 0 -257 118 -256 253c1 134 117 254 256 254c140 0 257 -120 257 -254c0 -135 -116 -253 -257 -253zM281 5c103 0 147 112 147 233c0 120 -45 234 -147 234s-146 -114 -146 -234c0 -121 43 -233 146 -233zM441 658c0 -33 -27 -60 -60 -60s-60 27 -60 60
s27 61 60 61s60 -28 60 -61zM241 658c0 -33 -27 -60 -60 -60s-60 27 -60 60s27 61 60 61s60 -28 60 -61z" />
    <glyph glyph-name="divide" unicode="&#xf7;" horiz-adv-x="546" 
d="M494 297h-442v22h442v-22zM273 75c-37 0 -67 31 -67 67c0 38 30 68 67 68c36 0 67 -30 67 -68c0 -36 -31 -67 -67 -67zM273 399c-37 0 -67 31 -67 67c0 38 30 68 67 68c36 0 67 -30 67 -68c0 -36 -31 -67 -67 -67z" />
    <glyph glyph-name="oslash" unicode="&#xf8;" horiz-adv-x="563" 
d="M281 -15c-49 0 -96 14 -135 38l-62 -90h-27l71 103c-63 47 -104 121 -103 202c1 134 117 254 256 254c49 0 94 -15 134 -40l63 92h27l-72 -104c63 -48 105 -122 105 -202c0 -135 -116 -253 -257 -253zM281 5c103 0 147 112 147 233c0 55 -10 109 -30 151l-223 -323
c24 -38 58 -61 106 -61zM135 238c0 -56 9 -109 28 -151l223 323c-24 38 -59 62 -105 62c-102 0 -146 -114 -146 -234z" />
    <glyph glyph-name="ugrave" unicode="&#xf9;" horiz-adv-x="524" 
d="M349 -12v124c-34 -65 -80 -127 -161 -127c-85 0 -129 66 -129 170v213c0 51 -17 85 -42 107v2h142v-306c0 -70 32 -106 88 -106c48 0 78 27 97 63v240c0 50 -16 85 -44 107v2h144v-307c0 -106 13 -125 45 -148v-2zM320 540l-8 -8l-201 146l76 71z" />
    <glyph glyph-name="uacute" unicode="&#xfa;" horiz-adv-x="524" 
d="M349 -12v124c-34 -65 -80 -127 -161 -127c-85 0 -129 66 -129 170v213c0 51 -17 85 -42 107v2h142v-306c0 -70 32 -106 88 -106c48 0 78 27 97 63v240c0 50 -16 85 -44 107v2h144v-307c0 -106 13 -125 45 -148v-2zM186 550l133 199l73 -71l-198 -136z" />
    <glyph glyph-name="ucircumflex" unicode="&#xfb;" horiz-adv-x="524" 
d="M349 -12v124c-34 -65 -80 -127 -161 -127c-85 0 -129 66 -129 170v213c0 51 -17 85 -42 107v2h142v-306c0 -70 32 -106 88 -106c48 0 78 27 97 63v240c0 50 -16 85 -44 107v2h144v-307c0 -106 13 -125 45 -148v-2zM384 540l-131 87l-131 -87l-9 10l137 169h6l137 -169z
" />
    <glyph glyph-name="udieresis" unicode="&#xfc;" horiz-adv-x="524" 
d="M349 -12v124c-34 -65 -80 -127 -161 -127c-85 0 -129 66 -129 170v213c0 51 -17 85 -42 107v2h142v-306c0 -70 32 -106 88 -106c48 0 78 27 97 63v240c0 50 -16 85 -44 107v2h144v-307c0 -106 13 -125 45 -148v-2zM413 658c0 -33 -27 -60 -60 -60s-60 27 -60 60
s27 61 60 61s60 -28 60 -61zM213 658c0 -33 -27 -60 -60 -60s-60 27 -60 60s27 61 60 61s60 -28 60 -61z" />
    <glyph glyph-name="yacute" unicode="&#xfd;" horiz-adv-x="449" 
d="M41 -225l-2 96c35 -1 130 4 168 105l1 4l-142 378c-24 65 -39 92 -61 117v2h168v-2c-11 -19 -20 -64 4 -128l84 -225l85 227c20 54 2 104 -15 126v2h113v-2c-34 -37 -52 -65 -74 -123l-155 -401c-53 -137 -106 -168 -174 -176zM189 550l133 199l73 -71l-198 -136z" />
    <glyph glyph-name="thorn" unicode="&#xfe;" horiz-adv-x="561" 
d="M294 3c78 0 132 85 132 222c0 143 -59 202 -146 202c-52 0 -89 -21 -111 -41v-201c0 -139 70 -182 125 -182zM191 -223v-2h-145v2c19 55 23 104 23 192v625c0 65 -21 103 -45 129v2l145 53v-370h2c34 41 88 84 170 84c115 0 190 -104 190 -248c0 -143 -82 -259 -247 -259
c-46 0 -84 9 -115 23v-38c0 -87 2 -138 22 -193z" />
    <glyph glyph-name="ydieresis" unicode="&#xff;" horiz-adv-x="449" 
d="M41 -225l-2 96c35 -1 130 4 168 105l1 4l-142 378c-24 65 -39 92 -61 117v2h168v-2c-11 -19 -20 -64 4 -128l84 -225l85 227c20 54 2 104 -15 126v2h113v-2c-34 -37 -52 -65 -74 -123l-155 -401c-53 -137 -106 -168 -174 -176zM403 658c0 -33 -27 -60 -60 -60
s-60 27 -60 60s27 61 60 61s60 -28 60 -61zM203 658c0 -33 -27 -60 -60 -60s-60 27 -60 60s27 61 60 61s60 -28 60 -61z" />
    <glyph glyph-name="dotlessi" unicode="&#x131;" horiz-adv-x="242" 
d="M51 0v2c14 55 23 105 23 192v114c0 64 -21 102 -45 129v7l145 53v-302c0 -86 2 -138 22 -193v-2h-145z" />
    <glyph glyph-name="Lslash" unicode="&#x141;" horiz-adv-x="594" 
d="M23 219v26l71 35v271c0 83 -8 117 -40 179v2h195v-2c-33 -62 -40 -96 -40 -179v-215l244 121v-26l-244 -121v-296l151 6c83 4 160 96 216 181l8 -3l-44 -198h-486v2c32 62 40 97 40 179v73z" />
    <glyph glyph-name="lslash" unicode="&#x142;" horiz-adv-x="258" 
d="M9 259v28l70 55v252c0 65 -21 103 -45 129v2l145 53v-357l70 56v-28l-70 -56v-253c0 -75 9 -111 23 -138v-2h-145v2c13 28 22 62 22 137v175z" />
    <glyph glyph-name="OE" unicode="&#x152;" horiz-adv-x="1061" 
d="M418 20l79 -2c21 52 32 90 32 151v394c0 63 -11 100 -33 153h-77c-166 0 -262 -114 -262 -361c0 -217 81 -330 261 -335zM1046 198l-44 -198h-592c-233 0 -380 132 -380 369c0 234 153 363 380 363h542l39 -178l-8 -3c-53 55 -125 157 -169 159l-169 7v-338h86
c48 0 90 67 124 105h9v-226h-9c-33 35 -75 101 -124 101h-86v-344l178 7c82 4 158 101 215 179z" />
    <glyph glyph-name="oe" unicode="&#x153;" horiz-adv-x="876" 
d="M658 474c-66 0 -113 -65 -124 -161l209 5v11c0 99 -29 145 -85 145zM281 3c105 0 152 112 152 230s-48 231 -152 231s-151 -113 -151 -231s46 -230 151 -230zM851 112c-26 -76 -91 -127 -192 -127c-83 0 -147 35 -184 96c-46 -58 -116 -96 -194 -96
c-141 0 -257 116 -256 248s117 249 256 249c79 0 151 -41 196 -101c42 71 111 111 182 111c120 0 192 -107 186 -195h-313c-1 -10 -1 -20 -1 -30c0 -128 71 -197 178 -197c45 0 102 12 136 46z" />
    <glyph glyph-name="Scaron" unicode="&#x160;" horiz-adv-x="553" 
d="M454 718l20 -181l-9 -3c-68 148 -138 193 -207 193c-68 0 -109 -44 -109 -112c0 -95 84 -134 173 -178c98 -48 201 -101 201 -239c0 -150 -120 -213 -262 -213c-67 0 -140 14 -206 39l-20 185l8 3c78 -144 155 -207 246 -207s135 64 135 137c0 95 -73 143 -155 183
c-104 51 -209 101 -209 231c0 138 111 191 231 191c59 0 116 -12 163 -29zM282 782h-6l-153 153l9 10l147 -76l147 76l9 -10z" />
    <glyph glyph-name="scaron" unicode="&#x161;" horiz-adv-x="399" 
d="M336 472l10 -109l-6 -2c-51 87 -108 113 -155 113c-52 0 -82 -33 -82 -74c0 -58 63 -80 129 -108c70 -30 142 -67 142 -163c0 -99 -83 -144 -187 -144c-52 0 -105 11 -147 26l-10 128l6 2c50 -97 101 -138 164 -138c67 0 92 45 92 86c0 52 -39 76 -106 105
s-148 62 -148 162c0 102 86 136 174 136c48 0 97 -10 124 -20zM195 540l-137 169l9 10l131 -87l131 87l9 -10l-137 -169h-6z" />
    <glyph glyph-name="Ydieresis" unicode="&#x178;" horiz-adv-x="601" 
d="M202 0v2c32 52 40 81 40 149v182l-145 259c-38 67 -70 109 -110 138v2h227v-2c-27 -21 -22 -77 5 -126l131 -241l99 173c56 98 36 163 16 194v2h149v-2c-54 -51 -79 -88 -128 -172l-129 -224v-183c0 -69 7 -97 40 -149v-2h-195zM525 868c0 -33 -27 -60 -60 -60
s-60 27 -60 60s27 61 60 61s60 -28 60 -61zM285 868c0 -33 -27 -60 -60 -60s-60 27 -60 60s27 61 60 61s60 -28 60 -61z" />
    <glyph glyph-name="Zcaron" unicode="&#x17d;" horiz-adv-x="623" 
d="M559 0h-539v11l439 705l-130 -4c-148 -5 -224 -95 -278 -175l-8 3l47 192h504v-11l-438 -706l160 5c149 5 227 99 284 191l8 -3zM337 782h-6l-153 153l9 10l147 -76l147 76l9 -10z" />
    <glyph glyph-name="zcaron" unicode="&#x17e;" horiz-adv-x="447" 
d="M392 0h-377v7l282 453l-120 -4c-50 -1 -102 -60 -142 -102l-5 2l33 121h353v-8l-280 -452l131 3c60 2 110 56 155 112l5 -2zM234 540l-137 169l9 10l131 -87l131 87l9 -10l-137 -169h-6z" />
    <glyph glyph-name="circumflex" unicode="&#x2c6;" 
d="M281 540l-131 87l-131 -87l-9 10l137 169h6l137 -169z" />
    <glyph glyph-name="caron" unicode="&#x2c7;" 
d="M72 540l-137 169l9 10l131 -87l131 87l9 -10l-137 -169h-6z" />
    <glyph glyph-name="breve" unicode="&#x2d8;" 
d="M150 632c57 0 92 28 104 72h10c-1 -51 -26 -133 -116 -133s-111 82 -112 133h10c12 -44 47 -72 104 -72z" />
    <glyph glyph-name="dotaccent" unicode="&#x2d9;" 
d="M210 658c0 -33 -27 -60 -60 -60s-60 27 -60 60s27 61 60 61s60 -28 60 -61z" />
    <glyph glyph-name="ring" unicode="&#x2da;" 
d="M60 653c0 50 39 86 90 86s90 -35 90 -86c0 -50 -40 -85 -90 -85s-90 35 -90 85zM99 653c0 -41 19 -66 51 -66s51 25 51 66s-19 68 -51 68s-51 -27 -51 -68z" />
    <glyph glyph-name="ogonek" unicode="&#x2db;" 
d="M168 1h30c-69 -57 -83 -94 -83 -127c0 -36 19 -59 55 -59c29 0 54 12 82 45l9 -7c-24 -45 -62 -101 -133 -101c-55 0 -92 35 -92 84c0 61 55 106 132 165z" />
    <glyph glyph-name="tilde" unicode="&#x2dc;" 
d="M85 680c43 0 98 -31 146 -31c31 0 49 12 59 43l10 -1c-3 -39 -18 -116 -84 -116c-43 0 -99 32 -148 32c-30 0 -48 -12 -57 -43l-11 1c3 39 18 115 85 115z" />
    <glyph glyph-name="hungarumlaut" unicode="&#x2dd;" 
d="M143 552l119 177l59 -64l-169 -123zM-17 552l119 177l59 -64l-169 -123z" />
    <glyph glyph-name="endash" unicode="&#x2013;" horiz-adv-x="530" 
d="M500 271h-470v20h470v-20z" />
    <glyph glyph-name="emdash" unicode="&#x2014;" horiz-adv-x="780" 
d="M750 271h-720v20h720v-20z" />
    <glyph glyph-name="quoteleft" unicode="&#x2018;" horiz-adv-x="246" 
d="M186 755l5 -6c-32 -30 -52 -68 -52 -102c0 -21 25 -55 45 -77v-2l-79 -63c-26 18 -45 50 -45 82c0 69 71 135 126 168z" />
    <glyph glyph-name="quoteright" unicode="&#x2019;" horiz-adv-x="246" 
d="M60 505l-5 6c32 30 52 68 52 102c0 21 -25 55 -45 77v2l79 63c26 -18 45 -50 45 -82c0 -69 -71 -135 -126 -168z" />
    <glyph glyph-name="quotesinglbase" unicode="&#x201a;" horiz-adv-x="246" 
d="M60 -95l-5 6c32 30 52 68 52 102c0 21 -25 55 -45 77v2l79 63c26 -18 45 -50 45 -82c0 -69 -71 -135 -126 -168z" />
    <glyph glyph-name="quotedblleft" unicode="&#x201c;" horiz-adv-x="416" 
d="M186 755l5 -6c-32 -30 -52 -68 -52 -102c0 -21 25 -55 45 -77v-2l-79 -63c-26 18 -45 50 -45 82c0 69 71 135 126 168zM356 755l5 -6c-32 -30 -52 -68 -52 -102c0 -21 25 -55 45 -77v-2l-79 -63c-26 18 -45 50 -45 82c0 69 71 135 126 168z" />
    <glyph glyph-name="quotedblright" unicode="&#x201d;" horiz-adv-x="416" 
d="M230 505l-5 6c32 30 52 68 52 102c0 21 -25 55 -45 77v2l79 63c26 -18 45 -50 45 -82c0 -69 -71 -135 -126 -168zM60 505l-5 6c32 30 52 68 52 102c0 21 -25 55 -45 77v2l79 63c26 -18 45 -50 45 -82c0 -69 -71 -135 -126 -168z" />
    <glyph glyph-name="quotedblbase" unicode="&#x201e;" horiz-adv-x="416" 
d="M60 -95l-5 6c32 30 52 68 52 102c0 21 -25 55 -45 77v2l79 63c26 -18 45 -50 45 -82c0 -69 -71 -135 -126 -168zM230 -95l-5 6c32 30 52 68 52 102c0 21 -25 55 -45 77v2l79 63c26 -18 45 -50 45 -82c0 -69 -71 -135 -126 -168z" />
    <glyph glyph-name="dagger" unicode="&#x2020;" horiz-adv-x="416" 
d="M265 262l-48 -262h-18l-48 262l47 251l-168 -46v114l167 -46l-51 197h124l-51 -197l167 46v-114l-168 46z" />
    <glyph glyph-name="daggerdbl" unicode="&#x2021;" horiz-adv-x="416" 
d="M386 151l-167 46l51 -197h-124l51 197l-167 -46v114l167 -46l-46 146l46 148l-167 -46v114l167 -46l-51 197h124l-51 -197l167 46v-114l-167 46l46 -148l-46 -146l167 46v-114z" />
    <glyph glyph-name="bullet" unicode="&#x2022;" horiz-adv-x="332" 
d="M166 194c-51 0 -91 43 -91 91c0 52 40 93 91 93c49 0 91 -41 91 -93c0 -48 -42 -91 -91 -91z" />
    <glyph glyph-name="ellipsis" unicode="&#x2026;" horiz-adv-x="756" 
d="M128 -5c-37 0 -67 31 -67 67c0 38 30 68 67 68c36 0 67 -30 67 -68c0 -36 -31 -67 -67 -67zM378 -5c-37 0 -67 31 -67 67c0 38 30 68 67 68c36 0 67 -30 67 -68c0 -36 -31 -67 -67 -67zM628 -5c-37 0 -67 31 -67 67c0 38 30 68 67 68c36 0 67 -30 67 -68
c0 -36 -31 -67 -67 -67z" />
    <glyph glyph-name="perthousand" unicode="&#x2030;" horiz-adv-x="1170" 
d="M194 346c-92 0 -167 87 -167 201c0 115 74 200 167 200c92 0 171 -85 171 -200c0 -114 -79 -201 -171 -201zM194 361c58 0 77 80 77 186s-19 185 -77 185s-73 -79 -73 -185s15 -186 73 -186zM573 -8c-92 0 -167 87 -167 201c0 115 74 200 167 200c92 0 171 -85 171 -200
c0 -114 -79 -201 -171 -201zM972 -8c-92 0 -167 87 -167 201c0 115 74 200 167 200c92 0 171 -85 171 -200c0 -114 -79 -201 -171 -201zM573 7c58 0 77 80 77 186s-19 185 -77 185s-73 -79 -73 -185s15 -186 73 -186zM972 7c58 0 77 80 77 186s-19 185 -77 185
s-73 -79 -73 -185s15 -186 73 -186zM141 1l-17 14l520 728l18 -12z" />
    <glyph glyph-name="guilsinglleft" unicode="&#x2039;" horiz-adv-x="281" 
d="M221 58l-8 -6l-153 175v20l153 175l8 -6l-91 -179z" />
    <glyph glyph-name="guilsinglright" unicode="&#x203a;" horiz-adv-x="281" 
d="M68 52l-8 6l91 179l-91 179l8 6l153 -175v-20z" />
    <glyph glyph-name="fraction" unicode="&#x2044;" horiz-adv-x="272" 
d="M-118 1l-17 14l520 728l18 -12z" />
    <glyph glyph-name="Euro" unicode="&#x20ac;" horiz-adv-x="718" 
d="M651 57c-14 -13 -113 -72 -225 -72c-177 0 -298 129 -324 306h-92v20h89c-2 18 -3 36 -3 55s1 37 3 55h-89v20h92c30 176 164 306 343 306c85 0 160 -27 202 -48l20 -164l-8 -3c-80 138 -133 195 -227 195c-130 0 -193 -118 -206 -286h235v-20h-236c-2 -18 -2 -36 -2 -55
s1 -37 2 -55h236v-20h-235c14 -169 77 -286 200 -286c118 0 179 98 237 238l8 -3z" />
    <glyph glyph-name="trademark" unicode="&#x2122;" horiz-adv-x="788" 
d="M243 405v-2h-108v2c14 28 18 43 18 79v234l-39 -1c-21 -1 -64 -60 -88 -99l-6 2l21 112h295l20 -112l-6 -2c-25 39 -65 98 -86 99l-39 1v-234c0 -37 3 -51 18 -79zM456 405v-2h-77v2c23 31 28 47 28 88v179c0 26 -12 39 -36 58v2h106l93 -222l94 222h104v-2
c-29 -23 -36 -35 -36 -74v-172c0 -37 3 -51 18 -79v-2h-108v2c15 28 18 43 18 79v198l-114 -269h-9l-115 268l2 -188c0 -41 6 -57 32 -88z" />
    <glyph glyph-name="minus" unicode="&#x2212;" horiz-adv-x="532" 
d="M487 297h-442v22h442v-22z" />
    <glyph glyph-name="Dcroat" unicode="&#x110;" horiz-adv-x="759" 
d="M4 357v20h91v201c0 70 -8 99 -40 152v2c125 0 142 4 274 4c249 0 400 -130 400 -367s-144 -369 -400 -369h-274v2c32 53 40 82 40 152v203h-91zM320 716h-110v-339h166v-20h-166v-340l111 3c205 5 281 118 281 335c0 247 -93 361 -282 361z" />
    <glyph glyph-name="Eng" unicode="&#x14a;" horiz-adv-x="690" 
d="M472 -225c-36 0 -93 7 -140 22l-23 165l8 3c81 -112 124 -170 181 -170c39 0 89 28 89 128v74h-16l-464 630l4 -428c0 -90 13 -127 69 -197v-2h-154v2c50 70 61 107 61 197v392c-4 65 -22 95 -78 139v2h160l417 -567l-1 368c0 90 -13 127 -61 197v2h144v-2
c-48 -70 -61 -107 -61 -197v-605c0 -98 -36 -153 -135 -153z" />
    <glyph glyph-name="IJ" unicode="&#x132;" horiz-adv-x="683" 
d="M49 0v2c33 62 40 96 40 179v370c0 83 -7 117 -40 179v2h195v-2c-33 -62 -40 -96 -40 -179v-370c0 -83 7 -117 40 -179v-2h-195zM603 138c0 -98 -64 -153 -169 -153c-38 0 -78 7 -117 22l-18 165l8 3c70 -112 100 -170 136 -170c27 0 46 28 46 77v469c0 83 -8 117 -40 179
v2h194v-2c-32 -62 -40 -96 -40 -179v-413z" />
    <glyph glyph-name="dcroat" unicode="&#x111;" horiz-adv-x="567" 
d="M396 86h-3c-30 -52 -88 -101 -171 -101c-117 0 -192 98 -192 232c0 145 90 275 261 275c39 0 73 -7 101 -18v105h-172v20h172c-2 62 -22 99 -45 124v2l145 53v-179h60v-20h-60v-366c0 -137 12 -161 46 -191v-2l-142 -32v98zM274 52c52 0 91 22 118 54v257
c-18 85 -68 111 -114 111c-88 0 -143 -93 -143 -223c0 -120 46 -199 139 -199z" />
    <glyph glyph-name="eng" unicode="&#x14b;" horiz-adv-x="547" 
d="M313 -215l-2 6c44 27 65 70 65 141v392c0 57 -25 107 -92 107c-42 0 -81 -19 -110 -50v-186c0 -87 2 -138 22 -193v-2h-145v2c19 55 23 104 23 192v118c0 66 -21 103 -45 130v2l141 53v-96l4 -1c43 52 91 92 161 92c91 0 142 -56 141 -145l-2 -345
c-1 -137 -74 -206 -161 -217z" />
    <glyph glyph-name="ij" unicode="&#x133;" horiz-adv-x="480" 
d="M179 658c0 -33 -27 -60 -60 -60s-60 27 -60 60s27 61 60 61s60 -28 60 -61zM51 0v2c14 55 23 105 23 192v114c0 64 -21 102 -45 129v7l145 53v-302c0 -86 2 -138 22 -193v-2h-145zM414 658c0 -33 -27 -60 -60 -60s-60 27 -60 60s27 61 60 61s60 -28 60 -61zM246 -215
l-2 6c44 27 65 70 65 141v376c0 64 -21 102 -45 129v7l145 53l-2 -495c0 -137 -74 -206 -161 -217z" />
    <glyph glyph-name="Abreve" unicode="&#x102;" horiz-adv-x="636" 
d="M379 296l-109 289l-110 -289h219zM133 2v-2h-135v2c48 50 66 95 95 172l215 566h20l219 -577c33 -87 56 -125 91 -161v-2h-199v2c17 29 17 92 -11 166l-41 108h-235l-21 -56c-45 -117 -19 -185 2 -218zM318 859c67 0 110 33 126 85h10c0 -57 -32 -150 -136 -150
s-135 93 -135 150h10c16 -52 58 -85 125 -85z" />
    <glyph glyph-name="Amacron" unicode="&#x100;" horiz-adv-x="636" 
d="M379 296l-109 289l-110 -289h219zM133 2v-2h-135v2c48 50 66 95 95 172l215 566h20l219 -577c33 -87 56 -125 91 -161v-2h-199v2c17 29 17 92 -11 166l-41 108h-235l-21 -56c-45 -117 -19 -185 2 -218zM162 833v50h313v-50h-313z" />
    <glyph glyph-name="Aogonek" unicode="&#x104;" horiz-adv-x="636" 
d="M399 -248c-55 0 -92 35 -92 84c0 58 49 101 110 148c27 21 34 43 34 74c0 30 -7 68 -23 110l-41 108h-235l-21 -56c-45 -117 -19 -185 2 -218v-2h-135v2c48 50 66 95 95 172l215 566h20l219 -577c33 -87 56 -125 91 -161v-2h-170c-68 -56 -82 -93 -82 -126
c0 -36 19 -59 55 -59c29 0 54 12 82 45l9 -7c-24 -45 -62 -101 -133 -101zM379 296l-109 289l-110 -289h219z" />
    <glyph glyph-name="Aringacute" unicode="&#x1fa;" horiz-adv-x="636" 
d="M379 296l-109 289l-110 -289h219zM133 2v-2h-135v2c48 50 66 95 95 172l215 566h20l219 -577c33 -87 56 -125 91 -161v-2h-199v2c17 29 17 92 -11 166l-41 108h-235l-21 -56c-45 -117 -19 -185 2 -218zM228 867c0 50 39 86 90 86s90 -35 90 -86c0 -50 -40 -85 -90 -85
s-90 35 -90 85zM267 867c0 -41 19 -66 51 -66s51 25 51 66s-19 68 -51 68s-51 -27 -51 -68zM230 972l195 167l52 -86l-241 -91z" />
    <glyph glyph-name="AEacute" unicode="&#x1fc;" horiz-adv-x="1010" 
d="M478 563c0 38 -4 72 -15 103l-212 -370h227v267zM167 2v-2h-140v2c58 50 85 96 129 173l295 516c-8 14 -19 27 -32 39v2h482l39 -178l-8 -3c-53 55 -125 157 -169 159l-169 7v-338h86c48 0 90 67 124 105h9v-226h-9c-33 35 -75 101 -124 101h-86v-344l178 7
c82 4 158 101 215 179l8 -3l-44 -198h-512v2c26 61 39 100 39 167v107h-239l-43 -76c-56 -97 -43 -165 -29 -198zM531 792l195 167l52 -86l-241 -91z" />
    <glyph glyph-name="Cacute" unicode="&#x106;" horiz-adv-x="752" 
d="M705 240l-20 -183c-17 -13 -138 -72 -275 -72c-231 0 -380 167 -380 381c0 213 166 381 399 381c106 0 199 -27 252 -48l20 -164l-8 -3c-98 138 -162 195 -277 195c-185 0 -259 -154 -259 -361c0 -208 77 -361 253 -361c142 0 217 98 287 238zM326 792l195 167l52 -86
l-241 -91z" />
    <glyph glyph-name="Ccaron" unicode="&#x10c;" horiz-adv-x="752" 
d="M705 240l-20 -183c-17 -13 -138 -72 -275 -72c-231 0 -380 167 -380 381c0 213 166 381 399 381c106 0 199 -27 252 -48l20 -164l-8 -3c-98 138 -162 195 -277 195c-185 0 -259 -154 -259 -361c0 -208 77 -361 253 -361c142 0 217 98 287 238zM417 782h-6l-153 153l9 10
l147 -76l147 76l9 -10z" />
    <glyph glyph-name="Ccircumflex" unicode="&#x108;" horiz-adv-x="752" 
d="M705 240l-20 -183c-17 -13 -138 -72 -275 -72c-231 0 -380 167 -380 381c0 213 166 381 399 381c106 0 199 -27 252 -48l20 -164l-8 -3c-98 138 -162 195 -277 195c-185 0 -259 -154 -259 -361c0 -208 77 -361 253 -361c142 0 217 98 287 238zM561 782l-147 76l-147 -76
l-9 10l153 153h6l153 -153z" />
    <glyph glyph-name="Cdotaccent" unicode="&#x10a;" horiz-adv-x="752" 
d="M705 240l-20 -183c-17 -13 -138 -72 -275 -72c-231 0 -380 167 -380 381c0 213 166 381 399 381c106 0 199 -27 252 -48l20 -164l-8 -3c-98 138 -162 195 -277 195c-185 0 -259 -154 -259 -361c0 -208 77 -361 253 -361c142 0 217 98 287 238zM474 868
c0 -33 -27 -60 -60 -60s-60 27 -60 60s27 61 60 61s60 -28 60 -61z" />
    <glyph glyph-name="Dcaron" unicode="&#x10e;" horiz-adv-x="753" 
d="M49 0v2c32 53 40 82 40 152v424c0 70 -8 99 -40 152v2c125 0 142 4 274 4c249 0 400 -130 400 -367s-144 -369 -400 -369h-274zM314 716h-110v-699l111 3c205 5 281 118 281 335c0 247 -93 361 -282 361zM363 782h-6l-153 153l9 10l147 -76l147 76l9 -10z" />
    <glyph glyph-name="Ebreve" unicode="&#x114;" horiz-adv-x="620" 
d="M605 198l-44 -198h-512v2c26 61 39 100 39 167v394c0 68 -13 106 -39 167v2h462l39 -178l-8 -3c-53 55 -125 157 -169 159l-169 7v-338h86c48 0 90 67 124 105h9v-226h-9c-33 35 -75 101 -124 101h-86v-344l178 7c82 4 158 101 215 179zM309 859c67 0 110 33 126 85h10
c0 -57 -32 -150 -136 -150s-135 93 -135 150h10c16 -52 58 -85 125 -85z" />
    <glyph glyph-name="Ecaron" unicode="&#x11a;" horiz-adv-x="620" 
d="M605 198l-44 -198h-512v2c26 61 39 100 39 167v394c0 68 -13 106 -39 167v2h462l39 -178l-8 -3c-53 55 -125 157 -169 159l-169 7v-338h86c48 0 90 67 124 105h9v-226h-9c-33 35 -75 101 -124 101h-86v-344l178 7c82 4 158 101 215 179zM312 782h-6l-153 153l9 10
l147 -76l147 76l9 -10z" />
    <glyph glyph-name="Edotaccent" unicode="&#x116;" horiz-adv-x="620" 
d="M605 198l-44 -198h-512v2c26 61 39 100 39 167v394c0 68 -13 106 -39 167v2h462l39 -178l-8 -3c-53 55 -125 157 -169 159l-169 7v-338h86c48 0 90 67 124 105h9v-226h-9c-33 35 -75 101 -124 101h-86v-344l178 7c82 4 158 101 215 179zM369 868c0 -33 -27 -60 -60 -60
s-60 27 -60 60s27 61 60 61s60 -28 60 -61z" />
    <glyph glyph-name="Emacron" unicode="&#x112;" horiz-adv-x="620" 
d="M605 198l-44 -198h-512v2c26 61 39 100 39 167v394c0 68 -13 106 -39 167v2h462l39 -178l-8 -3c-53 55 -125 157 -169 159l-169 7v-338h86c48 0 90 67 124 105h9v-226h-9c-33 35 -75 101 -124 101h-86v-344l178 7c82 4 158 101 215 179zM153 833v50h313v-50h-313z" />
    <glyph glyph-name="Eogonek" unicode="&#x118;" horiz-adv-x="620" 
d="M605 198l-44 -198h-94c-68 -56 -81 -93 -81 -126c0 -36 19 -59 55 -59c29 0 54 12 82 45l9 -7c-24 -45 -62 -101 -133 -101c-55 0 -92 35 -92 84c0 61 54 106 130 164h-388v2c26 61 39 100 39 167v394c0 68 -13 106 -39 167v2h462l39 -178l-8 -3
c-53 55 -125 157 -169 159l-169 7v-338h86c48 0 90 67 124 105h9v-226h-9c-33 35 -75 101 -124 101h-86v-344l178 7c82 4 158 101 215 179z" />
    <glyph glyph-name="Gbreve" unicode="&#x11e;" horiz-adv-x="783" 
d="M713 91c-47 -33 -133 -106 -294 -106c-237 0 -389 167 -389 381c0 213 154 381 406 381c115 0 201 -30 256 -48l20 -163l-9 -3c-95 138 -169 194 -276 194c-184 0 -270 -159 -270 -362c0 -202 76 -360 262 -360c109 0 184 54 184 159c0 72 -10 107 -46 166v2h196v-2
c-33 -62 -40 -96 -40 -179v-60zM414 859c67 0 110 33 126 85h10c0 -57 -32 -150 -136 -150s-135 93 -135 150h10c16 -52 58 -85 125 -85z" />
    <glyph glyph-name="Gcircumflex" unicode="&#x11c;" horiz-adv-x="783" 
d="M713 91c-47 -33 -133 -106 -294 -106c-237 0 -389 167 -389 381c0 213 154 381 406 381c115 0 201 -30 256 -48l20 -163l-9 -3c-95 138 -169 194 -276 194c-184 0 -270 -159 -270 -362c0 -202 76 -360 262 -360c109 0 184 54 184 159c0 72 -10 107 -46 166v2h196v-2
c-33 -62 -40 -96 -40 -179v-60zM561 782l-147 76l-147 -76l-9 10l153 153h6l153 -153z" />
    <glyph glyph-name="uni0122" unicode="&#x122;" horiz-adv-x="783" 
d="M713 91c-47 -33 -133 -106 -294 -106c-237 0 -389 167 -389 381c0 213 154 381 406 381c115 0 201 -30 256 -48l20 -163l-9 -3c-95 138 -169 194 -276 194c-184 0 -270 -159 -270 -362c0 -202 76 -360 262 -360c109 0 184 54 184 159c0 72 -10 107 -46 166v2h196v-2
c-33 -62 -40 -96 -40 -179v-60zM351 -244l-3 5c35 24 56 57 56 85c0 16 -24 46 -42 65v1l75 50c24 -16 42 -44 42 -70c0 -56 -73 -111 -128 -136z" />
    <glyph glyph-name="Gdotaccent" unicode="&#x120;" horiz-adv-x="783" 
d="M713 91c-47 -33 -133 -106 -294 -106c-237 0 -389 167 -389 381c0 213 154 381 406 381c115 0 201 -30 256 -48l20 -163l-9 -3c-95 138 -169 194 -276 194c-184 0 -270 -159 -270 -362c0 -202 76 -360 262 -360c109 0 184 54 184 159c0 72 -10 107 -46 166v2h196v-2
c-33 -62 -40 -96 -40 -179v-60zM474 868c0 -33 -27 -60 -60 -60s-60 27 -60 60s27 61 60 61s60 -28 60 -61z" />
    <glyph glyph-name="Hbar" unicode="&#x126;" horiz-adv-x="769" 
d="M55 0v2c32 62 40 97 40 179v366h-90v20h90c-1 71 -10 105 -40 163v2h195v-2c-31 -58 -39 -92 -40 -163h349c-1 71 -9 105 -40 163v2h195v-2c-30 -58 -39 -92 -40 -163h90v-20h-90v-366c0 -83 8 -117 40 -179v-2h-195v2c33 62 40 97 40 179v186h-349v-186
c0 -83 7 -117 40 -179v-2h-195zM210 387h349v160h-349v-160z" />
    <glyph glyph-name="Hcircumflex" unicode="&#x124;" horiz-adv-x="757" 
d="M49 0v2c32 62 40 97 40 179v370c0 83 -8 117 -40 179v2h195v-2c-33 -62 -40 -96 -40 -179v-164h349v164c0 82 -7 117 -40 179v2h195v-2c-32 -62 -40 -96 -40 -179v-370c0 -83 8 -117 40 -179v-2h-195v2c33 62 40 97 40 179v186h-349v-186c0 -83 7 -117 40 -179v-2h-195z
M525 782l-147 76l-147 -76l-9 10l153 153h6l153 -153z" />
    <glyph glyph-name="Ibreve" unicode="&#x12c;" horiz-adv-x="293" 
d="M49 0v2c33 62 40 96 40 179v370c0 83 -7 117 -40 179v2h195v-2c-33 -62 -40 -96 -40 -179v-370c0 -83 7 -117 40 -179v-2h-195zM146 859c67 0 110 33 126 85h10c0 -57 -32 -150 -136 -150s-135 93 -135 150h10c16 -52 58 -85 125 -85z" />
    <glyph glyph-name="Idotaccent" unicode="&#x130;" horiz-adv-x="293" 
d="M49 0v2c33 62 40 96 40 179v370c0 83 -7 117 -40 179v2h195v-2c-33 -62 -40 -96 -40 -179v-370c0 -83 7 -117 40 -179v-2h-195zM206 868c0 -33 -27 -60 -60 -60s-60 27 -60 60s27 61 60 61s60 -28 60 -61z" />
    <glyph glyph-name="Imacron" unicode="&#x12a;" horiz-adv-x="293" 
d="M49 0v2c33 62 40 96 40 179v370c0 83 -7 117 -40 179v2h195v-2c-33 -62 -40 -96 -40 -179v-370c0 -83 7 -117 40 -179v-2h-195zM-10 833v50h313v-50h-313z" />
    <glyph glyph-name="Iogonek" unicode="&#x12e;" horiz-adv-x="293" 
d="M49 0v2c33 62 40 96 40 179v370c0 83 -7 117 -40 179v2h195v-2c-33 -62 -40 -96 -40 -179v-370c0 -83 7 -117 40 -179v-2h-50c-68 -56 -81 -93 -81 -126c0 -36 19 -59 55 -59c29 0 54 12 82 45l9 -7c-24 -45 -62 -101 -133 -101c-55 0 -92 35 -92 84c0 61 54 106 130 164
h-115z" />
    <glyph glyph-name="Itilde" unicode="&#x128;" horiz-adv-x="293" 
d="M49 0v2c33 62 40 96 40 179v370c0 83 -7 117 -40 179v2h195v-2c-33 -62 -40 -96 -40 -179v-370c0 -83 7 -117 40 -179v-2h-195zM68 905c61 0 109 -40 172 -40c34 0 52 12 66 54l10 -2c-3 -55 -11 -126 -92 -126c-61 0 -109 40 -172 40c-34 0 -52 -12 -66 -54l-10 2
c3 55 11 126 92 126z" />
    <glyph glyph-name="Jcircumflex" unicode="&#x134;" horiz-adv-x="404" 
d="M324 138c0 -98 -64 -153 -169 -153c-38 0 -78 7 -117 22l-18 165l8 3c70 -112 100 -170 136 -170c27 0 46 28 46 77v469c0 83 -8 117 -40 179v2h194v-2c-32 -62 -40 -96 -40 -179v-413zM414 782l-147 76l-147 -76l-9 10l153 153h6l153 -153z" />
    <glyph glyph-name="uni0136" unicode="&#x136;" horiz-adv-x="655" 
d="M49 0v2c32 62 40 97 40 179v370c0 83 -8 117 -40 179v2h195v-2c-33 -62 -40 -96 -40 -179v-370c0 -83 7 -117 40 -179v-2h-195zM666 0h-174l-272 361l189 218c65 75 79 120 56 151v2h158v-2c-87 -44 -128 -87 -182 -149l-130 -148l232 -308c39 -52 72 -88 122 -123z
M271 -244l-3 5c35 24 56 57 56 85c0 16 -24 46 -42 65v1l75 50c24 -16 42 -44 42 -70c0 -56 -73 -111 -128 -136z" />
    <glyph glyph-name="Lacute" unicode="&#x139;" horiz-adv-x="589" 
d="M535 0h-486v2c32 62 40 97 40 179v370c0 83 -8 117 -40 179v2h195v-2c-33 -62 -40 -96 -40 -179v-537l151 6c83 4 160 96 216 181l8 -3zM58 792l195 167l52 -86l-241 -91z" />
    <glyph glyph-name="Lcaron" unicode="&#x13d;" horiz-adv-x="589" 
d="M535 0h-486v2c32 62 40 97 40 179v370c0 83 -8 117 -40 179v2h195v-2c-33 -62 -40 -96 -40 -179v-537l151 6c83 4 160 96 216 181l8 -3zM287 531l23 201h90l-103 -203z" />
    <glyph glyph-name="uni013B" unicode="&#x13b;" horiz-adv-x="589" 
d="M535 0h-486v2c32 62 40 97 40 179v370c0 83 -8 117 -40 179v2h195v-2c-33 -62 -40 -96 -40 -179v-537l151 6c83 4 160 96 216 181l8 -3zM253 -244l-3 5c35 24 56 57 56 85c0 16 -24 46 -42 65v1l75 50c24 -16 42 -44 42 -70c0 -56 -73 -111 -128 -136z" />
    <glyph glyph-name="Ldot" unicode="&#x13f;" horiz-adv-x="589" 
d="M535 0h-486v2c32 62 40 97 40 179v370c0 83 -8 117 -40 179v2h195v-2c-33 -62 -40 -96 -40 -179v-537l151 6c83 4 160 96 216 181l8 -3zM478 305c-37 0 -67 31 -67 67c0 38 30 68 67 68c36 0 67 -30 67 -68c0 -36 -31 -67 -67 -67z" />
    <glyph glyph-name="Nacute" unicode="&#x143;" horiz-adv-x="694" 
d="M573 -3l-464 630l4 -428c0 -90 13 -127 69 -197v-2h-154v2c50 70 61 107 61 197v392c-4 65 -22 95 -78 139v2h160l419 -569l-3 370c-1 90 -13 127 -61 197v2h144v-2c-48 -70 -61 -107 -61 -197v-533zM277 792l195 167l52 -86l-241 -91z" />
    <glyph glyph-name="Ncaron" unicode="&#x147;" horiz-adv-x="694" 
d="M573 -3l-464 630l4 -428c0 -90 13 -127 69 -197v-2h-154v2c50 70 61 107 61 197v392c-4 65 -22 95 -78 139v2h160l419 -569l-3 370c-1 90 -13 127 -61 197v2h144v-2c-48 -70 -61 -107 -61 -197v-533zM368 782h-6l-153 153l9 10l147 -76l147 76l9 -10z" />
    <glyph glyph-name="uni0145" unicode="&#x145;" horiz-adv-x="694" 
d="M573 -3l-464 630l4 -428c0 -90 13 -127 69 -197v-2h-154v2c50 70 61 107 61 197v392c-4 65 -22 95 -78 139v2h160l419 -569l-3 370c-1 90 -13 127 -61 197v2h144v-2c-48 -70 -61 -107 -61 -197v-533zM292 -244l-3 5c35 24 56 57 56 85c0 16 -24 46 -42 65v1l75 50
c24 -16 42 -44 42 -70c0 -56 -73 -111 -128 -136z" />
    <glyph glyph-name="Obreve" unicode="&#x14e;" horiz-adv-x="814" 
d="M406 -15c-188 0 -376 168 -376 380s188 382 376 382s378 -170 378 -382s-190 -380 -378 -380zM406 5c173 0 251 153 251 360c0 206 -78 362 -251 362c-172 0 -249 -156 -249 -362s77 -360 249 -360zM407 859c67 0 110 33 126 85h10c0 -57 -32 -150 -136 -150
s-135 93 -135 150h10c16 -52 58 -85 125 -85z" />
    <glyph glyph-name="Ohungarumlaut" unicode="&#x150;" horiz-adv-x="814" 
d="M406 -15c-188 0 -376 168 -376 380s188 382 376 382s378 -170 378 -382s-190 -380 -378 -380zM406 5c173 0 251 153 251 360c0 206 -78 362 -251 362c-172 0 -249 -156 -249 -362s77 -360 249 -360zM453 792l131 157l58 -77l-180 -90zM263 792l131 157l58 -77l-180 -90z
" />
    <glyph glyph-name="Omacron" unicode="&#x14c;" horiz-adv-x="814" 
d="M406 -15c-188 0 -376 168 -376 380s188 382 376 382s378 -170 378 -382s-190 -380 -378 -380zM406 5c173 0 251 153 251 360c0 206 -78 362 -251 362c-172 0 -249 -156 -249 -362s77 -360 249 -360zM251 833v50h313v-50h-313z" />
    <glyph glyph-name="Oslashacute" unicode="&#x1fe;" horiz-adv-x="814" 
d="M157 365c0 -105 20 -197 63 -262l358 545c-40 50 -97 79 -172 79c-172 0 -249 -156 -249 -362zM406 5c173 0 251 153 251 360c0 106 -21 198 -64 263l-358 -545c40 -49 97 -78 171 -78zM406 -15c-68 0 -137 22 -196 61l-49 -75h-28l58 88c-94 69 -161 180 -161 306
c0 212 188 382 376 382c68 0 137 -23 197 -61l50 76h28l-59 -90c94 -69 162 -181 162 -307c0 -212 -190 -380 -378 -380zM319 792l195 167l52 -86l-241 -91z" />
    <glyph glyph-name="Racute" unicode="&#x154;" horiz-adv-x="646" 
d="M282 712c-13 0 -39 0 -78 -1v-338h78c126 0 158 87 158 185c0 91 -36 154 -158 154zM49 0v2c32 62 40 97 40 179v370c0 83 -8 117 -40 179v2h255c181 0 253 -70 253 -175c0 -83 -45 -153 -145 -185l119 -233c43 -84 64 -106 116 -132v-7h-176l-180 353h-87v-172
c0 -83 7 -117 40 -179v-2h-195zM218 792l195 167l52 -86l-241 -91z" />
    <glyph glyph-name="Rcaron" unicode="&#x158;" horiz-adv-x="646" 
d="M282 712c-13 0 -39 0 -78 -1v-338h78c126 0 158 87 158 185c0 91 -36 154 -158 154zM49 0v2c32 62 40 97 40 179v370c0 83 -8 117 -40 179v2h255c181 0 253 -70 253 -175c0 -83 -45 -153 -145 -185l119 -233c43 -84 64 -106 116 -132v-7h-176l-180 353h-87v-172
c0 -83 7 -117 40 -179v-2h-195zM309 782h-6l-153 153l9 10l147 -76l147 76l9 -10z" />
    <glyph glyph-name="uni0156" unicode="&#x156;" horiz-adv-x="646" 
d="M282 712c-13 0 -39 0 -78 -1v-338h78c126 0 158 87 158 185c0 91 -36 154 -158 154zM49 0v2c32 62 40 97 40 179v370c0 83 -8 117 -40 179v2h255c181 0 253 -70 253 -175c0 -83 -45 -153 -145 -185l119 -233c43 -84 64 -106 116 -132v-7h-176l-180 353h-87v-172
c0 -83 7 -117 40 -179v-2h-195zM273 -244l-3 5c35 24 56 57 56 85c0 16 -24 46 -42 65v1l75 50c24 -16 42 -44 42 -70c0 -56 -73 -111 -128 -136z" />
    <glyph glyph-name="Sacute" unicode="&#x15a;" horiz-adv-x="553" 
d="M454 718l20 -181l-9 -3c-68 148 -138 193 -207 193c-68 0 -109 -44 -109 -112c0 -95 84 -134 173 -178c98 -48 201 -101 201 -239c0 -150 -120 -213 -262 -213c-67 0 -140 14 -206 39l-20 185l8 3c78 -144 155 -207 246 -207s135 64 135 137c0 95 -73 143 -155 183
c-104 51 -209 101 -209 231c0 138 111 191 231 191c59 0 116 -12 163 -29zM191 792l195 167l52 -86l-241 -91z" />
    <glyph glyph-name="uni015E" unicode="&#x15e;" horiz-adv-x="553" 
d="M197 -255l-3 9c37 15 82 42 82 83c0 43 -53 47 -75 49l-2 2l59 97c-66 1 -138 15 -203 39l-20 185l8 3c78 -144 155 -207 246 -207s135 64 135 137c0 95 -73 143 -155 183c-104 51 -209 101 -209 231c0 138 111 191 231 191c59 0 116 -12 163 -29l20 -181l-9 -3
c-68 148 -138 193 -207 193c-68 0 -109 -44 -109 -112c0 -95 84 -134 173 -178c98 -48 201 -101 201 -239c0 -141 -106 -205 -237 -212l-29 -46c52 -11 88 -38 88 -83c0 -57 -58 -93 -148 -112z" />
    <glyph glyph-name="Scircumflex" unicode="&#x15c;" horiz-adv-x="553" 
d="M454 718l20 -181l-9 -3c-68 148 -138 193 -207 193c-68 0 -109 -44 -109 -112c0 -95 84 -134 173 -178c98 -48 201 -101 201 -239c0 -150 -120 -213 -262 -213c-67 0 -140 14 -206 39l-20 185l8 3c78 -144 155 -207 246 -207s135 64 135 137c0 95 -73 143 -155 183
c-104 51 -209 101 -209 231c0 138 111 191 231 191c59 0 116 -12 163 -29zM426 782l-147 76l-147 -76l-9 10l153 153h6l153 -153z" />
    <glyph glyph-name="uni0218" unicode="&#x218;" horiz-adv-x="553" 
d="M454 718l20 -181l-9 -3c-68 148 -138 193 -207 193c-68 0 -109 -44 -109 -112c0 -95 84 -134 173 -178c98 -48 201 -101 201 -239c0 -150 -120 -213 -262 -213c-67 0 -140 14 -206 39l-20 185l8 3c78 -144 155 -207 246 -207s135 64 135 137c0 95 -73 143 -155 183
c-104 51 -209 101 -209 231c0 138 111 191 231 191c59 0 116 -12 163 -29zM216 -244l-3 5c35 24 56 57 56 85c0 16 -24 46 -42 65v1l75 50c24 -16 42 -44 42 -70c0 -56 -73 -111 -128 -136z" />
    <glyph glyph-name="Tcaron" unicode="&#x164;" horiz-adv-x="715" 
d="M455 2v-2h-195v2c32 62 40 97 40 179v534l-109 -4c-44 -2 -117 -116 -169 -188l-8 3l38 206h611l38 -206l-8 -3c-52 72 -125 186 -169 188l-109 4v-534c0 -83 7 -117 40 -179zM360 782h-6l-153 153l9 10l147 -76l147 76l9 -10z" />
    <glyph glyph-name="Tcommaaccent" unicode="&#x162;" horiz-adv-x="715" 
d="M455 2v-2h-195v2c32 62 40 97 40 179v534l-109 -4c-44 -2 -117 -116 -169 -188l-8 3l38 206h611l38 -206l-8 -3c-52 72 -125 186 -169 188l-109 4v-534c0 -83 7 -117 40 -179zM284 -244l-3 5c35 24 56 57 56 85c0 16 -24 46 -42 65v1l75 50c24 -16 42 -44 42 -70
c0 -56 -73 -111 -128 -136z" />
    <glyph glyph-name="uni021A" unicode="&#x21a;" horiz-adv-x="715" 
d="M455 2v-2h-195v2c32 62 40 97 40 179v534l-109 -4c-44 -2 -117 -116 -169 -188l-8 3l38 206h611l38 -206l-8 -3c-52 72 -125 186 -169 188l-109 4v-534c0 -83 7 -117 40 -179zM284 -244l-3 5c35 24 56 57 56 85c0 16 -24 46 -42 65v1l75 50c24 -16 42 -44 42 -70
c0 -56 -73 -111 -128 -136z" />
    <glyph glyph-name="Tbar" unicode="&#x166;" horiz-adv-x="715" 
d="M130 357v20h170v338l-109 -4c-44 -2 -117 -116 -169 -188l-8 3l38 206h611l38 -206l-8 -3c-52 72 -125 186 -169 188l-109 4v-338h170v-20h-170v-176c0 -83 7 -117 40 -179v-2h-195v2c32 62 40 97 40 179v176h-170z" />
    <glyph glyph-name="Ubreve" unicode="&#x16c;" horiz-adv-x="696" 
d="M358 -15c-148 0 -273 73 -273 253v313c0 83 -7 117 -40 179v2h195v-2c-27 -51 -40 -96 -40 -179v-310c0 -171 75 -231 186 -231c149 0 202 114 202 240v283c0 90 -13 127 -72 197v2h162l5 -2c-58 -70 -72 -107 -72 -197v-282c0 -143 -62 -266 -253 -266zM396 859
c67 0 110 33 126 85h10c0 -57 -32 -150 -136 -150s-135 93 -135 150h10c16 -52 58 -85 125 -85z" />
    <glyph glyph-name="Uhungarumlaut" unicode="&#x170;" horiz-adv-x="696" 
d="M358 -15c-148 0 -273 73 -273 253v313c0 83 -7 117 -40 179v2h195v-2c-27 -51 -40 -96 -40 -179v-310c0 -171 75 -231 186 -231c149 0 202 114 202 240v283c0 90 -13 127 -72 197v2h162l5 -2c-58 -70 -72 -107 -72 -197v-282c0 -143 -62 -266 -253 -266zM432 792l131 157
l58 -77l-180 -90zM242 792l131 157l58 -77l-180 -90z" />
    <glyph glyph-name="Umacron" unicode="&#x16a;" horiz-adv-x="696" 
d="M358 -15c-148 0 -273 73 -273 253v313c0 83 -7 117 -40 179v2h195v-2c-27 -51 -40 -96 -40 -179v-310c0 -171 75 -231 186 -231c149 0 202 114 202 240v283c0 90 -13 127 -72 197v2h162l5 -2c-58 -70 -72 -107 -72 -197v-282c0 -143 -62 -266 -253 -266zM230 833v50h313
v-50h-313z" />
    <glyph glyph-name="Uogonek" unicode="&#x172;" horiz-adv-x="696" 
d="M374 -248c-55 0 -92 35 -92 84c0 56 53 109 127 152c-15 -2 -33 -3 -51 -3c-148 0 -273 73 -273 253v313c0 83 -7 117 -40 179v2h195v-2c-27 -51 -40 -96 -40 -179v-310c0 -171 75 -231 186 -231c149 0 202 114 202 240v283c0 90 -13 127 -72 197v2h162l5 -2
c-58 -70 -72 -107 -72 -197v-282c0 -105 -32 -199 -133 -245c-30 -14 -55 -28 -74 -44c-28 -25 -43 -53 -43 -88c0 -39 19 -59 55 -59c29 0 54 12 82 45l9 -7c-24 -45 -62 -101 -133 -101z" />
    <glyph glyph-name="Uring" unicode="&#x16e;" horiz-adv-x="696" 
d="M358 -15c-148 0 -273 73 -273 253v313c0 83 -7 117 -40 179v2h195v-2c-27 -51 -40 -96 -40 -179v-310c0 -171 75 -231 186 -231c149 0 202 114 202 240v283c0 90 -13 127 -72 197v2h162l5 -2c-58 -70 -72 -107 -72 -197v-282c0 -143 -62 -266 -253 -266zM296 857
c0 50 39 86 90 86s90 -35 90 -86c0 -50 -40 -85 -90 -85s-90 35 -90 85zM335 857c0 -41 19 -66 51 -66s51 25 51 66s-19 68 -51 68s-51 -27 -51 -68z" />
    <glyph glyph-name="Utilde" unicode="&#x168;" horiz-adv-x="696" 
d="M358 -15c-148 0 -273 73 -273 253v313c0 83 -7 117 -40 179v2h195v-2c-27 -51 -40 -96 -40 -179v-310c0 -171 75 -231 186 -231c149 0 202 114 202 240v283c0 90 -13 127 -72 197v2h162l5 -2c-58 -70 -72 -107 -72 -197v-282c0 -143 -62 -266 -253 -266zM308 905
c61 0 109 -40 172 -40c34 0 52 12 66 54l10 -2c-3 -55 -11 -126 -92 -126c-61 0 -109 40 -172 40c-34 0 -52 -12 -66 -54l-10 2c3 55 11 126 92 126z" />
    <glyph glyph-name="Wacute" unicode="&#x1e82;" horiz-adv-x="995" 
d="M296 -8h-20l-188 577c-28 87 -50 125 -85 161v2h209v-2c-18 -30 -26 -92 -2 -166l129 -405l155 389l-8 21c-31 87 -50 125 -85 161v2h209v-2c-17 -28 -28 -92 -2 -166l140 -397l114 348c38 116 19 182 -2 215v2h132v-2c-47 -50 -70 -97 -98 -182l-181 -556h-20l-189 527z
M399 792l195 167l52 -86l-241 -91z" />
    <glyph glyph-name="Wcircumflex" unicode="&#x174;" horiz-adv-x="995" 
d="M296 -8h-20l-188 577c-28 87 -50 125 -85 161v2h209v-2c-18 -30 -26 -92 -2 -166l129 -405l155 389l-8 21c-31 87 -50 125 -85 161v2h209v-2c-17 -28 -28 -92 -2 -166l140 -397l114 348c38 116 19 182 -2 215v2h132v-2c-47 -50 -70 -97 -98 -182l-181 -556h-20l-189 527z
M664 782l-147 76l-147 -76l-9 10l153 153h6l153 -153z" />
    <glyph glyph-name="Wdieresis" unicode="&#x1e84;" horiz-adv-x="995" 
d="M296 -8h-20l-188 577c-28 87 -50 125 -85 161v2h209v-2c-18 -30 -26 -92 -2 -166l129 -405l155 389l-8 21c-31 87 -50 125 -85 161v2h209v-2c-17 -28 -28 -92 -2 -166l140 -397l114 348c38 116 19 182 -2 215v2h132v-2c-47 -50 -70 -97 -98 -182l-181 -556h-20l-189 527z
M697 868c0 -33 -27 -60 -60 -60s-60 27 -60 60s27 61 60 61s60 -28 60 -61zM457 868c0 -33 -27 -60 -60 -60s-60 27 -60 60s27 61 60 61s60 -28 60 -61z" />
    <glyph glyph-name="Wgrave" unicode="&#x1e80;" horiz-adv-x="995" 
d="M296 -8h-20l-188 577c-28 87 -50 125 -85 161v2h209v-2c-18 -30 -26 -92 -2 -166l129 -405l155 389l-8 21c-31 87 -50 125 -85 161v2h209v-2c-17 -28 -28 -92 -2 -166l140 -397l114 348c38 116 19 182 -2 215v2h132v-2c-47 -50 -70 -97 -98 -182l-181 -556h-20l-189 527z
M610 792l-6 -10l-245 91l51 86z" />
    <glyph glyph-name="Ycircumflex" unicode="&#x176;" horiz-adv-x="601" 
d="M202 0v2c32 52 40 81 40 149v182l-145 259c-38 67 -70 109 -110 138v2h227v-2c-27 -21 -22 -77 5 -126l131 -241l99 173c56 98 36 163 16 194v2h149v-2c-54 -51 -79 -88 -128 -172l-129 -224v-183c0 -69 7 -97 40 -149v-2h-195zM492 782l-147 76l-147 -76l-9 10l153 153
h6l153 -153z" />
    <glyph glyph-name="Ygrave" unicode="&#x1ef2;" horiz-adv-x="601" 
d="M202 0v2c32 52 40 81 40 149v182l-145 259c-38 67 -70 109 -110 138v2h227v-2c-27 -21 -22 -77 5 -126l131 -241l99 173c56 98 36 163 16 194v2h149v-2c-54 -51 -79 -88 -128 -172l-129 -224v-183c0 -69 7 -97 40 -149v-2h-195zM428 792l-6 -10l-245 91l51 86z" />
    <glyph glyph-name="Zacute" unicode="&#x179;" horiz-adv-x="623" 
d="M559 0h-539v11l439 705l-130 -4c-148 -5 -224 -95 -278 -175l-8 3l47 192h504v-11l-438 -706l160 5c149 5 227 99 284 191l8 -3zM246 792l195 167l52 -86l-241 -91z" />
    <glyph glyph-name="Zdotaccent" unicode="&#x17b;" horiz-adv-x="623" 
d="M559 0h-539v11l439 705l-130 -4c-148 -5 -224 -95 -278 -175l-8 3l47 192h504v-11l-438 -706l160 5c149 5 227 99 284 191l8 -3zM394 868c0 -33 -27 -60 -60 -60s-60 27 -60 60s27 61 60 61s60 -28 60 -61z" />
    <glyph glyph-name="abreve" unicode="&#x103;" horiz-adv-x="472" 
d="M195 39c34 0 65 13 82 29v152c-79 -18 -155 -51 -155 -117c0 -39 26 -64 73 -64zM362 -12c-50 0 -76 29 -83 63c-31 -35 -81 -66 -144 -66c-59 0 -107 28 -107 85c0 101 144 150 249 167v109c0 52 -21 86 -92 86c-38 0 -90 -10 -133 -45l-5 6c41 58 112 99 199 99
c101 0 131 -57 131 -119v-285c0 -25 10 -44 39 -44c15 0 31 5 49 19l2 -2c-15 -32 -45 -73 -105 -73zM216 632c57 0 92 28 104 72h10c-1 -51 -26 -133 -116 -133s-111 82 -112 133h10c12 -44 47 -72 104 -72z" />
    <glyph glyph-name="amacron" unicode="&#x101;" horiz-adv-x="472" 
d="M195 39c34 0 65 13 82 29v152c-79 -18 -155 -51 -155 -117c0 -39 26 -64 73 -64zM362 -12c-50 0 -76 29 -83 63c-31 -35 -81 -66 -144 -66c-59 0 -107 28 -107 85c0 101 144 150 249 167v109c0 52 -21 86 -92 86c-38 0 -90 -10 -133 -45l-5 6c41 58 112 99 199 99
c101 0 131 -57 131 -119v-285c0 -25 10 -44 39 -44c15 0 31 5 49 19l2 -2c-15 -32 -45 -73 -105 -73zM75 595v50h283v-50h-283z" />
    <glyph glyph-name="aogonek" unicode="&#x105;" horiz-adv-x="472" 
d="M333 -248c-55 0 -92 35 -92 84c0 56 47 99 115 152c-46 2 -70 30 -77 63c-31 -35 -81 -66 -144 -66c-59 0 -107 28 -107 85c0 101 144 150 249 167v109c0 52 -21 86 -92 86c-38 0 -90 -10 -133 -45l-5 6c41 58 112 99 199 99c101 0 131 -57 131 -119v-285
c0 -25 10 -44 39 -44c15 0 31 5 49 19l2 -2c-7 -16 -16 -34 -44 -55c-21 -15 -42 -21 -62 -38c-23 -19 -41 -49 -41 -90s19 -63 55 -63c29 0 54 12 82 45l9 -7c-24 -45 -62 -101 -133 -101zM195 39c34 0 65 13 82 29v152c-79 -18 -155 -51 -155 -117c0 -39 26 -64 73 -64z
" />
    <glyph glyph-name="aringacute" unicode="&#x1fb;" horiz-adv-x="472" 
d="M195 39c34 0 65 13 82 29v152c-79 -18 -155 -51 -155 -117c0 -39 26 -64 73 -64zM362 -12c-50 0 -76 29 -83 63c-31 -35 -81 -66 -144 -66c-59 0 -107 28 -107 85c0 101 144 150 249 167v109c0 52 -21 86 -92 86c-38 0 -90 -10 -133 -45l-5 6c41 58 112 99 199 99
c101 0 131 -57 131 -119v-285c0 -25 10 -44 39 -44c15 0 31 5 49 19l2 -2c-15 -32 -45 -73 -105 -73zM126 653c0 50 39 86 90 86s90 -35 90 -86c0 -50 -40 -85 -90 -85s-90 35 -90 85zM165 653c0 -41 19 -66 51 -66s51 25 51 66s-19 68 -51 68s-51 -27 -51 -68zM128 772
l195 167l52 -86l-241 -91z" />
    <glyph glyph-name="aeacute" unicode="&#x1fd;" horiz-adv-x="714" 
d="M500 -15c-86 0 -152 38 -189 103c-34 -59 -90 -103 -171 -103c-64 0 -112 28 -112 85c0 101 144 150 249 167v109c0 52 -21 86 -92 86c-38 0 -90 -10 -133 -45l-5 6c41 58 112 99 199 99c64 0 98 -26 113 -61c40 39 90 61 142 61c116 0 188 -107 182 -195h-307
c-1 -10 -1 -20 -1 -30c0 -128 71 -197 177 -197c44 0 99 12 131 46l6 -4c-25 -76 -88 -127 -189 -127zM500 474c-64 0 -111 -65 -122 -161l203 5v11c0 99 -27 145 -81 145zM195 39c47 0 86 24 109 60c-17 34 -26 75 -27 121c-79 -18 -155 -51 -155 -117c0 -39 26 -64 73 -64
zM305 550l133 199l73 -71l-198 -136z" />
    <glyph glyph-name="cacute" unicode="&#x107;" horiz-adv-x="465" 
d="M430 116l6 -4c-26 -76 -88 -127 -187 -127c-136 0 -224 97 -224 245c0 152 122 262 253 262c69 0 109 -15 132 -26l13 -111l-9 -2c-27 48 -96 121 -151 121c-85 0 -140 -79 -140 -202c0 -131 69 -202 174 -202c48 0 101 13 133 46zM180 550l133 199l73 -71l-198 -136z
" />
    <glyph glyph-name="ccaron" unicode="&#x10d;" horiz-adv-x="465" 
d="M430 116l6 -4c-26 -76 -88 -127 -187 -127c-136 0 -224 97 -224 245c0 152 122 262 253 262c69 0 109 -15 132 -26l13 -111l-9 -2c-27 48 -96 121 -151 121c-85 0 -140 -79 -140 -202c0 -131 69 -202 174 -202c48 0 101 13 133 46zM244 540l-137 169l9 10l131 -87l131 87
l9 -10l-137 -169h-6z" />
    <glyph glyph-name="ccircumflex" unicode="&#x109;" horiz-adv-x="465" 
d="M430 116l6 -4c-26 -76 -88 -127 -187 -127c-136 0 -224 97 -224 245c0 152 122 262 253 262c69 0 109 -15 132 -26l13 -111l-9 -2c-27 48 -96 121 -151 121c-85 0 -140 -79 -140 -202c0 -131 69 -202 174 -202c48 0 101 13 133 46zM378 540l-131 87l-131 -87l-9 10
l137 169h6l137 -169z" />
    <glyph glyph-name="cdotaccent" unicode="&#x10b;" horiz-adv-x="465" 
d="M430 116l6 -4c-26 -76 -88 -127 -187 -127c-136 0 -224 97 -224 245c0 152 122 262 253 262c69 0 109 -15 132 -26l13 -111l-9 -2c-27 48 -96 121 -151 121c-85 0 -140 -79 -140 -202c0 -131 69 -202 174 -202c48 0 101 13 133 46zM307 658c0 -33 -27 -60 -60 -60
s-60 27 -60 60s27 61 60 61s60 -28 60 -61z" />
    <glyph glyph-name="dcaron" unicode="&#x10f;" horiz-adv-x="567" 
d="M274 52c52 0 91 22 118 54v257c-18 85 -68 111 -114 111c-88 0 -143 -93 -143 -223c0 -120 46 -199 139 -199zM396 86h-3c-30 -52 -88 -101 -171 -101c-117 0 -192 98 -192 232c0 145 90 275 261 275c39 0 73 -7 101 -18v119c0 66 -21 104 -45 130v2l145 53v-565
c0 -137 12 -161 46 -191v-2l-142 -32v98zM536 574l23 201h90l-103 -203z" />
    <glyph glyph-name="ebreve" unicode="&#x115;" horiz-adv-x="473" 
d="M448 133c-26 -82 -94 -148 -198 -148c-134 0 -225 106 -225 245c0 161 121 262 231 262c117 0 197 -107 191 -195h-321v-19c0 -141 70 -208 175 -208c61 0 107 24 141 67zM252 474c-76 0 -116 -70 -124 -161l217 5v11c0 99 -31 145 -93 145zM242 632c57 0 92 28 104 72
h10c-1 -51 -26 -133 -116 -133s-111 82 -112 133h10c12 -44 47 -72 104 -72z" />
    <glyph glyph-name="ecaron" unicode="&#x11b;" horiz-adv-x="473" 
d="M448 133c-26 -82 -94 -148 -198 -148c-134 0 -225 106 -225 245c0 161 121 262 231 262c117 0 197 -107 191 -195h-321v-19c0 -141 70 -208 175 -208c61 0 107 24 141 67zM252 474c-76 0 -116 -70 -124 -161l217 5v11c0 99 -31 145 -93 145zM239 540l-137 169l9 10
l131 -87l131 87l9 -10l-137 -169h-6z" />
    <glyph glyph-name="edotaccent" unicode="&#x117;" horiz-adv-x="473" 
d="M448 133c-26 -82 -94 -148 -198 -148c-134 0 -225 106 -225 245c0 161 121 262 231 262c117 0 197 -107 191 -195h-321v-19c0 -141 70 -208 175 -208c61 0 107 24 141 67zM252 474c-76 0 -116 -70 -124 -161l217 5v11c0 99 -31 145 -93 145zM302 658
c0 -33 -27 -60 -60 -60s-60 27 -60 60s27 61 60 61s60 -28 60 -61z" />
    <glyph glyph-name="emacron" unicode="&#x113;" horiz-adv-x="473" 
d="M448 133c-26 -82 -94 -148 -198 -148c-134 0 -225 106 -225 245c0 161 121 262 231 262c117 0 197 -107 191 -195h-321v-19c0 -141 70 -208 175 -208c61 0 107 24 141 67zM252 474c-76 0 -116 -70 -124 -161l217 5v11c0 99 -31 145 -93 145zM101 595v50h283v-50h-283z
" />
    <glyph glyph-name="eogonek" unicode="&#x119;" horiz-adv-x="473" 
d="M250 474c-66 0 -113 -65 -124 -160l209 4v11c0 99 -29 145 -85 145zM388 -147c-24 -45 -62 -101 -133 -101c-55 0 -91 33 -91 85c0 62 51 108 119 149c-4 -1 -28 -1 -32 -1c-140 0 -226 95 -226 243c0 163 111 264 226 264c120 0 192 -107 186 -195h-313
c-1 -10 -1 -20 -1 -30c0 -128 71 -197 178 -197c45 0 102 12 136 46l6 -4c-13 -37 -33 -66 -67 -92c-25 -18 -43 -25 -61 -36c-42 -24 -73 -60 -73 -108c0 -38 19 -61 57 -61c27 0 52 12 80 45z" />
    <glyph glyph-name="gbreve" unicode="&#x11f;" horiz-adv-x="520" 
d="M236 169c65 0 90 65 90 152c0 88 -24 153 -91 153s-89 -65 -89 -153c0 -87 25 -152 90 -152zM492 -66c-3 -85 -93 -159 -265 -159c-126 0 -219 42 -219 114c0 51 47 81 95 93c-34 13 -57 37 -57 78c0 62 52 95 105 109c-62 28 -105 85 -105 152c0 97 84 171 189 171
c52 0 100 -19 134 -50l127 74l2 -1v-89h-4l-111 2c27 -29 43 -66 43 -107c0 -93 -85 -170 -190 -170c-26 0 -50 5 -72 13c-33 -16 -44 -36 -44 -55c0 -37 39 -47 100 -49l100 -3c92 -3 175 -40 172 -123zM268 -190c111 0 167 36 167 85s-55 64 -122 66l-108 4
c-31 1 -61 4 -87 12c-13 -12 -25 -32 -25 -61c0 -67 62 -106 175 -106zM244 632c57 0 92 28 104 72h10c-1 -51 -26 -133 -116 -133s-111 82 -112 133h10c12 -44 47 -72 104 -72z" />
    <glyph glyph-name="gcircumflex" unicode="&#x11d;" horiz-adv-x="520" 
d="M236 169c65 0 90 65 90 152c0 88 -24 153 -91 153s-89 -65 -89 -153c0 -87 25 -152 90 -152zM492 -66c-3 -85 -93 -159 -265 -159c-126 0 -219 42 -219 114c0 51 47 81 95 93c-34 13 -57 37 -57 78c0 62 52 95 105 109c-62 28 -105 85 -105 152c0 97 84 171 189 171
c52 0 100 -19 134 -50l127 74l2 -1v-89h-4l-111 2c27 -29 43 -66 43 -107c0 -93 -85 -170 -190 -170c-26 0 -50 5 -72 13c-33 -16 -44 -36 -44 -55c0 -37 39 -47 100 -49l100 -3c92 -3 175 -40 172 -123zM268 -190c111 0 167 36 167 85s-55 64 -122 66l-108 4
c-31 1 -61 4 -87 12c-13 -12 -25 -32 -25 -61c0 -67 62 -106 175 -106zM374 540l-131 87l-131 -87l-9 10l137 169h6l137 -169z" />
    <glyph glyph-name="uni0123" unicode="&#x123;" horiz-adv-x="520" 
d="M236 169c65 0 90 65 90 152c0 88 -24 153 -91 153s-89 -65 -89 -153c0 -87 25 -152 90 -152zM492 -66c-3 -85 -93 -159 -265 -159c-126 0 -219 42 -219 114c0 51 47 81 95 93c-34 13 -57 37 -57 78c0 62 52 95 105 109c-62 28 -105 85 -105 152c0 97 84 171 189 171
c52 0 100 -19 134 -50l127 74l2 -1v-89h-4l-111 2c27 -29 43 -66 43 -107c0 -93 -85 -170 -190 -170c-26 0 -50 5 -72 13c-33 -16 -44 -36 -44 -55c0 -37 39 -47 100 -49l100 -3c92 -3 175 -40 172 -123zM268 -190c111 0 167 36 167 85s-55 64 -122 66l-108 4
c-31 1 -61 4 -87 12c-13 -12 -25 -32 -25 -61c0 -67 62 -106 175 -106zM327 794l3 -5c-35 -24 -56 -57 -56 -85c0 -16 24 -46 42 -65v-1l-75 -50c-24 16 -42 44 -42 70c0 56 73 111 128 136z" />
    <glyph glyph-name="gdotaccent" unicode="&#x121;" horiz-adv-x="520" 
d="M236 169c65 0 90 65 90 152c0 88 -24 153 -91 153s-89 -65 -89 -153c0 -87 25 -152 90 -152zM492 -66c-3 -85 -93 -159 -265 -159c-126 0 -219 42 -219 114c0 51 47 81 95 93c-34 13 -57 37 -57 78c0 62 52 95 105 109c-62 28 -105 85 -105 152c0 97 84 171 189 171
c52 0 100 -19 134 -50l127 74l2 -1v-89h-4l-111 2c27 -29 43 -66 43 -107c0 -93 -85 -170 -190 -170c-26 0 -50 5 -72 13c-33 -16 -44 -36 -44 -55c0 -37 39 -47 100 -49l100 -3c92 -3 175 -40 172 -123zM268 -190c111 0 167 36 167 85s-55 64 -122 66l-108 4
c-31 1 -61 4 -87 12c-13 -12 -25 -32 -25 -61c0 -67 62 -106 175 -106zM304 658c0 -33 -27 -60 -60 -60s-60 27 -60 60s27 61 60 61s60 -28 60 -61z" />
    <glyph glyph-name="hbar" unicode="&#x127;" horiz-adv-x="542" 
d="M193 0h-145v2c18 55 22 104 22 192v385h-60v20h60c-1 62 -22 98 -45 125v2l145 52v-179h172v-20h-172v-179c43 52 91 92 161 92c91 0 142 -56 142 -145v-153c0 -89 2 -137 22 -192v-2h-145v2c19 55 23 109 23 192v130c0 57 -26 107 -92 107c-43 0 -81 -19 -111 -51v-186
c0 -86 3 -137 23 -192v-2z" />
    <glyph glyph-name="hcircumflex" unicode="&#x125;" horiz-adv-x="542" 
d="M193 0h-145v2c18 55 22 104 22 192v400c0 65 -21 103 -45 130v2l145 52v-378c43 52 91 92 161 92c91 0 142 -56 142 -145v-153c0 -89 2 -137 22 -192v-2h-145v2c19 55 23 109 23 192v130c0 57 -26 107 -92 107c-43 0 -81 -19 -111 -51v-186c0 -86 3 -137 23 -192v-2z
M418 802l-147 76l-147 -76l-9 10l153 153h6l153 -153z" />
    <glyph glyph-name="ibreve" unicode="&#x12d;" horiz-adv-x="242" 
d="M51 0v2c14 55 23 105 23 192v114c0 64 -21 102 -45 129v7l145 53v-302c0 -86 2 -138 22 -193v-2h-145zM123 632c57 0 92 28 104 72h10c-1 -51 -26 -133 -116 -133s-111 82 -112 133h10c12 -44 47 -72 104 -72z" />
    <glyph glyph-name="idotaccent" horiz-adv-x="242" 
d="M179 658c0 -33 -27 -60 -60 -60s-60 27 -60 60s27 61 60 61s60 -28 60 -61zM51 0v2c14 55 23 105 23 192v114c0 64 -21 102 -45 129v7l145 53v-302c0 -86 2 -138 22 -193v-2h-145z" />
    <glyph glyph-name="imacron" unicode="&#x12b;" horiz-adv-x="242" 
d="M7 595v50h213v-50h-213zM51 0v2c14 55 23 105 23 192v114c0 64 -21 102 -45 129v7l145 53v-302c0 -86 2 -138 22 -193v-2h-145z" />
    <glyph glyph-name="iogonek" unicode="&#x12f;" horiz-adv-x="242" 
d="M51 0v2c14 55 23 105 23 192v114c0 64 -21 102 -45 129v7l145 53v-302c0 -86 2 -138 22 -193v-2h-25c-68 -56 -81 -93 -81 -126c0 -36 19 -59 55 -59c29 0 54 12 82 45l9 -7c-24 -45 -62 -101 -133 -101c-55 0 -92 35 -92 84c0 61 54 106 130 164h-90zM179 658
c0 -33 -27 -60 -60 -60s-60 27 -60 60s27 61 60 61s60 -28 60 -61z" />
    <glyph glyph-name="itilde" unicode="&#x129;" horiz-adv-x="242" 
d="M51 0v2c14 55 23 105 23 192v114c0 64 -21 102 -45 129v7l145 53v-302c0 -86 2 -138 22 -193v-2h-145zM48 680c43 0 98 -31 146 -31c31 0 49 12 59 43l10 -1c-3 -39 -18 -116 -84 -116c-43 0 -99 32 -148 32c-30 0 -48 -12 -57 -43l-11 1c3 39 18 115 85 115z" />
    <glyph glyph-name="jcircumflex" unicode="&#x135;" horiz-adv-x="245" 
d="M11 -243l-2 6c44 27 65 70 65 141v404c0 64 -21 102 -45 129v7l145 53l-2 -523c0 -137 -74 -206 -161 -217zM253 540l-131 87l-131 -87l-9 10l137 169h6l137 -169z" />
    <glyph glyph-name="uni0137" unicode="&#x137;" horiz-adv-x="479" 
d="M48 0v2c13 28 22 62 22 137v455c0 65 -21 103 -45 129v2l145 53v-638c0 -75 10 -111 24 -138v-2h-146zM489 0h-139l-172 248l115 125c32 34 44 77 28 102v2h130v-2c-60 -27 -103 -70 -144 -114l-52 -57l147 -212c30 -43 52 -71 87 -90v-2zM186 -244l-3 5
c35 24 56 57 56 85c0 16 -24 46 -42 65v1l75 50c24 -16 42 -44 42 -70c0 -56 -73 -111 -128 -136z" />
    <glyph glyph-name="lacute" unicode="&#x13a;" horiz-adv-x="238" 
d="M47 0v2c13 28 22 62 22 137v455c0 65 -21 103 -45 129v2l145 53v-638c0 -75 9 -111 23 -138v-2h-145zM32 792l195 167l52 -86l-241 -91z" />
    <glyph glyph-name="lcaron" unicode="&#x13e;" horiz-adv-x="238" 
d="M47 0v2c13 28 22 62 22 137v455c0 65 -21 103 -45 129v2l145 53v-638c0 -75 9 -111 23 -138v-2h-145zM213 574l23 201h90l-103 -203z" />
    <glyph glyph-name="uni013C" unicode="&#x13c;" horiz-adv-x="238" 
d="M47 0v2c13 28 22 62 22 137v455c0 65 -21 103 -45 129v2l145 53v-638c0 -75 9 -111 23 -138v-2h-145zM47 -244l-3 5c35 24 56 57 56 85c0 16 -24 46 -42 65v1l75 50c24 -16 42 -44 42 -70c0 -56 -73 -111 -128 -136z" />
    <glyph glyph-name="ldot" unicode="&#x140;" horiz-adv-x="329" 
d="M47 0v2c13 28 22 62 22 137v455c0 65 -21 103 -45 129v2l145 53v-638c0 -75 9 -111 23 -138v-2h-145zM284 305c-37 0 -67 31 -67 67c0 38 30 68 67 68c36 0 67 -30 67 -68c0 -36 -31 -67 -67 -67z" />
    <glyph glyph-name="nacute" unicode="&#x144;" horiz-adv-x="545" 
d="M196 2v-2h-145v2c19 55 23 104 23 192v118c0 66 -21 103 -45 130v2l141 53v-96l4 -1c43 52 91 92 161 92c91 0 141 -56 141 -145v-152c0 -90 2 -138 23 -193v-2h-145v2c18 55 22 108 22 192v130c0 57 -25 107 -92 107c-42 0 -81 -19 -110 -50v-186c0 -87 2 -138 22 -193z
M206 550l133 199l73 -71l-198 -136z" />
    <glyph glyph-name="napostrophe" unicode="&#x149;" horiz-adv-x="545" 
d="M196 2v-2h-145v2c19 55 23 104 23 192v118c0 66 -21 103 -45 130v2l141 53v-96l4 -1c43 52 91 92 161 92c91 0 141 -56 141 -145v-152c0 -90 2 -138 23 -193v-2h-145v2c18 55 22 108 22 192v130c0 57 -25 107 -92 107c-42 0 -81 -19 -110 -50v-186c0 -87 2 -138 22 -193z
M-40 505l-5 6c32 30 52 68 52 102c0 21 -25 55 -45 77v2l79 63c26 -18 45 -50 45 -82c0 -69 -71 -135 -126 -168z" />
    <glyph glyph-name="ncaron" unicode="&#x148;" horiz-adv-x="545" 
d="M196 2v-2h-145v2c19 55 23 104 23 192v118c0 66 -21 103 -45 130v2l141 53v-96l4 -1c43 52 91 92 161 92c91 0 141 -56 141 -145v-152c0 -90 2 -138 23 -193v-2h-145v2c18 55 22 108 22 192v130c0 57 -25 107 -92 107c-42 0 -81 -19 -110 -50v-186c0 -87 2 -138 22 -193z
M270 540l-137 169l9 10l131 -87l131 87l9 -10l-137 -169h-6z" />
    <glyph glyph-name="uni0146" unicode="&#x146;" horiz-adv-x="545" 
d="M196 2v-2h-145v2c19 55 23 104 23 192v118c0 66 -21 103 -45 130v2l141 53v-96l4 -1c43 52 91 92 161 92c91 0 141 -56 141 -145v-152c0 -90 2 -138 23 -193v-2h-145v2c18 55 22 108 22 192v130c0 57 -25 107 -92 107c-42 0 -81 -19 -110 -50v-186c0 -87 2 -138 22 -193z
M210 -244l-3 5c35 24 56 57 56 85c0 16 -24 46 -42 65v1l75 50c24 -16 42 -44 42 -70c0 -56 -73 -111 -128 -136z" />
    <glyph glyph-name="obreve" unicode="&#x14f;" horiz-adv-x="563" 
d="M281 -15c-141 0 -257 118 -256 253c1 134 117 254 256 254c140 0 257 -120 257 -254c0 -135 -116 -253 -257 -253zM281 5c103 0 147 112 147 233c0 120 -45 234 -147 234s-146 -114 -146 -234c0 -121 43 -233 146 -233zM281 632c57 0 92 28 104 72h10
c-1 -51 -26 -133 -116 -133s-111 82 -112 133h10c12 -44 47 -72 104 -72z" />
    <glyph glyph-name="ohungarumlaut" unicode="&#x151;" horiz-adv-x="563" 
d="M281 -15c-141 0 -257 118 -256 253c1 134 117 254 256 254c140 0 257 -120 257 -254c0 -135 -116 -253 -257 -253zM281 5c103 0 147 112 147 233c0 120 -45 234 -147 234s-146 -114 -146 -234c0 -121 43 -233 146 -233zM322 552l119 177l59 -64l-169 -123zM162 552
l119 177l59 -64l-169 -123z" />
    <glyph glyph-name="omacron" unicode="&#x14d;" horiz-adv-x="563" 
d="M281 -15c-141 0 -257 118 -256 253c1 134 117 254 256 254c140 0 257 -120 257 -254c0 -135 -116 -253 -257 -253zM281 5c103 0 147 112 147 233c0 120 -45 234 -147 234s-146 -114 -146 -234c0 -121 43 -233 146 -233zM140 595v50h283v-50h-283z" />
    <glyph glyph-name="oslashacute" unicode="&#x1ff;" horiz-adv-x="563" 
d="M281 -15c-49 0 -96 14 -135 38l-62 -90h-27l71 103c-63 47 -104 121 -103 202c1 134 117 254 256 254c49 0 94 -15 134 -40l63 92h27l-72 -104c63 -48 105 -122 105 -202c0 -135 -116 -253 -257 -253zM281 5c103 0 147 112 147 233c0 55 -10 109 -30 151l-223 -323
c24 -38 58 -61 106 -61zM135 238c0 -56 9 -109 28 -151l223 323c-24 38 -59 62 -105 62c-102 0 -146 -114 -146 -234zM214 550l133 199l73 -71l-198 -136z" />
    <glyph glyph-name="racute" unicode="&#x155;" horiz-adv-x="356" 
d="M196 0h-145v2c19 55 23 104 23 192v118c0 66 -21 103 -45 130v2l141 53v-122h4c40 47 94 118 159 117l-2 -122h-4c-19 15 -67 30 -89 30c-16 0 -42 -15 -64 -45v-160c0 -87 2 -138 22 -193v-2zM135 550l133 199l73 -71l-198 -136z" />
    <glyph glyph-name="rcaron" unicode="&#x159;" horiz-adv-x="356" 
d="M196 0h-145v2c19 55 23 104 23 192v118c0 66 -21 103 -45 130v2l141 53v-122h4c40 47 94 118 159 117l-2 -122h-4c-19 15 -67 30 -89 30c-16 0 -42 -15 -64 -45v-160c0 -87 2 -138 22 -193v-2zM209 540l-137 169l9 10l131 -87l131 87l9 -10l-137 -169h-6z" />
    <glyph glyph-name="uni0157" unicode="&#x157;" horiz-adv-x="356" 
d="M196 0h-145v2c19 55 23 104 23 192v118c0 66 -21 103 -45 130v2l141 53v-122h4c40 47 94 118 159 117l-2 -122h-4c-19 15 -67 30 -89 30c-16 0 -42 -15 -64 -45v-160c0 -87 2 -138 22 -193v-2zM47 -243l-3 5c35 24 56 57 56 85c0 16 -24 46 -42 65v1l75 50
c24 -16 42 -44 42 -70c0 -56 -73 -111 -128 -136z" />
    <glyph glyph-name="sacute" unicode="&#x15b;" horiz-adv-x="399" 
d="M336 472l10 -109l-6 -2c-51 87 -108 113 -155 113c-52 0 -82 -33 -82 -74c0 -58 63 -80 129 -108c70 -30 142 -67 142 -163c0 -99 -83 -144 -187 -144c-52 0 -105 11 -147 26l-10 128l6 2c50 -97 101 -138 164 -138c67 0 92 45 92 86c0 52 -39 76 -106 105
s-148 62 -148 162c0 102 86 136 174 136c48 0 97 -10 124 -20zM131 550l133 199l73 -71l-198 -136z" />
    <glyph glyph-name="uni015F" unicode="&#x15f;" horiz-adv-x="399" 
d="M114 -255l-3 9c37 15 82 42 82 83c0 43 -53 47 -75 49l-2 2l59 97c-48 2 -96 12 -135 26l-10 128l6 2c50 -97 101 -138 164 -138c67 0 92 45 92 86c0 52 -39 76 -106 105s-148 62 -148 162c0 102 86 136 174 136c48 0 97 -10 124 -20l10 -109l-6 -2
c-51 87 -108 113 -155 113c-52 0 -82 -33 -82 -74c0 -58 63 -80 129 -108c70 -30 142 -67 142 -163c0 -94 -75 -139 -171 -143l-29 -46c52 -11 88 -38 88 -83c0 -57 -58 -93 -148 -112z" />
    <glyph glyph-name="scircumflex" unicode="&#x15d;" horiz-adv-x="399" 
d="M336 472l10 -109l-6 -2c-51 87 -108 113 -155 113c-52 0 -82 -33 -82 -74c0 -58 63 -80 129 -108c70 -30 142 -67 142 -163c0 -99 -83 -144 -187 -144c-52 0 -105 11 -147 26l-10 128l6 2c50 -97 101 -138 164 -138c67 0 92 45 92 86c0 52 -39 76 -106 105
s-148 62 -148 162c0 102 86 136 174 136c48 0 97 -10 124 -20zM329 540l-131 87l-131 -87l-9 10l137 169h6l137 -169z" />
    <glyph glyph-name="uni0219" unicode="&#x219;" horiz-adv-x="399" 
d="M336 472l10 -109l-6 -2c-51 87 -108 113 -155 113c-52 0 -82 -33 -82 -74c0 -58 63 -80 129 -108c70 -30 142 -67 142 -163c0 -99 -83 -144 -187 -144c-52 0 -105 11 -147 26l-10 128l6 2c50 -97 101 -138 164 -138c67 0 92 45 92 86c0 52 -39 76 -106 105
s-148 62 -148 162c0 102 86 136 174 136c48 0 97 -10 124 -20zM125 -244l-3 5c35 24 56 57 56 85c0 16 -24 46 -42 65v1l75 50c24 -16 42 -44 42 -70c0 -56 -73 -111 -128 -136z" />
    <glyph glyph-name="tbar" unicode="&#x167;" horiz-adv-x="326" 
d="M184 -15c-59 0 -112 27 -112 121v202h-54v18h54v133h-54v6l145 125h10v-113h129v-18h-129v-133h130v-18h-130v-199c0 -48 22 -74 70 -74c35 0 61 14 66 17l3 -4c-28 -39 -72 -63 -128 -63z" />
    <glyph glyph-name="tcaron" unicode="&#x165;" horiz-adv-x="326" 
d="M184 -15c-59 0 -112 27 -112 121v353h-54v6l145 125h10v-113h129v-18h-129v-350c0 -48 22 -74 70 -74c35 0 61 14 66 17l3 -4c-28 -39 -72 -63 -128 -63zM247 574l23 201h90l-103 -203z" />
    <glyph glyph-name="tcommaaccent" unicode="&#x163;" horiz-adv-x="326" 
d="M184 -15c-59 0 -112 27 -112 121v353h-54v6l145 125h10v-113h129v-18h-129v-350c0 -48 22 -74 70 -74c35 0 61 14 66 17l3 -4c-28 -39 -72 -63 -128 -63zM97 -244l-3 5c35 24 56 57 56 85c0 16 -24 46 -42 65v1l75 50c24 -16 42 -44 42 -70c0 -56 -73 -111 -128 -136z
" />
    <glyph glyph-name="uni021B" unicode="&#x21b;" horiz-adv-x="326" 
d="M184 -15c-59 0 -112 27 -112 121v353h-54v6l145 125h10v-113h129v-18h-129v-350c0 -48 22 -74 70 -74c35 0 61 14 66 17l3 -4c-28 -39 -72 -63 -128 -63zM97 -244l-3 5c35 24 56 57 56 85c0 16 -24 46 -42 65v1l75 50c24 -16 42 -44 42 -70c0 -56 -73 -111 -128 -136z
" />
    <glyph glyph-name="ubreve" unicode="&#x16d;" horiz-adv-x="524" 
d="M349 -12v124c-34 -65 -80 -127 -161 -127c-85 0 -129 66 -129 170v213c0 51 -17 85 -42 107v2h142v-306c0 -70 32 -106 88 -106c48 0 78 27 97 63v240c0 50 -16 85 -44 107v2h144v-307c0 -106 13 -125 45 -148v-2zM253 632c57 0 92 28 104 72h10
c-1 -51 -26 -133 -116 -133s-111 82 -112 133h10c12 -44 47 -72 104 -72z" />
    <glyph glyph-name="uhungarumlaut" unicode="&#x171;" horiz-adv-x="524" 
d="M349 -12v124c-34 -65 -80 -127 -161 -127c-85 0 -129 66 -129 170v213c0 51 -17 85 -42 107v2h142v-306c0 -70 32 -106 88 -106c48 0 78 27 97 63v240c0 50 -16 85 -44 107v2h144v-307c0 -106 13 -125 45 -148v-2zM294 552l119 177l59 -64l-169 -123zM134 552l119 177
l59 -64l-169 -123z" />
    <glyph glyph-name="umacron" unicode="&#x16b;" horiz-adv-x="524" 
d="M349 -12v124c-34 -65 -80 -127 -161 -127c-85 0 -129 66 -129 170v213c0 51 -17 85 -42 107v2h142v-306c0 -70 32 -106 88 -106c48 0 78 27 97 63v240c0 50 -16 85 -44 107v2h144v-307c0 -106 13 -125 45 -148v-2zM112 595v50h283v-50h-283z" />
    <glyph glyph-name="uogonek" unicode="&#x173;" horiz-adv-x="524" 
d="M310 -248c-55 0 -92 33 -92 84c0 62 52 111 131 164v112c-34 -65 -80 -127 -161 -127c-85 0 -129 66 -129 170v213c0 51 -17 85 -42 107v2h142v-306c0 -70 32 -106 88 -106c48 0 78 27 97 63v240c0 50 -16 85 -44 107v2h144v-307c0 -106 13 -125 45 -148v-2
c-31 -6 -72 -13 -101 -26c-45 -20 -91 -66 -91 -121c0 -35 19 -58 57 -58c27 0 52 12 80 45l9 -7c-24 -45 -62 -101 -133 -101z" />
    <glyph glyph-name="uring" unicode="&#x16f;" horiz-adv-x="524" 
d="M349 -12v124c-34 -65 -80 -127 -161 -127c-85 0 -129 66 -129 170v213c0 51 -17 85 -42 107v2h142v-306c0 -70 32 -106 88 -106c48 0 78 27 97 63v240c0 50 -16 85 -44 107v2h144v-307c0 -106 13 -125 45 -148v-2zM163 653c0 50 39 86 90 86s90 -35 90 -86
c0 -50 -40 -85 -90 -85s-90 35 -90 85zM202 653c0 -41 19 -66 51 -66s51 25 51 66s-19 68 -51 68s-51 -27 -51 -68z" />
    <glyph glyph-name="utilde" unicode="&#x169;" horiz-adv-x="524" 
d="M349 -12v124c-34 -65 -80 -127 -161 -127c-85 0 -129 66 -129 170v213c0 51 -17 85 -42 107v2h142v-306c0 -70 32 -106 88 -106c48 0 78 27 97 63v240c0 50 -16 85 -44 107v2h144v-307c0 -106 13 -125 45 -148v-2zM188 680c43 0 98 -31 146 -31c31 0 49 12 59 43l10 -1
c-3 -39 -18 -116 -84 -116c-43 0 -99 32 -148 32c-30 0 -48 -12 -57 -43l-11 1c3 39 18 115 85 115z" />
    <glyph glyph-name="wacute" unicode="&#x1e83;" horiz-adv-x="668" 
d="M191 -10l-126 369c-22 65 -37 92 -60 116v2h171v-2c-10 -19 -18 -60 -2 -109l71 -217l74 204l-2 6c-23 67 -40 92 -63 116v2h170v-2c-10 -19 -18 -56 0 -109l72 -217l69 189c25 67 7 115 -6 137v2h104v-2c-34 -37 -52 -65 -73 -123l-130 -362h-16l-116 337l-121 -337h-16
zM281 550l133 199l73 -71l-198 -136z" />
    <glyph glyph-name="wcircumflex" unicode="&#x175;" horiz-adv-x="668" 
d="M191 -10l-126 369c-22 65 -37 92 -60 116v2h171v-2c-10 -19 -18 -60 -2 -109l71 -217l74 204l-2 6c-23 67 -40 92 -63 116v2h170v-2c-10 -19 -18 -56 0 -109l72 -217l69 189c25 67 7 115 -6 137v2h104v-2c-34 -37 -52 -65 -73 -123l-130 -362h-16l-116 337l-121 -337h-16
zM479 540l-131 87l-131 -87l-9 10l137 169h6l137 -169z" />
    <glyph glyph-name="wdieresis" unicode="&#x1e85;" horiz-adv-x="668" 
d="M191 -10l-126 369c-22 65 -37 92 -60 116v2h171v-2c-10 -19 -18 -60 -2 -109l71 -217l74 204l-2 6c-23 67 -40 92 -63 116v2h170v-2c-10 -19 -18 -56 0 -109l72 -217l69 189c25 67 7 115 -6 137v2h104v-2c-34 -37 -52 -65 -73 -123l-130 -362h-16l-116 337l-121 -337h-16
zM508 658c0 -33 -27 -60 -60 -60s-60 27 -60 60s27 61 60 61s60 -28 60 -61zM308 658c0 -33 -27 -60 -60 -60s-60 27 -60 60s27 61 60 61s60 -28 60 -61z" />
    <glyph glyph-name="wgrave" unicode="&#x1e81;" horiz-adv-x="668" 
d="M191 -10l-126 369c-22 65 -37 92 -60 116v2h171v-2c-10 -19 -18 -60 -2 -109l71 -217l74 204l-2 6c-23 67 -40 92 -63 116v2h170v-2c-10 -19 -18 -56 0 -109l72 -217l69 189c25 67 7 115 -6 137v2h104v-2c-34 -37 -52 -65 -73 -123l-130 -362h-16l-116 337l-121 -337h-16
zM415 540l-8 -8l-201 146l76 71z" />
    <glyph glyph-name="ycircumflex" unicode="&#x177;" horiz-adv-x="449" 
d="M41 -225l-2 96c35 -1 130 4 168 105l1 4l-142 378c-24 65 -39 92 -61 117v2h168v-2c-11 -19 -20 -64 4 -128l84 -225l85 227c20 54 2 104 -15 126v2h113v-2c-34 -37 -52 -65 -74 -123l-155 -401c-53 -137 -106 -168 -174 -176zM380 540l-131 87l-131 -87l-9 10l137 169h6
l137 -169z" />
    <glyph glyph-name="ygrave" unicode="&#x1ef3;" horiz-adv-x="449" 
d="M41 -225l-2 96c35 -1 130 4 168 105l1 4l-142 378c-24 65 -39 92 -61 117v2h168v-2c-11 -19 -20 -64 4 -128l84 -225l85 227c20 54 2 104 -15 126v2h113v-2c-34 -37 -52 -65 -74 -123l-155 -401c-53 -137 -106 -168 -174 -176zM323 540l-8 -8l-201 146l76 71z" />
    <glyph glyph-name="zacute" unicode="&#x17a;" horiz-adv-x="447" 
d="M392 0h-377v7l282 453l-120 -4c-50 -1 -102 -60 -142 -102l-5 2l33 121h353v-8l-280 -452l131 3c60 2 110 56 155 112l5 -2zM170 550l133 199l73 -71l-198 -136z" />
    <glyph glyph-name="zdotaccent" unicode="&#x17c;" horiz-adv-x="447" 
d="M392 0h-377v7l282 453l-120 -4c-50 -1 -102 -60 -142 -102l-5 2l33 121h353v-8l-280 -452l131 3c60 2 110 56 155 112l5 -2zM297 658c0 -33 -27 -60 -60 -60s-60 27 -60 60s27 61 60 61s60 -28 60 -61z" />
    <glyph glyph-name="space_uni0326" 
d="M78 -244l-3 5c35 24 56 57 56 85c0 16 -24 46 -42 65v1l75 50c24 -16 42 -44 42 -70c0 -56 -73 -111 -128 -136z" />
    <glyph glyph-name="oneeighth" unicode="&#x215b;" horiz-adv-x="661" 
d="M488 -8c-79 0 -140 39 -140 101c0 39 25 73 85 91c-52 30 -67 66 -67 100c0 64 52 109 128 109c72 0 126 -38 126 -89c0 -29 -17 -64 -76 -81c70 -36 94 -77 94 -119c0 -69 -65 -112 -150 -112zM183 354h-140v1c22 28 27 44 27 81v221h-47v6c47 21 91 47 128 84h6v-311
c0 -38 5 -53 26 -81v-1zM489 7c46 0 77 27 77 66c0 47 -40 68 -115 101l-6 3c-25 -21 -37 -50 -37 -82c0 -53 29 -88 81 -88zM55 1l-17 14l520 728l18 -12zM526 232l5 -2c23 20 29 48 29 72c0 48 -23 76 -64 76c-39 0 -62 -25 -62 -57c0 -37 28 -60 92 -89z" />
    <glyph glyph-name="onethird" unicode="&#x2153;" horiz-adv-x="689" 
d="M183 354h-140v1c22 28 27 44 27 81v221h-47v6c47 21 91 47 128 84h6v-311c0 -38 5 -53 26 -81v-1zM65 1l-17 14l520 728l18 -12zM510 -8c-42 0 -83 10 -106 23l-13 95l6 1c41 -61 64 -104 109 -104c47 0 72 45 72 110c0 69 -28 103 -76 103c-27 0 -49 -10 -66 -22l-6 7
l131 111h-153l20 68h233v-5l-173 -145c10 3 23 4 37 4c68 0 141 -37 141 -121c0 -77 -63 -125 -156 -125z" />
    <glyph glyph-name="threeeighths" unicode="&#x215c;" horiz-adv-x="722" 
d="M549 -8c-79 0 -140 39 -140 101c0 39 25 73 85 91c-52 30 -67 66 -67 100c0 64 52 109 128 109c72 0 126 -38 126 -89c0 -29 -17 -64 -76 -81c70 -36 94 -77 94 -119c0 -69 -65 -112 -150 -112zM142 346c-42 0 -83 10 -106 23l-13 95l6 1c41 -61 64 -104 109 -104
c47 0 72 45 72 110c0 69 -28 103 -76 103c-27 0 -49 -10 -66 -22l-6 7l131 111h-153l20 68h233v-5l-173 -145c10 3 23 4 37 4c68 0 141 -37 141 -121c0 -77 -63 -125 -156 -125zM550 7c46 0 77 27 77 66c0 47 -40 68 -115 101l-6 3c-25 -21 -37 -50 -37 -82
c0 -53 29 -88 81 -88zM116 1l-17 14l520 728l18 -12zM587 232l5 -2c23 20 29 48 29 72c0 48 -23 76 -64 76c-39 0 -62 -25 -62 -57c0 -37 28 -60 92 -89z" />
    <glyph glyph-name="fiveeighths" unicode="&#x215d;" horiz-adv-x="719" 
d="M546 -8c-79 0 -140 39 -140 101c0 39 25 73 85 91c-52 30 -67 66 -67 100c0 64 52 109 128 109c72 0 126 -38 126 -89c0 -29 -17 -64 -76 -81c70 -36 94 -77 94 -119c0 -69 -65 -112 -150 -112zM126 346c-41 0 -74 11 -93 22l-13 97l5 1c27 -57 59 -105 103 -105
c41 0 68 41 68 110c0 72 -28 110 -84 110c-21 0 -40 -5 -62 -19l-4 3l28 174h201l-13 -68h-182l-16 -89c21 11 45 16 71 16c71 0 146 -38 146 -125s-78 -127 -155 -127zM547 7c46 0 77 27 77 66c0 47 -40 68 -115 101l-6 3c-25 -21 -37 -50 -37 -82c0 -53 29 -88 81 -88z
M113 1l-17 14l520 728l18 -12zM584 232l5 -2c23 20 29 48 29 72c0 48 -23 76 -64 76c-39 0 -62 -25 -62 -57c0 -37 28 -60 92 -89z" />
    <glyph glyph-name="twothirds" unicode="&#x2154;" horiz-adv-x="750" 
d="M259 354h-249v6c135 127 178 202 178 281c0 57 -20 91 -55 91c-37 0 -71 -42 -100 -100l-5 1l13 97c19 7 49 17 95 17c96 0 139 -45 139 -104c0 -73 -66 -136 -188 -221h97c49 0 76 23 98 51l4 -1zM126 1l-17 14l520 728l18 -12zM571 -8c-42 0 -83 10 -106 23l-13 95l6 1
c41 -61 64 -104 109 -104c47 0 72 45 72 110c0 69 -28 103 -76 103c-27 0 -49 -10 -66 -22l-6 7l131 111h-153l20 68h233v-5l-173 -145c10 3 23 4 37 4c68 0 141 -37 141 -121c0 -77 -63 -125 -156 -125z" />
    <glyph glyph-name="seveneighths" unicode="&#x215e;" horiz-adv-x="651" 
d="M478 -8c-79 0 -140 39 -140 101c0 39 25 73 85 91c-52 30 -67 66 -67 100c0 64 52 109 128 109c72 0 126 -38 126 -89c0 -29 -17 -64 -76 -81c70 -36 94 -77 94 -119c0 -69 -65 -112 -150 -112zM143 354h-93c39 125 112 229 183 312h-208l14 73h250v-5
c-60 -99 -122 -226 -146 -380zM479 7c46 0 77 27 77 66c0 47 -40 68 -115 101l-6 3c-25 -21 -37 -50 -37 -82c0 -53 29 -88 81 -88zM45 1l-17 14l520 728l18 -12zM516 232l5 -2c23 20 29 48 29 72c0 48 -23 76 -64 76c-39 0 -62 -25 -62 -57c0 -37 28 -60 92 -89z" />
    <glyph glyph-name="uni24C5" unicode="&#x24c5;" horiz-adv-x="823" 
d="M30 366c0 212 171 380 381 380c211 0 382 -168 382 -380c0 -214 -172 -381 -382 -381s-381 167 -381 381zM57 366c0 -199 158 -359 354 -359s354 160 354 359s-158 358 -354 358s-354 -159 -354 -358zM284 153v3c18 34 22 52 22 97v204c0 45 -4 63 -22 97v2h141
c120 0 156 -52 156 -111c0 -73 -57 -127 -163 -127h-37v-65c0 -46 4 -63 22 -97v-3h-119zM416 539c-5 0 -13 0 -35 -1v-203h34c65 0 92 54 92 109c0 76 -41 95 -91 95z" />
    <glyph glyph-name="five.num" horiz-adv-x="296" 
d="M121 346c-41 0 -74 11 -93 22l-13 97l5 1c27 -57 59 -105 103 -105c41 0 68 41 68 110c0 72 -28 110 -84 110c-21 0 -40 -5 -62 -19l-4 3l28 174h201l-13 -68h-182l-16 -89c21 11 45 16 71 16c71 0 146 -38 146 -125s-78 -127 -155 -127z" />
    <glyph glyph-name="zero.num" horiz-adv-x="382" 
d="M189 346c-92 0 -167 87 -167 201c0 115 74 200 167 200c92 0 171 -85 171 -200c0 -114 -79 -201 -171 -201zM189 361c58 0 77 80 77 186s-19 185 -77 185s-73 -79 -73 -185s15 -186 73 -186z" />
    <glyph glyph-name="one.num" horiz-adv-x="208" 
d="M178 354h-140v1c22 28 27 44 27 81v221h-47v6c47 21 91 47 128 84h6v-311c0 -38 5 -53 26 -81v-1z" />
    <glyph glyph-name="two.num" horiz-adv-x="306" 
d="M254 354h-249v6c135 127 178 202 178 281c0 57 -20 91 -55 91c-37 0 -71 -42 -100 -100l-5 1l13 97c19 7 49 17 95 17c96 0 139 -45 139 -104c0 -73 -66 -136 -188 -221h97c49 0 76 23 98 51l4 -1z" />
    <glyph glyph-name="three.num" horiz-adv-x="311" 
d="M137 346c-42 0 -83 10 -106 23l-13 95l6 1c41 -61 64 -104 109 -104c47 0 72 45 72 110c0 69 -28 103 -76 103c-27 0 -49 -10 -66 -22l-6 7l131 111h-153l20 68h233v-5l-173 -145c10 3 23 4 37 4c68 0 141 -37 141 -121c0 -77 -63 -125 -156 -125z" />
    <glyph glyph-name="four.num" horiz-adv-x="329" 
d="M151 354v1c17 28 21 44 21 81v18h-162v6l171 279h102l-250 -268h139v107h89v-107h50l-4 -17h-46v-18c0 -38 4 -53 21 -81v-1h-131z" />
    <glyph glyph-name="six.num" horiz-adv-x="338" 
d="M170 346c-90 0 -148 70 -148 157c0 86 52 199 232 244l3 -9c-84 -31 -124 -102 -139 -173c11 24 35 45 78 45c65 0 122 -47 122 -125c0 -83 -67 -139 -148 -139zM173 361c36 0 58 41 58 115c0 76 -24 104 -60 104c-24 0 -47 -12 -57 -38c-3 -18 -4 -36 -4 -53
c0 -66 18 -128 63 -128z" />
    <glyph glyph-name="seven.num" horiz-adv-x="284" 
d="M138 354h-93c39 125 112 229 183 312h-208l14 73h250v-5c-60 -99 -122 -226 -146 -380z" />
    <glyph glyph-name="eight.num" horiz-adv-x="320" 
d="M155 346c-79 0 -140 39 -140 101c0 39 25 73 85 91c-52 30 -67 66 -67 100c0 64 52 109 128 109c72 0 126 -38 126 -89c0 -29 -17 -64 -76 -81c70 -36 94 -77 94 -119c0 -69 -65 -112 -150 -112zM156 361c46 0 77 27 77 66c0 47 -40 68 -115 101l-6 3
c-25 -21 -37 -50 -37 -82c0 -53 29 -88 81 -88zM193 586l5 -2c23 20 29 48 29 72c0 48 -23 76 -64 76c-39 0 -62 -25 -62 -57c0 -37 28 -60 92 -89z" />
    <glyph glyph-name="nine.num" horiz-adv-x="338" 
d="M81 355c84 31 124 102 139 173c-12 -24 -35 -45 -78 -45c-65 0 -122 47 -122 125c0 83 67 139 148 139c90 0 148 -70 148 -157c0 -86 -52 -199 -232 -244zM167 513c23 0 46 11 57 38c3 18 4 36 4 53c0 66 -18 128 -63 128c-36 0 -58 -41 -58 -115c0 -76 24 -104 60 -104z
" />
    <glyph glyph-name="five.den" horiz-adv-x="296" 
d="M121 -8c-41 0 -74 11 -93 22l-13 97l5 1c27 -57 59 -105 103 -105c41 0 68 41 68 110c0 72 -28 110 -84 110c-21 0 -40 -5 -62 -19l-4 3l28 174h201l-13 -68h-182l-16 -89c21 11 45 16 71 16c71 0 146 -38 146 -125s-78 -127 -155 -127z" />
    <glyph glyph-name="zero.den" horiz-adv-x="382" 
d="M189 -8c-92 0 -167 87 -167 201c0 115 74 200 167 200c92 0 171 -85 171 -200c0 -114 -79 -201 -171 -201zM189 7c58 0 77 80 77 186s-19 185 -77 185s-73 -79 -73 -185s15 -186 73 -186z" />
    <glyph glyph-name="one.den" horiz-adv-x="208" 
d="M178 0h-140v1c22 28 27 44 27 81v221h-47v6c47 21 91 47 128 84h6v-311c0 -38 5 -53 26 -81v-1z" />
    <glyph glyph-name="two.den" horiz-adv-x="306" 
d="M254 0h-249v6c135 127 178 202 178 281c0 57 -20 91 -55 91c-37 0 -71 -42 -100 -100l-5 1l13 97c19 7 49 17 95 17c96 0 139 -45 139 -104c0 -73 -66 -136 -188 -221h97c49 0 76 23 98 51l4 -1z" />
    <glyph glyph-name="three.den" horiz-adv-x="311" 
d="M137 -8c-42 0 -83 10 -106 23l-13 95l6 1c41 -61 64 -104 109 -104c47 0 72 45 72 110c0 69 -28 103 -76 103c-27 0 -49 -10 -66 -22l-6 7l131 111h-153l20 68h233v-5l-173 -145c10 3 23 4 37 4c68 0 141 -37 141 -121c0 -77 -63 -125 -156 -125z" />
    <glyph glyph-name="four.den" horiz-adv-x="329" 
d="M151 0v1c17 28 21 44 21 81v18h-162v6l171 279h102l-250 -268h139v107h89v-107h50l-4 -17h-46v-18c0 -38 4 -53 21 -81v-1h-131z" />
    <glyph glyph-name="six.den" horiz-adv-x="338" 
d="M170 -8c-90 0 -148 70 -148 157c0 86 52 199 232 244l3 -9c-84 -31 -124 -102 -139 -173c11 24 35 45 78 45c65 0 122 -47 122 -125c0 -83 -67 -139 -148 -139zM173 7c36 0 58 41 58 115c0 76 -24 104 -60 104c-24 0 -47 -12 -57 -38c-3 -18 -4 -36 -4 -53
c0 -66 18 -128 63 -128z" />
    <glyph glyph-name="seven.den" horiz-adv-x="284" 
d="M138 0h-93c39 125 112 229 183 312h-208l14 73h250v-5c-60 -99 -122 -226 -146 -380z" />
    <glyph glyph-name="eight.den" horiz-adv-x="320" 
d="M155 -8c-79 0 -140 39 -140 101c0 39 25 73 85 91c-52 30 -67 66 -67 100c0 64 52 109 128 109c72 0 126 -38 126 -89c0 -29 -17 -64 -76 -81c70 -36 94 -77 94 -119c0 -69 -65 -112 -150 -112zM156 7c46 0 77 27 77 66c0 47 -40 68 -115 101l-6 3
c-25 -21 -37 -50 -37 -82c0 -53 29 -88 81 -88zM193 232l5 -2c23 20 29 48 29 72c0 48 -23 76 -64 76c-39 0 -62 -25 -62 -57c0 -37 28 -60 92 -89z" />
    <glyph glyph-name="nine.den" horiz-adv-x="338" 
d="M81 1c84 31 124 102 139 173c-12 -24 -35 -45 -78 -45c-65 0 -122 47 -122 125c0 83 67 139 148 139c90 0 148 -70 148 -157c0 -86 -52 -199 -232 -244zM167 159c23 0 46 11 57 38c3 18 4 36 4 53c0 66 -18 128 -63 128c-36 0 -58 -41 -58 -115c0 -76 24 -104 60 -104z
" />
    <glyph glyph-name="five.sub" horiz-adv-x="296" 
d="M121 -88c-41 0 -74 11 -93 22l-13 97l5 1c27 -57 59 -105 103 -105c41 0 68 41 68 110c0 72 -28 110 -84 110c-21 0 -40 -5 -62 -19l-4 3l28 174h201l-13 -68h-182l-16 -89c21 11 45 16 71 16c71 0 146 -38 146 -125s-78 -127 -155 -127z" />
    <glyph glyph-name="zero.sub" horiz-adv-x="382" 
d="M189 -88c-92 0 -167 87 -167 201c0 115 74 200 167 200c92 0 171 -85 171 -200c0 -114 -79 -201 -171 -201zM189 -73c58 0 77 80 77 186s-19 185 -77 185s-73 -79 -73 -185s15 -186 73 -186z" />
    <glyph glyph-name="one.sub" horiz-adv-x="208" 
d="M178 -80h-140v1c22 28 27 44 27 81v221h-47v6c47 21 91 47 128 84h6v-311c0 -38 5 -53 26 -81v-1z" />
    <glyph glyph-name="two.sub" horiz-adv-x="306" 
d="M254 -80h-249v6c135 127 178 202 178 281c0 57 -20 91 -55 91c-37 0 -71 -42 -100 -100l-5 1l13 97c19 7 49 17 95 17c96 0 139 -45 139 -104c0 -73 -66 -136 -188 -221h97c49 0 76 23 98 51l4 -1z" />
    <glyph glyph-name="three.sub" horiz-adv-x="311" 
d="M137 -88c-42 0 -83 10 -106 23l-13 95l6 1c41 -61 64 -104 109 -104c47 0 72 45 72 110c0 69 -28 103 -76 103c-27 0 -49 -10 -66 -22l-6 7l131 111h-153l20 68h233v-5l-173 -145c10 3 23 4 37 4c68 0 141 -37 141 -121c0 -77 -63 -125 -156 -125z" />
    <glyph glyph-name="four.sub" horiz-adv-x="329" 
d="M151 -80v1c17 28 21 44 21 81v18h-162v6l171 279h102l-250 -268h139v107h89v-107h50l-4 -17h-46v-18c0 -38 4 -53 21 -81v-1h-131z" />
    <glyph glyph-name="six.sub" horiz-adv-x="338" 
d="M170 -88c-90 0 -148 70 -148 157c0 86 52 199 232 244l3 -9c-84 -31 -124 -102 -139 -173c11 24 35 45 78 45c65 0 122 -47 122 -125c0 -83 -67 -139 -148 -139zM173 -73c36 0 58 41 58 115c0 76 -24 104 -60 104c-24 0 -47 -12 -57 -38c-3 -18 -4 -36 -4 -53
c0 -66 18 -128 63 -128z" />
    <glyph glyph-name="seven.sub" horiz-adv-x="284" 
d="M138 -80h-93c39 125 112 229 183 312h-208l14 73h250v-5c-60 -99 -122 -226 -146 -380z" />
    <glyph glyph-name="eight.sub" horiz-adv-x="320" 
d="M155 -88c-79 0 -140 39 -140 101c0 39 25 73 85 91c-52 30 -67 66 -67 100c0 64 52 109 128 109c72 0 126 -38 126 -89c0 -29 -17 -64 -76 -81c70 -36 94 -77 94 -119c0 -69 -65 -112 -150 -112zM156 -73c46 0 77 27 77 66c0 47 -40 68 -115 101l-6 3
c-25 -21 -37 -50 -37 -82c0 -53 29 -88 81 -88zM193 152l5 -2c23 20 29 48 29 72c0 48 -23 76 -64 76c-39 0 -62 -25 -62 -57c0 -37 28 -60 92 -89z" />
    <glyph glyph-name="nine.sub" horiz-adv-x="338" 
d="M168 313c90 0 148 -70 148 -157c0 -86 -52 -199 -232 -244l-3 9c84 31 124 102 139 173c-11 -24 -35 -45 -78 -45c-65 0 -122 47 -122 125c0 83 67 139 148 139zM165 298c-36 0 -58 -41 -58 -115c0 -76 24 -104 60 -104c24 0 47 12 57 38c3 18 4 36 4 53
c0 66 -18 128 -63 128z" />
    <glyph glyph-name="plus.sub" horiz-adv-x="315" 
d="M290 106h-123v-123h-20v123h-122v18h122v123h20v-123h123v-18z" />
    <glyph glyph-name="minus.sub" horiz-adv-x="315" 
d="M290 106h-265v18h265v-18z" />
    <glyph glyph-name="five.sup" horiz-adv-x="296" 
d="M121 426c-41 0 -74 11 -93 22l-13 97l5 1c27 -57 59 -105 103 -105c41 0 68 41 68 110c0 72 -28 110 -84 110c-21 0 -40 -5 -62 -19l-4 3l28 174h201l-13 -68h-182l-16 -89c21 11 45 16 71 16c71 0 146 -38 146 -125s-78 -127 -155 -127z" />
    <glyph glyph-name="zero.sup" horiz-adv-x="382" 
d="M189 426c-92 0 -167 87 -167 201c0 115 74 200 167 200c92 0 171 -85 171 -200c0 -114 -79 -201 -171 -201zM189 441c58 0 77 80 77 186s-19 185 -77 185s-73 -79 -73 -185s15 -186 73 -186z" />
    <glyph glyph-name="one.sup" horiz-adv-x="208" 
d="M178 434h-140v1c22 28 27 44 27 81v221h-47v6c47 21 91 47 128 84h6v-311c0 -38 5 -53 26 -81v-1z" />
    <glyph glyph-name="two.sup" horiz-adv-x="306" 
d="M254 434h-249v6c135 127 178 202 178 281c0 57 -20 91 -55 91c-37 0 -71 -42 -100 -100l-5 1l13 97c19 7 49 17 95 17c96 0 139 -45 139 -104c0 -73 -66 -136 -188 -221h97c49 0 76 23 98 51l4 -1z" />
    <glyph glyph-name="three.sup" horiz-adv-x="311" 
d="M137 426c-42 0 -83 10 -106 23l-13 95l6 1c41 -61 64 -104 109 -104c47 0 72 45 72 110c0 69 -28 103 -76 103c-27 0 -49 -10 -66 -22l-6 7l131 111h-153l20 68h233v-5l-173 -145c10 3 23 4 37 4c68 0 141 -37 141 -121c0 -77 -63 -125 -156 -125z" />
    <glyph glyph-name="four.sup" horiz-adv-x="329" 
d="M151 434v1c17 28 21 44 21 81v18h-162v6l171 279h102l-250 -268h139v107h89v-107h50l-4 -17h-46v-18c0 -38 4 -53 21 -81v-1h-131z" />
    <glyph glyph-name="six.sup" horiz-adv-x="338" 
d="M170 426c-90 0 -148 70 -148 157c0 86 52 199 232 244l3 -9c-84 -31 -124 -102 -139 -173c11 24 35 45 78 45c65 0 122 -47 122 -125c0 -83 -67 -139 -148 -139zM173 441c36 0 58 41 58 115c0 76 -24 104 -60 104c-24 0 -47 -12 -57 -38c-3 -18 -4 -36 -4 -53
c0 -66 18 -128 63 -128z" />
    <glyph glyph-name="seven.sup" horiz-adv-x="284" 
d="M138 434h-93c39 125 112 229 183 312h-208l14 73h250v-5c-60 -99 -122 -226 -146 -380z" />
    <glyph glyph-name="eight.sup" horiz-adv-x="320" 
d="M155 426c-79 0 -140 39 -140 101c0 39 25 73 85 91c-52 30 -67 66 -67 100c0 64 52 109 128 109c72 0 126 -38 126 -89c0 -29 -17 -64 -76 -81c70 -36 94 -77 94 -119c0 -69 -65 -112 -150 -112zM156 441c46 0 77 27 77 66c0 47 -40 68 -115 101l-6 3
c-25 -21 -37 -50 -37 -82c0 -53 29 -88 81 -88zM193 666l5 -2c23 20 29 48 29 72c0 48 -23 76 -64 76c-39 0 -62 -25 -62 -57c0 -37 28 -60 92 -89z" />
    <glyph glyph-name="nine.sup" horiz-adv-x="338" 
d="M81 435c84 31 124 102 139 173c-12 -24 -35 -45 -78 -45c-65 0 -122 47 -122 125c0 83 67 139 148 139c90 0 148 -70 148 -157c0 -86 -52 -199 -232 -244zM167 593c23 0 46 11 57 38c3 18 4 36 4 53c0 66 -18 128 -63 128c-36 0 -58 -41 -58 -115c0 -76 24 -104 60 -104z
" />
    <glyph glyph-name="plus.sup" horiz-adv-x="315" 
d="M290 616h-123v-123h-20v123h-122v18h122v123h20v-123h123v-18z" />
    <glyph glyph-name="minus.sup" horiz-adv-x="315" 
d="M290 616h-265v18h265v-18z" />
    <glyph glyph-name="space_uni0326.alt" 
d="M233 794l3 -5c-35 -24 -56 -57 -56 -85c0 -16 24 -46 42 -65v-1l-75 -50c-24 16 -42 44 -42 70c0 56 73 111 128 136z" />
    <glyph glyph-name="caron.alt" 
d="M28 574l23 201h90l-103 -203z" />
    <glyph glyph-name="space.uc" horiz-adv-x="191" 
 />
    <glyph glyph-name="questiondown.uc" horiz-adv-x="427" 
d="M285 508h16c-26 -155 -164 -166 -164 -366c0 -85 35 -139 101 -139s104 59 147 140l7 -2l-20 -131c-29 -11 -82 -25 -139 -25c-136 0 -208 55 -208 162c0 184 208 206 260 361zM287 737c38 0 67 -31 67 -67c0 -39 -29 -69 -67 -69c-37 0 -67 30 -67 69c0 36 30 67 67 67z
" />
    <glyph glyph-name="exclamdown.uc" horiz-adv-x="234" 
d="M171 2v-2h-107v2l45 506h16zM117 737c37 0 67 -31 67 -67c0 -39 -30 -69 -67 -69c-38 0 -67 30 -67 69c0 36 29 67 67 67z" />
    <glyph glyph-name="hyphen.uc" horiz-adv-x="281" 
d="M251 338h-221v50h221v-50z" />
    <glyph glyph-name="endash.uc" horiz-adv-x="530" 
d="M500 351h-470v20h470v-20z" />
    <glyph glyph-name="emdash.uc" horiz-adv-x="780" 
d="M750 351h-720v20h720v-20z" />
    <glyph glyph-name="guilsinglleft.uc" horiz-adv-x="281" 
d="M221 118l-8 -6l-153 175v20l153 175l8 -6l-91 -179z" />
    <glyph glyph-name="guilsinglright.uc" horiz-adv-x="281" 
d="M68 112l-8 6l91 179l-91 179l8 6l153 -175v-20z" />
    <glyph glyph-name="guillemotleft.uc" horiz-adv-x="431" 
d="M371 118l-8 -6l-153 175v20l153 175l8 -6l-91 -179zM221 118l-8 -6l-153 175v20l153 175l8 -6l-91 -179z" />
    <glyph glyph-name="guillemotright.uc" horiz-adv-x="431" 
d="M218 112l-8 6l91 179l-91 179l8 6l153 -175v-20zM68 112l-8 6l91 179l-91 179l8 6l153 -175v-20z" />
    <glyph glyph-name="parenleft.uc" horiz-adv-x="350" 
d="M303 -81l-8 -9c-128 98 -210 252 -210 442s82 345 210 443l8 -9c-73 -100 -123 -251 -123 -434s50 -333 123 -433z" />
    <glyph glyph-name="parenright.uc" horiz-adv-x="350" 
d="M55 -90l-8 9c73 100 123 250 123 433s-50 334 -123 434l8 9c128 -98 210 -253 210 -443s-82 -344 -210 -442z" />
    <glyph glyph-name="bracketleft.uc" horiz-adv-x="369" 
d="M90 -90v885h244v-20h-154v-845h154v-20h-244z" />
    <glyph glyph-name="bracketright.uc" horiz-adv-x="369" 
d="M279 795v-885h-244v20h154v845h-154v20h244z" />
    <glyph glyph-name="braceleft.uc" horiz-adv-x="343" 
d="M308 -90h-15c-134 0 -202 45 -202 128c0 72 64 145 64 217c0 63 -44 87 -113 87h-22v21h22c69 0 113 24 113 87c0 72 -64 145 -64 217c0 83 68 128 202 128h15v-20h-15c-70 0 -106 -11 -106 -99c0 -56 31 -129 31 -196c0 -94 -58 -114 -146 -126v-3
c88 -12 146 -30 146 -126c0 -68 -31 -140 -31 -196c0 -88 35 -99 106 -99h15v-20z" />
    <glyph glyph-name="braceright.uc" horiz-adv-x="343" 
d="M50 -90h-15v20h15c71 0 106 11 106 99c0 56 -31 128 -31 196c0 96 58 114 146 126v3c-88 12 -146 32 -146 126c0 67 31 140 31 196c0 88 -36 99 -106 99h-15v20h15c134 0 202 -45 202 -128c0 -72 -64 -145 -64 -217c0 -63 44 -87 113 -87h22v-21h-22
c-69 0 -113 -24 -113 -87c0 -72 64 -145 64 -217c0 -83 -68 -128 -202 -128z" />
    <glyph glyph-name="slash.uc" horiz-adv-x="392" 
d="M-9 -90l380 911h28l-380 -911h-28z" />
    <glyph glyph-name="backslash.uc" horiz-adv-x="392" 
d="M401 -90h-28l-380 911h28z" />
    <glyph glyph-name="bar.uc" horiz-adv-x="205" 
d="M115 -89h-25v911h25v-911z" />
    <glyph glyph-name="at.uc" horiz-adv-x="857" 
d="M421 -41c-219 0 -391 131 -391 360c0 238 190 437 455 437c207 0 342 -119 342 -313c0 -161 -95 -291 -228 -291c-113 0 -128 95 -118 161c-40 -89 -94 -166 -160 -166c-49 0 -82 48 -82 125c0 139 106 306 266 306c31 0 59 -6 79 -14l38 14h7l-62 -236
c-25 -94 -28 -170 46 -170c99 0 166 136 166 276c0 186 -119 288 -298 288c-246 0 -391 -201 -391 -420c0 -212 138 -337 335 -337c79 0 158 20 214 60l9 -16c-60 -42 -138 -64 -227 -64zM366 215c49 0 97 103 132 190l34 130c-7 18 -22 24 -41 24
c-94 0 -160 -167 -160 -275c0 -53 16 -69 35 -69z" />
    <glyph glyph-name="grave.uc" 
d="M260 792l-6 -10l-245 91l51 86z" />
    <glyph glyph-name="dieresis.uc" 
d="M330 868c0 -33 -27 -60 -60 -60s-60 27 -60 60s27 61 60 61s60 -28 60 -61zM90 868c0 -33 -27 -60 -60 -60s-60 27 -60 60s27 61 60 61s60 -28 60 -61z" />
    <glyph glyph-name="macron.uc" 
d="M-7 833v50h313v-50h-313z" />
    <glyph glyph-name="acute.uc" 
d="M26 792l195 167l52 -86l-241 -91z" />
    <glyph glyph-name="circumflex.uc" 
d="M297 782l-147 76l-147 -76l-9 10l153 153h6l153 -153z" />
    <glyph glyph-name="caron.uc" 
d="M78 782h-6l-153 153l9 10l147 -76l147 76l9 -10z" />
    <glyph glyph-name="breve.uc" 
d="M150 859c67 0 110 33 126 85h10c0 -57 -32 -150 -136 -150s-135 93 -135 150h10c16 -52 58 -85 125 -85z" />
    <glyph glyph-name="dotaccent.uc" 
d="M210 868c0 -33 -27 -60 -60 -60s-60 27 -60 60s27 61 60 61s60 -28 60 -61z" />
    <glyph glyph-name="ring.uc" 
d="M60 867c0 50 39 86 90 86s90 -35 90 -86c0 -50 -40 -85 -90 -85s-90 35 -90 85zM99 867c0 -41 19 -66 51 -66s51 25 51 66s-19 68 -51 68s-51 -27 -51 -68z" />
    <glyph glyph-name="tilde.uc" 
d="M72 905c61 0 109 -40 172 -40c34 0 52 12 66 54l10 -2c-3 -55 -11 -126 -92 -126c-61 0 -109 40 -172 40c-34 0 -52 -12 -66 -54l-10 2c3 55 11 126 92 126z" />
    <glyph glyph-name="hungarumlaut.uc" 
d="M158 792l131 157l58 -77l-180 -90zM-32 792l131 157l58 -77l-180 -90z" />
    <glyph glyph-name="Cacute.pl" horiz-adv-x="752" 
d="M705 240l-20 -183c-17 -13 -138 -72 -275 -72c-231 0 -380 167 -380 381c0 213 166 381 399 381c106 0 199 -27 252 -48l20 -164l-8 -3c-98 138 -162 195 -277 195c-185 0 -259 -154 -259 -361c0 -208 77 -361 253 -361c142 0 217 98 287 238zM355 789l114 172l67 -58
l-173 -121z" />
    <glyph glyph-name="Nacute.pl" horiz-adv-x="694" 
d="M573 -3l-464 630l4 -428c0 -90 13 -127 69 -197v-2h-154v2c50 70 61 107 61 197v392c-4 65 -22 95 -78 139v2h160l419 -569l-3 370c-1 90 -13 127 -61 197v2h144v-2c-48 -70 -61 -107 -61 -197v-533zM296 789l114 172l67 -58l-173 -121z" />
    <glyph glyph-name="Oacute.pl" horiz-adv-x="814" 
d="M406 -15c-188 0 -376 168 -376 380s188 382 376 382s378 -170 378 -382s-190 -380 -378 -380zM406 5c173 0 251 153 251 360c0 206 -78 362 -251 362c-172 0 -249 -156 -249 -362s77 -360 249 -360zM348 789l114 172l67 -58l-173 -121z" />
    <glyph glyph-name="Sacute.pl" horiz-adv-x="553" 
d="M454 718l20 -181l-9 -3c-68 148 -138 193 -207 193c-68 0 -109 -44 -109 -112c0 -95 84 -134 173 -178c98 -48 201 -101 201 -239c0 -150 -120 -213 -262 -213c-67 0 -140 14 -206 39l-20 185l8 3c78 -144 155 -207 246 -207s135 64 135 137c0 95 -73 143 -155 183
c-104 51 -209 101 -209 231c0 138 111 191 231 191c59 0 116 -12 163 -29zM220 789l114 172l67 -58l-173 -121z" />
    <glyph glyph-name="Zacute.pl" horiz-adv-x="623" 
d="M559 0h-539v11l439 705l-130 -4c-148 -5 -224 -95 -278 -175l-8 3l47 192h504v-11l-438 -706l160 5c149 5 227 99 284 191l8 -3zM275 789l114 172l67 -58l-173 -121z" />
    <glyph glyph-name="acute.pl" 
d="M86 548l81 201l82 -55l-154 -152z" />
    <glyph glyph-name="acute.ucpl" 
d="M104 789l114 172l67 -58l-173 -121z" />
    <glyph glyph-name="cacute.pl" horiz-adv-x="465" 
d="M430 116l6 -4c-26 -76 -88 -127 -187 -127c-136 0 -224 97 -224 245c0 152 122 262 253 262c69 0 109 -15 132 -26l13 -111l-9 -2c-27 48 -96 121 -151 121c-85 0 -140 -79 -140 -202c0 -131 69 -202 174 -202c48 0 101 13 133 46zM212 548l81 201l82 -55l-154 -152z" />
    <glyph glyph-name="divide.osf" horiz-adv-x="546" 
d="M494 232h-442v22h442v-22zM273 10c-37 0 -67 31 -67 67c0 38 30 68 67 68c36 0 67 -30 67 -68c0 -36 -31 -67 -67 -67zM273 334c-37 0 -67 31 -67 67c0 38 30 68 67 68c36 0 67 -30 67 -68c0 -36 -31 -67 -67 -67z" />
    <glyph glyph-name="eight.osf" horiz-adv-x="468" 
d="M230 -10c-123 0 -205 76 -205 175c0 90 69 162 146 200c-69 47 -131 101 -131 198c0 115 85 184 199 184c111 0 189 -72 189 -158c0 -66 -45 -125 -145 -164c80 -50 160 -112 160 -234c0 -135 -99 -201 -213 -201zM230 10c76 0 122 64 122 144c0 96 -75 142 -151 191
c-5 3 -10 6 -15 10c-49 -45 -77 -101 -77 -182c0 -96 38 -163 121 -163zM260 439l9 -6c72 45 84 105 84 152c0 85 -39 142 -117 142c-71 0 -115 -52 -115 -121c0 -83 67 -122 139 -167z" />
    <glyph glyph-name="equal.osf" horiz-adv-x="532" 
d="M487 312h-442v22h442v-22zM487 172h-442v22h442v-22z" />
    <glyph glyph-name="f.short" horiz-adv-x="313" 
d="M65 0v2c17 26 24 61 24 137v320h-63v18h63v66c0 148 61 235 148 235c25 0 54 -7 70 -14l11 -105l-6 -2c-34 54 -64 103 -79 103c-21 0 -44 -60 -44 -173v-110h98v-18h-98v-320c0 -75 8 -111 23 -137v-2h-147z" />
    <glyph glyph-name="f_f.short" horiz-adv-x="583" 
d="M65 0v2c17 26 24 61 24 137v320h-63v18h63v46c0 148 89 235 186 235c27 0 52 -7 62 -14l11 -105l-6 -2c-20 34 -65 103 -95 103c-28 0 -58 -60 -58 -173v-90h170v66c0 148 53 235 133 235c28 0 61 -7 75 -14l11 -105l-6 -2c-30 54 -60 103 -76 103
c-18 0 -37 -60 -37 -173v-110h98v-18h-98v-320c0 -75 8 -111 23 -137v-2h-147v2c17 26 24 61 24 137v320h-170v-320c0 -75 8 -111 23 -137v-2h-147z" />
    <glyph glyph-name="five.osf" horiz-adv-x="466" 
d="M165 -245c-79 0 -141 33 -159 50l-16 137l8 2c51 -109 114 -169 188 -169c83 0 126 76 126 166c0 131 -91 238 -253 279l106 277h276l-36 -94h-254l-33 -87c154 -42 283 -151 283 -319c0 -154 -109 -242 -236 -242z" />
    <glyph glyph-name="four.osf" horiz-adv-x="492" 
d="M266 -195v195h-271v10l271 361v2l43 56l59 78h8v-437h109l-16 -70h-93v-195h-110zM266 70v266l-198 -266h198z" />
    <glyph glyph-name="four.osfalt" horiz-adv-x="492" 
d="M266 -195v195h-281v10l310 467h137l-417 -453h251v156h110v-156h100l-8 -24h-92v-195h-110z" />
    <glyph glyph-name="greater.osf" horiz-adv-x="530" 
d="M485 228l-430 -208v26l407 195l-407 195v26l430 -208v-26z" />
    <glyph glyph-name="less.osf" horiz-adv-x="530" 
d="M475 20l-430 208v26l430 208v-26l-407 -195l407 -195v-26z" />
    <glyph glyph-name="minus.osf" horiz-adv-x="532" 
d="M487 232h-442v22h442v-22z" />
    <glyph glyph-name="multiply.osf" horiz-adv-x="472" 
d="M405 56l-169 169l-169 -169l-17 17l169 169l-169 169l17 17l169 -169l169 169l17 -17l-169 -169l169 -169z" />
    <glyph glyph-name="nacute.pl" horiz-adv-x="545" 
d="M196 2v-2h-145v2c19 55 23 104 23 192v118c0 66 -21 103 -45 130v2l141 53v-96l4 -1c43 52 91 92 161 92c91 0 141 -56 141 -145v-152c0 -90 2 -138 23 -193v-2h-145v2c18 55 22 108 22 192v130c0 57 -25 107 -92 107c-42 0 -81 -19 -110 -50v-186c0 -87 2 -138 22 -193z
M238 548l81 201l82 -55l-154 -152z" />
    <glyph glyph-name="nine.osf" horiz-adv-x="542" 
d="M265 512c150 0 242 -131 242 -284c0 -172 -114 -382 -420 -478l-3 10c148 62 237 177 280 300c-22 -28 -57 -50 -116 -50c-132 0 -218 112 -218 244c0 142 101 258 235 258zM266 492c-86 0 -126 -90 -126 -243c0 -159 45 -219 124 -219c50 0 89 24 115 79
c12 49 18 98 18 145c0 118 -31 238 -131 238z" />
    <glyph glyph-name="oacute.pl" horiz-adv-x="563" 
d="M281 -15c-141 0 -257 118 -256 253c1 134 117 254 256 254c140 0 257 -120 257 -254c0 -135 -116 -253 -257 -253zM281 5c103 0 147 112 147 233c0 120 -45 234 -147 234s-146 -114 -146 -234c0 -121 43 -233 146 -233zM246 548l81 201l82 -55l-154 -152z" />
    <glyph glyph-name="one.osf" horiz-adv-x="263" 
d="M243 0h-214v2c43 45 52 76 52 160v267h-81v11l189 67h2v-345c0 -85 9 -115 52 -160v-2z" />
    <glyph glyph-name="plus.osf" horiz-adv-x="532" 
d="M487 232h-209v-209h-24v209h-209v22h209v209h24v-209h209v-22z" />
    <glyph glyph-name="sacute.pl" horiz-adv-x="399" 
d="M336 472l10 -109l-6 -2c-51 87 -108 113 -155 113c-52 0 -82 -33 -82 -74c0 -58 63 -80 129 -108c70 -30 142 -67 142 -163c0 -99 -83 -144 -187 -144c-52 0 -105 11 -147 26l-10 128l6 2c50 -97 101 -138 164 -138c67 0 92 45 92 86c0 52 -39 76 -106 105
s-148 62 -148 162c0 102 86 136 174 136c48 0 97 -10 124 -20zM163 548l81 201l82 -55l-154 -152z" />
    <glyph glyph-name="seven.osf" horiz-adv-x="450" 
d="M125 -245h-115c112 266 250 479 364 648h-348l22 94h392v-10c-107 -191 -214 -433 -315 -732z" />
    <glyph glyph-name="six.osf" horiz-adv-x="542" 
d="M277 -10c-150 0 -242 131 -242 284c0 172 114 382 420 478l3 -10c-148 -62 -237 -177 -280 -300c22 28 57 50 116 50c132 0 218 -112 218 -244c0 -142 -101 -258 -235 -258zM276 10c86 0 126 90 126 243c0 159 -45 219 -124 219c-50 0 -89 -24 -115 -79
c-12 -49 -18 -98 -18 -145c0 -118 31 -238 131 -238z" />
    <glyph glyph-name="three.osf" horiz-adv-x="469" 
d="M193 -245c-77 0 -140 25 -163 41l-25 146l8 2c59 -108 113 -170 189 -170c80 0 127 72 127 158c0 122 -91 193 -197 216v5c114 28 183 103 183 210c0 75 -34 125 -87 125c-61 0 -114 -64 -160 -153l-7 2l20 138c21 11 83 32 157 32c109 0 182 -50 182 -144
c0 -76 -44 -135 -133 -172c84 -35 151 -108 151 -213c0 -129 -104 -223 -245 -223z" />
    <glyph glyph-name="three.osfalt" horiz-adv-x="469" 
d="M193 -245c-77 0 -140 25 -163 41l-25 146l8 2c59 -108 113 -170 189 -170c80 0 127 72 127 158c0 122 -91 193 -197 216v5c114 28 176 91 176 179c0 71 -40 119 -118 119c-39 0 -96 -12 -130 -39l-5 6c41 53 103 89 188 89c105 0 175 -56 175 -146
c0 -69 -41 -132 -131 -170c84 -35 151 -108 151 -213c0 -129 -104 -223 -245 -223z" />
    <glyph glyph-name="two.osf" horiz-adv-x="490" 
d="M412 0h-386v8c186 122 248 236 248 350c0 82 -34 129 -86 129c-54 0 -98 -51 -140 -139l-7 2l20 124c26 15 75 33 142 33c114 0 186 -52 186 -151c0 -98 -70 -184 -226 -258h178c57 0 74 15 101 58l7 -3z" />
    <glyph glyph-name="two.osfalt" horiz-adv-x="490" 
d="M412 0h-386v8c186 122 257 224 257 323c0 74 -40 120 -118 120c-40 0 -83 -12 -117 -39l-5 6c41 53 103 89 188 89c105 0 175 -58 175 -152c0 -106 -84 -183 -239 -257h174c57 0 74 15 101 58l7 -3z" />
    <glyph glyph-name="uni0192" unicode="&#x192;" horiz-adv-x="579" 
d="M45 -190c-29 0 -66 8 -78 14l-17 131l8 2c32 -64 68 -127 105 -127c36 0 58 58 109 291l54 246h-82l5 20h81l14 62c46 211 140 298 235 298c29 0 60 -8 72 -14l8 -141l-8 -2c-29 69 -61 137 -94 137c-34 0 -56 -57 -97 -236l-24 -104h109l-4 -20h-109l-42 -183
c-66 -287 -153 -374 -245 -374z" />
    <glyph glyph-name="uni0237" unicode="&#x237;" horiz-adv-x="245" 
d="M11 -243l-2 6c44 27 65 70 65 141v404c0 64 -21 102 -45 129v7l145 53l-2 -523c0 -137 -74 -206 -161 -217z" />
    <glyph glyph-name="zacute.pl" horiz-adv-x="447" 
d="M392 0h-377v7l282 453l-120 -4c-50 -1 -102 -60 -142 -102l-5 2l33 121h353v-8l-280 -452l131 3c60 2 110 56 155 112l5 -2zM202 548l81 201l82 -55l-154 -152z" />
    <glyph glyph-name="zero.osf" horiz-adv-x="547" 
d="M273 -10c-137 0 -249 121 -248 258s113 259 248 259c136 0 249 -122 249 -259s-112 -258 -249 -258zM273 10c96 0 134 115 134 238s-39 239 -134 239s-133 -116 -133 -239s37 -238 133 -238z" />
    <glyph glyph-name="A" unicode="A" horiz-adv-x="636" 
d="M379 296l-109 289l-110 -289h219zM133 2v-2h-135v2c48 50 66 95 95 172l215 566h20l219 -577c33 -87 56 -125 91 -161v-2h-199v2c17 29 17 92 -11 166l-41 108h-235l-21 -56c-45 -117 -19 -185 2 -218z" />
    </font>
</defs>
</svg>
